<mxfile host="app.diagrams.net" modified="2023-10-01T12:07:05.200Z" agent="Mozilla/5.0 (Windows NT 10.0; Win64; x64) AppleWebKit/537.36 (KHTML, like Gecko) Chrome/116.0.0.0 Safari/537.36" etag="ZzgY-BOGz-1O2UqN-sZX" version="22.0.0" type="device">
  <diagram name="Page-1" id="6U7cxVbmL-h4ST4S2b6E">
    <mxGraphModel dx="1050" dy="534" grid="0" gridSize="10" guides="1" tooltips="1" connect="1" arrows="1" fold="1" page="1" pageScale="1" pageWidth="850" pageHeight="1100" math="0" shadow="0">
      <root>
        <mxCell id="0" />
        <mxCell id="1" parent="0" />
        <mxCell id="XTNJF4i909FQv-qMsK3W-1" value="Sign Up Page - User Register" style="rounded=1;whiteSpace=wrap;html=1;" vertex="1" parent="1">
          <mxGeometry x="51" y="120" width="210" height="250" as="geometry" />
        </mxCell>
        <mxCell id="XTNJF4i909FQv-qMsK3W-2" value="Login Page : &lt;br&gt;&lt;br&gt;User Name&lt;br&gt;Password&lt;br&gt;&lt;br&gt;Forgot Password ?" style="rounded=1;whiteSpace=wrap;html=1;" vertex="1" parent="1">
          <mxGeometry x="288.5" y="120" width="260" height="170" as="geometry" />
        </mxCell>
        <mxCell id="XTNJF4i909FQv-qMsK3W-3" value="Profile Page - Show details entered during User Registration" style="rounded=1;whiteSpace=wrap;html=1;" vertex="1" parent="1">
          <mxGeometry x="571" y="120" width="200" height="240" as="geometry" />
        </mxCell>
        <mxCell id="XTNJF4i909FQv-qMsK3W-4" value="&lt;font style=&quot;font-size: 18px;&quot;&gt;Registration Page&lt;/font&gt;" style="text;html=1;strokeColor=none;fillColor=none;align=center;verticalAlign=middle;whiteSpace=wrap;rounded=0;" vertex="1" parent="1">
          <mxGeometry x="91" y="80" width="150" height="30" as="geometry" />
        </mxCell>
        <mxCell id="XTNJF4i909FQv-qMsK3W-5" value="&lt;font style=&quot;font-size: 18px;&quot;&gt;Login Page&lt;/font&gt;" style="text;html=1;strokeColor=none;fillColor=none;align=center;verticalAlign=middle;whiteSpace=wrap;rounded=0;" vertex="1" parent="1">
          <mxGeometry x="356" y="80" width="130" height="30" as="geometry" />
        </mxCell>
        <mxCell id="XTNJF4i909FQv-qMsK3W-6" value="&lt;font style=&quot;font-size: 18px;&quot;&gt;Profile Page&lt;/font&gt;" style="text;html=1;strokeColor=none;fillColor=none;align=center;verticalAlign=middle;whiteSpace=wrap;rounded=0;" vertex="1" parent="1">
          <mxGeometry x="606" y="80" width="130" height="30" as="geometry" />
        </mxCell>
        <mxCell id="XTNJF4i909FQv-qMsK3W-7" value="&lt;font style=&quot;font-size: 18px;&quot;&gt;HTML/JS/CSS/PHP&lt;/font&gt;" style="text;html=1;strokeColor=none;fillColor=none;align=center;verticalAlign=middle;whiteSpace=wrap;rounded=0;" vertex="1" parent="1">
          <mxGeometry x="81" y="130" width="150" height="30" as="geometry" />
        </mxCell>
        <mxCell id="XTNJF4i909FQv-qMsK3W-8" value="&lt;font style=&quot;font-size: 18px;&quot;&gt;HTML/JS/CSS/PHP&lt;/font&gt;" style="text;html=1;strokeColor=none;fillColor=none;align=center;verticalAlign=middle;whiteSpace=wrap;rounded=0;" vertex="1" parent="1">
          <mxGeometry x="346" y="120" width="150" height="30" as="geometry" />
        </mxCell>
        <mxCell id="XTNJF4i909FQv-qMsK3W-9" value="&lt;font style=&quot;font-size: 18px;&quot;&gt;HTML/JS/CSS/PHP&lt;/font&gt;" style="text;html=1;strokeColor=none;fillColor=none;align=center;verticalAlign=middle;whiteSpace=wrap;rounded=0;" vertex="1" parent="1">
          <mxGeometry x="596" y="130" width="150" height="30" as="geometry" />
        </mxCell>
        <mxCell id="XTNJF4i909FQv-qMsK3W-10" value="&lt;font style=&quot;font-size: 18px;&quot;&gt;&lt;b&gt;JQuery AJAX&lt;/b&gt; (Asynchronous JavaScript and XML)&lt;/font&gt;" style="text;html=1;strokeColor=none;fillColor=none;align=center;verticalAlign=middle;whiteSpace=wrap;rounded=0;" vertex="1" parent="1">
          <mxGeometry x="231" y="630" width="415" height="30" as="geometry" />
        </mxCell>
        <mxCell id="XTNJF4i909FQv-qMsK3W-11" value="" style="endArrow=none;dashed=1;html=1;dashPattern=1 3;strokeWidth=2;rounded=0;" edge="1" parent="1">
          <mxGeometry width="50" height="50" relative="1" as="geometry">
            <mxPoint x="23" y="560" as="sourcePoint" />
            <mxPoint x="811" y="560" as="targetPoint" />
          </mxGeometry>
        </mxCell>
        <mxCell id="XTNJF4i909FQv-qMsK3W-14" value="&lt;font style=&quot;font-size: 29px;&quot;&gt;&lt;b&gt;Internship Project&amp;nbsp;&lt;/b&gt;&lt;/font&gt;" style="text;html=1;strokeColor=none;fillColor=none;align=center;verticalAlign=middle;whiteSpace=wrap;rounded=0;" vertex="1" parent="1">
          <mxGeometry x="353.5" y="10" width="272.5" height="30" as="geometry" />
        </mxCell>
        <mxCell id="XTNJF4i909FQv-qMsK3W-15" value="&lt;div style=&quot;text-align: center; font-size: 15px;&quot;&gt;&lt;font style=&quot;font-size: 15px;&quot;&gt;&lt;span style=&quot;font-family: Comfortaa-Bold; color: rgb(0, 0, 0); font-weight: bold;&quot;&gt;HTML&lt;/span&gt;&lt;span style=&quot;font-family: Comfortaa; color: rgb(0, 0, 0);&quot;&gt;, &lt;/span&gt;&lt;span style=&quot;font-family: Comfortaa-Bold; color: rgb(0, 0, 0); font-weight: bold;&quot;&gt;JS&lt;/span&gt;&lt;span style=&quot;font-family: Comfortaa; color: rgb(0, 0, 0);&quot;&gt;, &lt;/span&gt;&lt;span style=&quot;font-family: Comfortaa-Bold; color: rgb(0, 0, 0); font-weight: bold;&quot;&gt;CSS&lt;/span&gt;&lt;span style=&quot;font-family: Comfortaa; color: rgb(0, 0, 0);&quot;&gt;, and &lt;/span&gt;&lt;span style=&quot;font-family: Comfortaa-Bold; color: rgb(0, 0, 0); font-weight: bold;&quot;&gt;PHP &lt;/span&gt;&lt;span style=&quot;font-family: Comfortaa; color: rgb(0, 0, 0);&quot;&gt;code should be in separate files none&lt;br&gt;&lt;/span&gt;&lt;/font&gt;&lt;/div&gt;&lt;div style=&quot;text-align: center; font-size: 15px;&quot;&gt;&lt;span style=&quot;font-family: Comfortaa; color: rgb(0, 0, 0);&quot;&gt;&lt;font style=&quot;font-size: 15px;&quot;&gt;of the code must co-exist in the same file.&lt;/font&gt;&lt;br&gt;&lt;/span&gt;&lt;/div&gt;" style="text;whiteSpace=wrap;html=1;" vertex="1" parent="1">
          <mxGeometry x="171" y="390" width="240" height="70" as="geometry" />
        </mxCell>
        <mxCell id="XTNJF4i909FQv-qMsK3W-16" value="&lt;div&gt;&lt;span style=&quot;mso-spacerun:&#39;yes&#39;;font-size:13pt;font-family:Comfortaa;color:rgb(0,0,0);&quot;&gt;Only use Jquery &lt;/span&gt;&lt;span style=&quot;mso-spacerun:&#39;yes&#39;;font-size:13pt;font-family:Comfortaa-Bold;color:rgb(0,0,0);font-weight:bold;&quot;&gt;AJAX &lt;/span&gt;&lt;span style=&quot;mso-spacerun:&#39;yes&#39;;font-size:13pt;font-family:Comfortaa;color:rgb(0,0,0);&quot;&gt;for interacting with the backend (strictly&lt;br&gt;&lt;/span&gt;&lt;/div&gt;&lt;div&gt;&lt;span style=&quot;mso-spacerun:&#39;yes&#39;;font-size:13pt;font-family:Comfortaa;color:rgb(0,0,0);&quot;&gt;no usage of form submission).&lt;/span&gt;&lt;/div&gt;" style="text;whiteSpace=wrap;html=1;align=center;" vertex="1" parent="1">
          <mxGeometry x="201" y="660" width="480" height="70" as="geometry" />
        </mxCell>
        <mxCell id="XTNJF4i909FQv-qMsK3W-17" value="&lt;div style=&quot;text-align: center; font-size: 15px;&quot;&gt;&lt;font style=&quot;font-size: 15px;&quot;&gt;&lt;span style=&quot;font-family: Comfortaa-Bold; color: rgb(0, 0, 0); font-weight: bold;&quot;&gt;CSS &lt;/span&gt;&lt;span style=&quot;font-family: Comfortaa; color: rgb(0, 0, 0);&quot;&gt;can be used but the form must be designed in bootstrap in&lt;br&gt;&lt;/span&gt;&lt;/font&gt;&lt;/div&gt;&lt;div style=&quot;text-align: center; font-size: 15px;&quot;&gt;&lt;span style=&quot;font-family: Comfortaa; color: rgb(0, 0, 0);&quot;&gt;&lt;font style=&quot;font-size: 15px;&quot;&gt;order to maintain page responsiveness.&lt;/font&gt;&lt;br&gt;&lt;/span&gt;&lt;/div&gt;" style="text;whiteSpace=wrap;html=1;" vertex="1" parent="1">
          <mxGeometry x="171" y="480" width="235" height="70" as="geometry" />
        </mxCell>
        <mxCell id="XTNJF4i909FQv-qMsK3W-19" value="&lt;div style=&quot;font-size: 18px;&quot;&gt;Use &lt;span style=&quot;font-family: Comfortaa-Bold; font-weight: bold;&quot;&gt;&lt;font style=&quot;font-size: 18px;&quot;&gt;MySql&lt;/font&gt;&lt;/span&gt;&lt;span style=&quot;font-family: Comfortaa-Bold; font-weight: bold;&quot;&gt; &lt;/span&gt;&lt;span style=&quot;font-family: Comfortaa;&quot;&gt;for storing the registered data&lt;/span&gt;&lt;/div&gt;" style="rounded=1;whiteSpace=wrap;html=1;" vertex="1" parent="1">
          <mxGeometry x="61" y="740" width="310" height="40" as="geometry" />
        </mxCell>
        <mxCell id="XTNJF4i909FQv-qMsK3W-21" value="&lt;div style=&quot;border-color: var(--border-color); text-align: left;&quot;&gt;&lt;b style=&quot;&quot;&gt;&lt;font style=&quot;font-size: 16px;&quot;&gt;MongoDB&lt;/font&gt;&lt;span style=&quot;font-size: 13px;&quot;&gt;&amp;nbsp;&lt;/span&gt;&lt;/b&gt;&lt;span style=&quot;border-color: var(--border-color); font-size: 13pt; font-family: Comfortaa;&quot;&gt;for&amp;nbsp;&lt;/span&gt;&lt;span style=&quot;font-family: Comfortaa; font-size: 13pt; background-color: initial;&quot;&gt;Storing the details of the user profiles&lt;/span&gt;&lt;/div&gt;" style="rounded=1;whiteSpace=wrap;html=1;" vertex="1" parent="1">
          <mxGeometry x="451" y="740" width="370" height="40" as="geometry" />
        </mxCell>
        <mxCell id="XTNJF4i909FQv-qMsK3W-24" value="&lt;div style=&quot;border-color: var(--border-color); font-size: 18px;&quot;&gt;&lt;span style=&quot;&quot;&gt;In &lt;/span&gt;&lt;b style=&quot;&quot;&gt;&lt;font style=&quot;font-size: 18px;&quot;&gt;MySQL &lt;/font&gt;&lt;/b&gt;&lt;span style=&quot;&quot;&gt;always use Prepared Statements, with no usage of&amp;nbsp;&lt;/span&gt;&lt;span style=&quot;font-family: Comfortaa; background-color: initial;&quot;&gt;simple SQL statements.&lt;/span&gt;&lt;/div&gt;" style="rounded=1;whiteSpace=wrap;html=1;align=center;" vertex="1" parent="1">
          <mxGeometry x="61" y="800" width="317.5" height="71" as="geometry" />
        </mxCell>
        <mxCell id="XTNJF4i909FQv-qMsK3W-26" value="&lt;div style=&quot;border-color: var(--border-color); font-size: 17px;&quot;&gt;&lt;font style=&quot;font-size: 17px;&quot;&gt;The login session should be maintained only using browser&lt;br style=&quot;border-color: var(--border-color);&quot;&gt;&lt;/font&gt;&lt;/div&gt;&lt;div style=&quot;border-color: var(--border-color); font-size: 20px;&quot;&gt;&lt;font style=&quot;font-size: 20px;&quot;&gt;&lt;span style=&quot;border-color: var(--border-color); font-family: Comfortaa-Bold; font-weight: bold;&quot;&gt;localstorage&amp;nbsp;&lt;/span&gt;&lt;span style=&quot;border-color: var(--border-color); font-family: Comfortaa;&quot;&gt;(&lt;b&gt;Do not use PHP Session&lt;/b&gt;)&lt;/span&gt;&lt;/font&gt;&lt;/div&gt;" style="rounded=1;whiteSpace=wrap;html=1;align=center;" vertex="1" parent="1">
          <mxGeometry x="451" y="800" width="370" height="69" as="geometry" />
        </mxCell>
        <mxCell id="XTNJF4i909FQv-qMsK3W-27" value="&lt;div&gt;&lt;font style=&quot;&quot;&gt;&lt;span style=&quot;font-size: 17px;&quot;&gt;Use &lt;/span&gt;&lt;b style=&quot;&quot;&gt;&lt;font style=&quot;font-size: 20px;&quot;&gt;Redis &lt;/font&gt;&lt;/b&gt;&lt;span style=&quot;font-size: 17px;&quot;&gt;to store the session information in the backend&lt;/span&gt;&lt;/font&gt;&lt;/div&gt;" style="rounded=1;whiteSpace=wrap;html=1;" vertex="1" parent="1">
          <mxGeometry x="238.5" y="880" width="360" height="60" as="geometry" />
        </mxCell>
        <mxCell id="XTNJF4i909FQv-qMsK3W-29" value="" style="image;html=1;image=img/lib/clip_art/computers/Database_128x128.png" vertex="1" parent="1">
          <mxGeometry x="91" y="650" width="80" height="80" as="geometry" />
        </mxCell>
        <mxCell id="XTNJF4i909FQv-qMsK3W-30" value="" style="image;html=1;image=img/lib/clip_art/computers/Database_128x128.png" vertex="1" parent="1">
          <mxGeometry x="691" y="640" width="80" height="80" as="geometry" />
        </mxCell>
        <mxCell id="XTNJF4i909FQv-qMsK3W-32" value="" style="edgeStyle=elbowEdgeStyle;elbow=vertical;endArrow=classic;html=1;curved=0;rounded=0;endSize=8;startSize=8;entryX=0.5;entryY=1;entryDx=0;entryDy=0;startArrow=block;startFill=1;" edge="1" parent="1" source="XTNJF4i909FQv-qMsK3W-29" target="XTNJF4i909FQv-qMsK3W-1">
          <mxGeometry width="50" height="50" relative="1" as="geometry">
            <mxPoint x="411" y="480" as="sourcePoint" />
            <mxPoint x="31" y="230" as="targetPoint" />
            <Array as="points">
              <mxPoint x="61" y="590" />
            </Array>
          </mxGeometry>
        </mxCell>
        <mxCell id="XTNJF4i909FQv-qMsK3W-33" value="&lt;font style=&quot;font-size: 18px;&quot;&gt;Bootstrapping&lt;/font&gt;" style="text;html=1;strokeColor=none;fillColor=none;align=center;verticalAlign=middle;whiteSpace=wrap;rounded=0;" vertex="1" parent="1">
          <mxGeometry x="81" y="210" width="150" height="30" as="geometry" />
        </mxCell>
        <mxCell id="XTNJF4i909FQv-qMsK3W-34" value="&lt;font style=&quot;font-size: 18px;&quot;&gt;Bootstrapping&lt;/font&gt;" style="text;html=1;strokeColor=none;fillColor=none;align=center;verticalAlign=middle;whiteSpace=wrap;rounded=0;" vertex="1" parent="1">
          <mxGeometry x="343.5" y="260" width="150" height="30" as="geometry" />
        </mxCell>
        <mxCell id="XTNJF4i909FQv-qMsK3W-35" value="&lt;font style=&quot;font-size: 18px;&quot;&gt;Bootstrapping&lt;/font&gt;" style="text;html=1;strokeColor=none;fillColor=none;align=center;verticalAlign=middle;whiteSpace=wrap;rounded=0;" vertex="1" parent="1">
          <mxGeometry x="596" y="300" width="150" height="30" as="geometry" />
        </mxCell>
        <mxCell id="XTNJF4i909FQv-qMsK3W-36" value="" style="edgeStyle=elbowEdgeStyle;elbow=vertical;endArrow=classic;html=1;curved=0;rounded=0;endSize=8;startSize=8;entryX=0.5;entryY=1;entryDx=0;entryDy=0;exitX=0.5;exitY=0;exitDx=0;exitDy=0;startArrow=block;startFill=1;" edge="1" parent="1" source="XTNJF4i909FQv-qMsK3W-30">
          <mxGeometry width="50" height="50" relative="1" as="geometry">
            <mxPoint x="651" y="650" as="sourcePoint" />
            <mxPoint x="676" y="360" as="targetPoint" />
            <Array as="points">
              <mxPoint x="581" y="590" />
            </Array>
          </mxGeometry>
        </mxCell>
        <mxCell id="XTNJF4i909FQv-qMsK3W-37" value="" style="edgeStyle=elbowEdgeStyle;elbow=vertical;endArrow=classic;html=1;curved=0;rounded=0;endSize=8;startSize=8;entryX=0.5;entryY=1;entryDx=0;entryDy=0;exitX=0.5;exitY=0;exitDx=0;exitDy=0;" edge="1" parent="1" source="XTNJF4i909FQv-qMsK3W-29" target="XTNJF4i909FQv-qMsK3W-34">
          <mxGeometry width="50" height="50" relative="1" as="geometry">
            <mxPoint x="171" y="650" as="sourcePoint" />
            <mxPoint x="196" y="370" as="targetPoint" />
            <Array as="points">
              <mxPoint x="281" y="610" />
            </Array>
          </mxGeometry>
        </mxCell>
        <mxCell id="XTNJF4i909FQv-qMsK3W-38" value="&lt;div style=&quot;text-align: center; font-size: 14px;&quot;&gt;&lt;span style=&quot;color: rgb(0, 0, 0);&quot;&gt;&lt;font style=&quot;font-size: 14px;&quot; face=&quot;Courier New&quot;&gt;&lt;b&gt;Successful login should redirect to a profile page which&lt;br&gt;&lt;/b&gt;&lt;/font&gt;&lt;/span&gt;&lt;/div&gt;&lt;div style=&quot;text-align: center; font-size: 14px;&quot;&gt;&lt;span style=&quot;color: rgb(0, 0, 0);&quot;&gt;&lt;font style=&quot;font-size: 14px;&quot; face=&quot;Courier New&quot;&gt;&lt;b&gt;should contain additional details such as age, dob,&lt;br&gt;&lt;/b&gt;&lt;/font&gt;&lt;/span&gt;&lt;/div&gt;&lt;div style=&quot;text-align: center; font-size: 14px;&quot;&gt;&lt;span style=&quot;color: rgb(0, 0, 0);&quot;&gt;&lt;font style=&quot;font-size: 14px;&quot; face=&quot;Courier New&quot;&gt;&lt;b&gt;contact, etc, The user can update&lt;/b&gt;&lt;/font&gt;&lt;br&gt;&lt;/span&gt;&lt;/div&gt;" style="text;whiteSpace=wrap;html=1;" vertex="1" parent="1">
          <mxGeometry x="421" y="390" width="250" height="70" as="geometry" />
        </mxCell>
        <mxCell id="XTNJF4i909FQv-qMsK3W-39" value="" style="endArrow=classic;html=1;rounded=0;entryX=0;entryY=0.5;entryDx=0;entryDy=0;" edge="1" parent="1" target="XTNJF4i909FQv-qMsK3W-5">
          <mxGeometry width="50" height="50" relative="1" as="geometry">
            <mxPoint x="251" y="95" as="sourcePoint" />
            <mxPoint x="211" y="30" as="targetPoint" />
          </mxGeometry>
        </mxCell>
        <mxCell id="XTNJF4i909FQv-qMsK3W-40" value="" style="endArrow=classic;html=1;rounded=0;entryX=0;entryY=0.5;entryDx=0;entryDy=0;" edge="1" parent="1" target="XTNJF4i909FQv-qMsK3W-6">
          <mxGeometry width="50" height="50" relative="1" as="geometry">
            <mxPoint x="471" y="94.41" as="sourcePoint" />
            <mxPoint x="576" y="94.41" as="targetPoint" />
          </mxGeometry>
        </mxCell>
        <mxCell id="XTNJF4i909FQv-qMsK3W-41" value="" style="endArrow=classic;html=1;rounded=0;entryX=0.75;entryY=0;entryDx=0;entryDy=0;exitX=0.102;exitY=-0.022;exitDx=0;exitDy=0;exitPerimeter=0;" edge="1" parent="1" source="XTNJF4i909FQv-qMsK3W-38" target="XTNJF4i909FQv-qMsK3W-38">
          <mxGeometry width="50" height="50" relative="1" as="geometry">
            <mxPoint x="436" y="350" as="sourcePoint" />
            <mxPoint x="571" y="350.59000000000003" as="targetPoint" />
          </mxGeometry>
        </mxCell>
        <mxCell id="XTNJF4i909FQv-qMsK3W-42" value="" style="shape=flexArrow;endArrow=classic;startArrow=classic;html=1;rounded=0;width=22.35294117647059;endSize=4.6117647058823525;" edge="1" parent="1">
          <mxGeometry width="100" height="100" relative="1" as="geometry">
            <mxPoint x="36" y="1084" as="sourcePoint" />
            <mxPoint x="36" y="569" as="targetPoint" />
            <Array as="points">
              <mxPoint x="36" y="775" />
            </Array>
          </mxGeometry>
        </mxCell>
        <mxCell id="XTNJF4i909FQv-qMsK3W-44" value="B&amp;nbsp; A&amp;nbsp; C&amp;nbsp; K&amp;nbsp; E&amp;nbsp; N&amp;nbsp; D" style="edgeLabel;html=1;align=center;verticalAlign=middle;resizable=0;points=[];rotation=270;" vertex="1" connectable="0" parent="XTNJF4i909FQv-qMsK3W-42">
          <mxGeometry x="-0.0131" relative="1" as="geometry">
            <mxPoint as="offset" />
          </mxGeometry>
        </mxCell>
        <mxCell id="XTNJF4i909FQv-qMsK3W-45" value="" style="shape=flexArrow;endArrow=classic;startArrow=classic;html=1;rounded=0;width=22.35294117647059;endSize=4.6117647058823525;" edge="1" parent="1">
          <mxGeometry width="100" height="100" relative="1" as="geometry">
            <mxPoint x="34" y="555" as="sourcePoint" />
            <mxPoint x="34" y="77" as="targetPoint" />
            <Array as="points">
              <mxPoint x="34" y="246" />
            </Array>
          </mxGeometry>
        </mxCell>
        <mxCell id="XTNJF4i909FQv-qMsK3W-46" value="F&amp;nbsp; R&amp;nbsp; O&amp;nbsp; N&amp;nbsp; T&amp;nbsp; &amp;nbsp;E&amp;nbsp; N&amp;nbsp; D" style="edgeLabel;html=1;align=center;verticalAlign=middle;resizable=0;points=[];rotation=270;" vertex="1" connectable="0" parent="XTNJF4i909FQv-qMsK3W-45">
          <mxGeometry x="-0.0131" relative="1" as="geometry">
            <mxPoint as="offset" />
          </mxGeometry>
        </mxCell>
        <mxCell id="XTNJF4i909FQv-qMsK3W-47" value="" style="shape=image;verticalLabelPosition=bottom;labelBackgroundColor=default;verticalAlign=top;aspect=fixed;imageAspect=0;image=data:image/png,iVBORw0KGgoAAAANSUhEUgAAAP4AAAJHCAYAAACwzOvFAAAAAXNSR0IArs4c6QAAAARnQU1BAACxjwv8YQUAAAAJcEhZcwAAEnQAABJ0Ad5mH3gAAMYOSURBVHhe7J0FYFRH14ZPdjduuAd3L6VFSw2oUWq0lDp1d3f5Kl/bv+7utFCn3gKFYqVAi7tbgLhns9n7zzPJ5VvSJCSbDZGdt70kuTJ37t15j83sOSGWghgYGAQVHMU/DQwMggiG+AYGQQhDfAODIIQhvoFBEMIQ38AgCGGIb2AQhDDENzAIQhjiGxgEIQzxDQyCEIb4BgZBCEN8A4MghFmrX+uQK8lbd0hSnlPimrWSlg3Ci/cbGAQOAdH4hVsny9WHd5K2bRMkIaH8rW27HnLCf+eq4V0VFMq2ydfI4MFXy+RthcX7Ko7c+U/JmAHHyaN/5BTvqXnkbp4mL998hgzp2EJadOgi3bt1lDatO8khJ18rz/64TrKKzzMwCAQCQnz3zpWyeNlWyWvUSw4fNEgGlbsNlH7tGomr+Fr/4JE965fIkiVLZF2ip3hfxeHZvExmL5kvyzZmF++pWeQsfVMuOX6MXP/875Le+WS56o4H5ZGH75ebzztMQv9+W249daSMf2yG7C4h4wrWfCGP3vWSzEisvPCradTlvtcLYOpXFTnzHrAGRURYh90/28op3le9yLMWPjrMiogYav1nQV7xvoojY9L5Vrwjzhr/3p7iPTUI9xrrlVObWa7oAdZVk1ZaGcW7bbi3TbceH9vOcoV1sSZO2mx5ivdb6retb5xmxbo6Wdd9l1m8r66gLve9fsAE92oYhXtny/QZSdJo7I1y35k9JLZ4v43QNkfLba+9JveM7SSR7jzxFu8H6vPjX/HWwShNXe57fYAhfg3Dm5MjuR6XNGrRTOKdxTtLwNnyeHlwyo/y8gXdJLR4n4FBVVBLiJ8iy75+Vm4+Z7Qc1r2dtG7dVroNHCUTbnpGvl6WUnxOJVC4V/6e/F+5dtxR0r9LgrRp31MGjpwgNz/zlSw9UHO5m2T663fLhScMkh7tWkvrdj3k8BMuknvemiVb84vP8UXWLHn81GPk4rdXSOaGX+TFm8bJ8J5tpUmj5tL1iCvl/ZUFxSeWjtBWPaRHB5HNf8yUBanFOw+ArNU/ydsvvSwfzNooBZ5E+ef7N+WFF16QF1/5UH7f7HO/CvatYNV7cvmo0+SJWRn671KRv0zeuOhYOf2p2aUHGvO3yex375eLTxosvdq3kYTOfWTomEvkvrdnyTaf91aRvlepP5X5PCr7WZeGgg0y9fFr5cq7P5R/Mov31QVog7+KqJKPn/639dbFh1gNHQ4rrMUh1gnnXGZdc81l1rknDrBaRTgsR8NDrIvf/qeE71uOj5++2Hrron7Kh1ftNe9vnTDhUp/2XFajw66y3n16Qqk+vmfXNOvRE9tZYY4Iq/Vhp1gTr73Zuvnai6yxh7ayIhxRVtdxL1h/phafXAzPjres02NdVsKYi6xx3aKt+M7DrFMvvELd8yrr8isetL5c7y4+syy4rZWvn2EluCKszmPutT5ZsOMA7zDP+vupkep9KTsZW9l3c7Swzn7nf3GAivYtc+o1VkdXrHXyKxt9YgglkPmVdUUblxV72hvW1pInJc2xnj2jqxXlcFmNe42yzr70GuvaK86zTjq0jdoXYXUc+6T1xx4uqljfq9Kfij6zP591acib/5A1JEL139XOuuqbuhOvCCDxw6zu5z1tTfrsM+uzktvkydaX01ZaKcXn74Nnl/Xdjf2taFdTa8i171uL9OCw4bGS/v7Qun44ga9DrJu+T/QZBGUQ35NofX/TIaq9xtagq96x/tpdor1FH1jXDW1mxcfHWa6SxPdstD66sLMVFt3HuvD1P639u7LL+uOZ061OYdHWwDt/2+85igYaA7exNezGydbKktG5ikC1P+vZCVafeIdqJ9Zqc8hI64yLrrPu/u8b1ldzN/4r4Mez5GSmWmtfHmvFutpaV3y+20pPT7cyMvP2I0pF+1Yl4nu2WV9c0cOKCOtonfL4r9ZmX6mlPo95r15k9Y2Nsg6/f06xQDtw36tO/AM8s5+fdalIn2e9NHG0dfQZD1k/7iizt7UOASS+etklpbjP5ogdY728fv8Xk/fXo9aIaJfV9qy3rNVlKEb32nesCe3UBzziMWvhPo6XTvy8hY9ZI5D2496wVpUR7Hevecsa39al+rQ/8XP+uNcaGBFlDbpnplWqoPdstSZd1FFZEWdb7/qMNHugRQy635qTXbzTT6Sv/dV659HrrXNPOsLq266h0kbq3SlB0Hn0jda7C5OLz7Lhsba8fqoiT0frmqmla5qK9q0qRMtB40WFWT2u/MraWerFbmvn339Yf+/0/YDL73sgiF/eM/v7WdcnBNDHD5Nu5zwpH33yiXxScps0ST79/HE5u71v9CpfVvz6syws6CUTrhwv3cqIWoV2GS9XnNNbChb+ID8vL8/xUu39/KMszO8pE66aIN3LWPAW2nW8XKnaiyj+uwj5smzGdFnpPEImnDdEGhTv3Q/OBDnx9BMkIfUPmbPg3/P/YV26S5+o4j/8RFyXkTLx7uflo+9myZLNu2Tb0l/krTuOldB5L8hlZ10lb62sqOO5PwLRt9KRLyun/SpLvP3kzPOPk5alBidDpWX/4dK/5cENS5b9zFX/rOsDAkh8h8R1HiqnT5ggE0puZ58tZ47uLY32Gxhu2bRhrbhj+kq//jHF+0pDlPTr21ei89bIug3lDXy3bNyo2ovtJ/0PKa+9GOnfT7W335O7ZevmDZKXv1I+uO4kGT16dKnbGQ9+K1vcabIrca/sv+zEJU0bxklI8V+BQbg06zVKLnnsU/n65XOlw/Yv5b8v/SSVD3VWR99sqM9w4zpxR/eQHj0ji/fVBpT3zFX9rOsHajSqX1hYKF6XU5xlTGPZcKoTnOIRj8d3Fvvf8BZ6xes4cHsO3Z5TwsL+p4W8XtW2I1aat2sv7duXvnU49Hi5+Mrr5MwhzdXVBwvh0vWsa+X8gWGydfZcWVIdq4xDQopI4sfXNvQ7530GciRVoT8VQe39rA8eapD4LmnTtr2EZa2VtWvKN+HXrFsnWWHtpW1CeV9YcUlCu44SlrlKVq4s75sA+bJq1WrJCOsk7dva7bmkVZt2EhbeUU6682V54403ytxef/VxuXBAeRZFJVGQI1kH+uKCK0FatXKKNzVd0n1kX6C0uDM2VmJdhZKWlqrEaxmwciU7o+RR+zNcL+vWV84NKa/v/venIqjBz7oWoQaJHyl9jz5WunsXymcf/vqvdej7sGe6fPTZAvF0HSXHHvI/c9LpdCnR7RH3PisgUvodO1J6yd/y2Xs/ys4y2ivc9aO8/+kikZ6jZeS+9iKl/1FHSZf8GfLxh39KObPHAUaOTLtnsLToPUHeXl3OfH/OClmthKOrdQtpsU/9OCU6JlbCvGmSnFy1r/BEdu0pveLdsmTWH7K+jG5kLVkpa9zFf+yDem/HjFSf4V/y+aRZlXBDyu+7//2pCGrqs65lKA7yVQl+z+O711nvTihahz7u2T+sxBIBVM/uudYL47tZEa4O1jnvrbN848J7PjnfauaIt058YaW1L4Dv2Wh9fFFnK8zVzhr7+HRrW4mZAs/OmdZTp3a0wsI6Wxd+VCJi7F5lvX5GG8sV3dea+Pbif0/jJP9tTXn+GWvyP/vPDxVFkV1Wp+u+syo/i+uxdn17ndUnwmU1O+Jm67Pl6cX7feDeYv1091FWU1e0NfShefu9X/fql6wxDV1WwyPvt6aXfHkKFe/bbuvrq7ur95ZgjXli1r8+h5z1X1u3Dm9MJPhfUfR9n2FUb+vCt/793tzb/rDe/u/z1vcl1jOU33f/+1OhZ/bzsy4L2TvXWKt3VP7Tr0nULPEVPDt+sh4Y1dpyOaKttkPOtq6//wnrmWeesB64YYI1vEO05XC1sUY/8LP1rynSPd9b1/cOsySuuzVqwiXWre8uspi98STOsB6zF2YcfqZ13X2PF7V3/XhrSEKU5QhrZ5346PR/DSbg2fytddsRzVRf4q2ux15o3frI09YLLz5j/efWC6xjusSpaztZF3ywYT+BUTXigxRr3vNnWd1jHZYjvqt1zHk3Wg88+bz10kvPW/+971pr3OAEK8LhslqNftSamVR8yT4kWzPuP8Jq5HBYsR2HWmPPPs+67D/fWpuLO1iZvnm2fmvdMriR5VCfQ4dhZ1nX3PWQ9eijD1i3XjLG6tc8zIrv08/qFlYK8RU8236y7j2mhX5vXXhvDz9lPff8U9ZDN59rHcFnGD/QuuvXkiQ6QN/97E9Fn9mfz7o0uFe9bp3RxmW52pxuvbayjDnpWoiAEN+z8QPr/K5drHPeWb+fVq4wMlZbU5++2hozoI0VqwaC8kAsR3Rr65AxV1tPf7e6lAUsRUj+8w3rymO7WY2j4qxe136t9EQxstdbP798qzV+aEerYVhRe2ENO1pDx99mvfzzei0gykTKUuuLxy6zjuvbworSK8zUtU27W0dNuN16ddrGfwu21O+tG3u3sUb+96//WR6VhtvaMfsd6+5zRlidG7m0JsMYE0eY1ajbSOvix760VpRiDGi4t1kzXr7eOuWwTlbT6Air2cj/Wn/aHalk3zy75lhv33WONaJzvCJE0bNHJRxujbv1NWvWptnWo0e2sfre/EPpc9+py60vH7vUOq53cyWoit9boy7WERPust6du6t0ApXXdwW/+lOZZ67sZ10KWDtyJEI79gjrUT++KVpTqGUZeAolJ3mn7MkUiW3WShpHVT2eWpiTLLuU89moZWOpXHOFkrV3pyTlhqlrm0vcwZqGzkqUtRu2SlKWVyKbtJdu3VpItUzBl4sCydytnr0gVlq0aaS84spAXbtnlyTnhUuj5uq9BSSBUFX6UxFU5bPOlS3zfpOlVh8ZObR9NfStemBSbxkYBCGUVWlgYBBsMMQ3MAhCGOIbGAQhDPENDIIQhvgGBkEIQ3wDgyCEIb6BQRDCEN/AIAhhiG9gEIQwxDcwCEIY4hsYBCEM8Q0MghCG+AYGQQhDfAODIIQhvoFBEMIQ38AgCGGIb2AQhDDENzAIQhjiGxgEIQzxDQyCEIb4BgZBCEN8A4MghCG+gUEQwhDfwCAIYYhvYBCEMMQ3MAhCGOIbGAQhDPENDIIQhvgGBkEIQ3wDgyCEIb6BQRDCEN/AIAhhiG9gEIQwxDcwCEIY4hsYBCEM8Q0MghCG+AYGQYgQS6H49yqjR5/Din8zMDCozQgs8fsNKf7NwMCgNiOgxG929hPFvxkYGNRmBJT4zuPvEsudXfyXgYFBbUVAie+Kay6FmXuK/zIwMKitMFF9A4MghCG+gUEQwhDfwCAIYYhvYBCEMMQ3MAhCmKh+NcMZEiKNIiKkWVSUOB1ly9m8wkLZmJoqnsB9HAYGZcIQv5rRMDxcRiQkyBFt2kiY01m899/Yk5Mjr//9t+zNyyveY2BQfahXpr5DadTY2Fhp1KiRhChNW9OgB23iYmVI69bSqWFD3b9ERXDfLVkRPVQJhM7qeENlGQQT4uLipGnTpvozc5YjFA0Cj3ql8aOUOd2vXz/p1KmTzJ49W7Zs2SIBfLz9EK80eUQpg1XfrVjocPwIpe1P7dJFUvPz5bv162X+zp36mI0oV6gMb9NajmnXVp6YO0/WpqUVH6n/OO6446Rz586yYcMGWbBggaSkpBQfMahu1Cvix8TEyJFHHimnnXaarFmzRiZNmiTbt28vPho4OBSxj1KE7tKwkfLbi0juVW8x0+uVFG+huPUekWiXSzooTZ6gNNru7GxZkZQs+YWe4qNFcIY4pEV0lHRUlsGn/yyR1XuCx1V65JFH5JhjjpF58+bJG2+8IWvXri0+YlDdqHc+PqbjCSecIEOHDpXly5fLN998o8kfSM3vUib7Vf37y8j27SVCkRtkKkIvUWb7MneBeLAGlNleEXeDfhUWFkpmerokK9KvUIPf7bZFR8XRuHFjadCggYSre4OCggJJTk6WdNUu7fsiLCxMu0Px8fHiUv3neFZWlj4/Nze3+KwicG6TJk20OR4aGioej0dylIuyY8eOf7ULaK9NmzYSGRmpzXfOSU1NlaSkJH0t4L7094YbbpDDDjtMli1bJl988YVs2rRJdu/eLRkZGfq8kv30KsFq95M+GPiPehncY7CgSTAlV69erTX/zhImdlVQGvG3KrLOUYMxS/mtuBr0AZ/+QOD15ys3AG23XrkC9BeiVBTco127dnLsscdK3759td8MspWF8ffff8v06dNl69at+0iHQOrVq5ccddRR0rVrV/03x7Zt26bdo8WLF+8zuXGdevfuLSNHjpQOHTpooYJQSkxMlO+++04LVohoI1bd+xD1Xk466SRp0aKFJj5tr1ixQn755Rf9bDzrEUccoc8ZMGCAFlaZmZm6Te77ySefaAsgOjpaevbsqS24LspVop8IEbufuAYINQP/4HxQofj3KuPhx5+uFd/OQ2vt2rVLa6iBAwdKQ2Vuo/V9B2lVgKl/mBrYHdWgRQiAZDUotyot20KRHiJCPEiC5mVj0EJy9vnuR4sxyNGo+LppysevjDaDYNdee60mEm1ANAiH1j300EP1O9i8ebPWogiJ/oqYF110kQwfPlxbJJzP/Xv06KEFAv2mH7TBuZdccokMGTJkX3+5B+cOHjxYkxAtDWibPtx9993Stm1b/Yw8L8TmM6A/WAlo/o4dO2qB0rJlS63VeTecz8+lS5fqduk79x42bJjuJ/emn927d5du3bppYbFx40b9/gwqj3pJfJCnzG40nVuZ3mgNBhkDhYFdVZRG/FS0EcRQ+9FqaCQIRB8IMtpmNPvQ7gxuCAkZGNjNmjWTVatWaa1XGeJDDKwbiPPVV1/Jt99+K7NmzdLPCdn69Omj78+zYzJPmDBBvw/M608//VR++OEHrZFty4G+c4xzTz31VK2d6e+bb74pv/32mz4XS6BVq1ZaOPz++++6/5D9vnvv1RbHn3/+Ke+//77MmDFDPz/9gLBcx/U8O8+KFdG8eXNtCXz22Wfy448/aqsHko8ZM0ZbJdybfn7//feycuVKfU8sAO5JPwMlzIMN9Wo6ryQwBadPn6bNzD7KDD5j3DhNsIMFTGN8We7JIGfGob1yDxjsCCL84KoCjTdnzhztznz99dda4Pzzzz/y8ccfa0JBFEgKIfHVsX64BkHAeQRB//jjD/n88881uTDfESKcT18RBAgOSAZZudeHH364z3QHWBXnnnuufk4sltdee023iatBu19++aXej5ZHCKCtbZcGqwBrBIIjFPjMaI9ALe8HS40+cT6CBFeA56Q/Bv6j3mp8GwxiBi4DeIwyRRlQf/31V/FR/1Cexo9WpCYQhauBaYrGhfCQjnsjCDB1W7duLXv37tXanXgAhPRH40NgCIaPjFmNUCHAmZCQoE1sBAzmONoSiwO/mSk07ge50fRs9GXu3Lm6D1hLkI5YBWY15j19R2BAyj179sjMmTO1WQ4QcHfeeZe6JkITdNGiRfqZ6Acb1/IOuCd9xQpAq2OpIBAhN9dgFdlASGAlYHnYApJ7837oJ/c22t5/1HviAwY2vqQd/Prpp5+Kj/iHihCf6DSDm4ELCSAegxuNBkHRgJCEvkEIf4lPWwgXTPiJEyfKmWedJaeecooObEJ+ND73XrZsuRIOu7S5jRBCO+PDjx49Ws+A0A7CkT4jIOgDAgAhxTF8bnu2BIHGuWycAyEvu+wy/SwInhNPPFHGjh27bxsxYsQ+wQFpEUTlEZ/z6CdCkhgG/eR5uDfviXsi0Plp4B/qPfGJBqP5Lr30Uk06zFDIVRVUhPgMSqLmmMsIAWYV8E3xvQlwoU0xcwloMcj9Jf4ZZ5whV155pQ64YULvVJbG1q3btB/Ns6MtaRfTmOP40AgCBA/k4/4Iw0MOOUQH7CDvunXrNPnpN5qVPtl95dzDDz9cBwcJDC5ZskQL1QsuuEBfi6XD/Xhee2NfkiL1ls2btf/P37RVnsbHgqGvvCv6yf25N0KAfvKOiZcY8vuHejmdZ4OBDyEuv/xyPSife+45PSirCshecjpvo9JAcxVhmynty30xQ5mughSQDn8WjYVPjalMgI1Bi1+L5oQA+MKQDrO7IkCbE0RDwBDQe+WVV7Q25SPFPL/jjju0tp06dary+T9RRE7U/SEwhsaEuGhzAngseuJdQfTnn39e95PnoC36B1E5F7KeeeaZ2l2A1FyHqU9QkeOsm3jyySd1+zZ49wggfiJQuC+wF/AQl0Agc0/Ac9Gm3U+Ij2A8+uijdcARAUpg9J133pFff/1VX2NQOdTb4B4DbdCgQXLFFVdoEj7zzDMBIX1FQbCKRSmY8/i59IGAGJq4qTKzdyjSQHSO+wvcCKwFCALhaBuiog0x0TGTIboN+gF5Tj75ZE1cCIbmx/WBuFgEEAwhxLXHH3+8jq7TFuBcIu8EEgHktE34+fPn631YAswOQHIbxDO4J9YJwT3uC7iO/uI60JYN3AUEgi2MeB4EJ7MWBPew3Ph8eX4D/1Avic8gYk6aSDOkQDPY2uRgwTak6AskY9oNsx+T+jDlevAVXTQ+mtRfYIJDVgiEL03gDsISy2BVHL6/Lwj04X/feOONMm7cOE1oSAbR6Rt9hdxYJAgJyEo7V199tb6Wc4kbEKjjntybiDwWwcsvv6yFG/EMzseVoS/MKEycOFGuuuoqPc9PfMEWCtzLtnawWhAQWBkIHxYNXXfddXL++efr+3FvpgzpM9YMLpO9ws+g8qh3pj4aEB/0rLPO0r4ypMenDSQqYurjszJYMUsZ3JjBaDtmGPBfIRnCiAGMYPDH1AcXXnihJjHBOgQJpjTakN9tE5vpL0z97OwsbaafcsopmoD0C+2JVYD/jD+NW8CcOs+AMOE9ollpL1URNUL1m2ehj0zVMbUHuBd+/jnnnKPPRzDQNtocjc3vH330kW6f3wHWAbEXZg4AWv3ZZ5+VadOmaevAniLkc0So8CxYGMQeaIf3ZbdlUDnUq+AeAwwtd/HFF2s/8vXXX68W854V+H2URmyJmavkpltp7WTlh+5Q92QBD/0ggIVGxhdl+gqC0yf8fYJSLNyBpJi9VZnOI0ZAVB0NzU8IyL3xmWkfktLuypUrdNvM3UMciI/mtP14YgOY0ZMnT9Z+NX3ADUFQoWU5zz6XKcQXX3xRz/vbYD+BPp4LQUY/eDb8c57/8ccf18uHfZ+NGAF9pC8IQgQRU628HwQgwgarAcJzb4QJAT8ECMKMaw38Q73S+BCIKSfIzwKW6lzk0UJpssaRERLqKPJXXervSEW+gcqkR+NBNgayDVwOBAKD19e8h6yYuJjS+OmV1fg2IBraEaA5fe9dFiA+fcVkP5DmRNMyvUbkHe1bHuy+cA1uw4FMct4NlhrvBrL7DkmOIbxoiz4a8z4wqHemPpoB0/VgDxA0Nn4ykXymmyByRQGR+OIJ7gHEx+Q2MKhO1OvpvIOJqKhoHc1OSGijNSMaqiLg9WOyMpeNGYylcCCNamBQVRjiBxAEyPBJMaExdysKTFxIj89rglUGBwOG+AYGQYh6u4DHwMCgbBjiGxgEIQzxDQyCEIb4BgZBCEN8A4MghCG+gUEQwhDfwCAIYYhvYBCEMMQ3MAhCGOIbGAQhDPENDIIQhvgGBkEIQ3wDgyCEIb6BQRDCfC23uhESImFRcRIZ30hCitNKl4ZCd75k7t5W/JeBQfWiXhGf/Gx2UkjyztUGhEbFSJtDRkj7wceLM/R/ueNLIid1jyz98jXJ2rujeI+BQfWhXpn6ZMA59thjdREN8uojCGoasc3aSKs+QyW+TWdxuFySlbRzvw3ChzgdEteqg7jCo4qvMjCoXtQr4pOhlRTS5K8nJztVWGoSrogoadyxtzTu1EdyUhJlw8xvZMXUd/bbVv/0iexeubBISNUCQWUQHKh3Pj5anxp1VG0hFfSnn36qC1cE8DElxOGQFr0HS7zS0o7i9No2CrxKAHlCpKAwREIhfoce0rBdd8lO3iW7Vy2S/Kz9c+o5nKES17KtOqebrPn5E0lfOUsKs6tW1BMhUtHnrcy55BEkP6BB3Ue9DO6R7JJqOtR9I4MtBRgCWU3H4XRJr7EXS5sBR4orNKJ4bxFy8r2yM6NQUvMsJSCc4goLVyZ+mHg9bvHk56prneIM8xUWIXpfiCtU0tevkKxZ74h7Z+X7SkEN6s1RZor04jw39fuoTlsyTz/vh6qzlKbid8hMok+KV5YsNcbxww47TJflIvc9NQGoBPTbb7/p4hkGdRP1NqpPemvy21MuCs0P+anCEgjgq/cfd420G3yc8ssji/cWITuvULakeGR39r81I9o1Mj5KYls2LN5TBD4Cd1aupCxXxP/pGUX8FcVHDgyq1UBinpOfWDzcB4IS4KQyDRVvIDQVchAQo0aPltGjRum6dlzP+QgKhCPnUsOec6lwg+VEDX3KgQG0Pi4VxUqmTJkiCxcu1PsN6hbqbX18Bi5VXEhX3bt3b72hqfypUlMS2tTvebg00AG70OK9RfAUimQobZ/ltqRDg3A5plO8DGgdI31bREuvFlHSN6GBDO3WTPq1jNFb92ZREh7mkl0ZeZKzY5e4V8+QwpyKz0jYRSkpdU2KburOzZw5U5e+osAHcQ6EAH9TZAQSjx8/XlcdQsNT/ZYiHmh2KhAhBBAAlL5C01OOjGOUv0LLcy5VcjgX4cr9DOoe6i3xgU1+6tYNGHCoLkwJAajSWhWUS3yvJZl5Xk38fq2i5dxDm8vwzvHSv02M9NTkj5Ej2jeUvk0i9NYpLlQJCo8s2pou2crczl/5q3jzK15Qg4q2kBmrgSKWlLumPh5mPiW7KPKBFYDGp1QWJcZwgyhrTZkxLALORUAyDYpg5Fxq2R133HGa/Bx/6aWXdG08rCbOoWgI7xEhY1D3UO9X7qEF0WzUqocEVHOtTjhCijbi8zvS3DJ9bar8vDJFb7+tTpUZG9Pl162ZMntnliTneqRxJPX0LPEWKtfAKhSvu3KFIHFnqH+3Zs1amTNnjva7qcRDYcyff/5ZVwtGq/M3vjwCAq2O1qZKLdfiEsybN0/efvttXYUW1whg1nMutevw8SleyTHu8+qrr+qqugZ1E/Va49sgKEXteIJZVIVF21UF5Wl8SJyVb0lGvldthbIhOU9W786RtWpbl5Qnm3Ms2SYuScktlC7x4RIV5pDvN6TL+p3pkpe4Q3KXfK8EQMUj55TJxhf/+eeflID7S/nq/6tGi4bftm2brm7LNCcWECY+Ne4JAlLDHvLjDlDOmiq7CAiEJZV9CRKyHoL2KffNubxHzsVyQshUpb6/Qc2h3hMf/xST9fjjj9cBKTR/VctUlUd8NKomvjL3CyyRvEKlYdX+HsqXH678/c7K1D+kXUPp2ShceitTn3N+3JQhW3alSf7OLZK3/OeihioAtDH+OgU7f/31130BPBv0BV+dfba2R7vj/rAPrQ+RIb5do5/qvXYJb2ICaHh+p6IvQoBzERiUzubcQAVMDQ4u6i3xbRP16KOP1j4wdeonT56sNVVVUT7xRRHfK2mK+Lbejg1zytAOcXJir8bSrnGUHNomXtrFhklcuFN253hkyrpUSd2TKu7tayVvzaziqyqGM844Qz8nNeUJykFSG7wDu3qwTXziHRCb8xEUXIM1YBObeADH7dr1vC+7Xj21+PHrsRYI7jFDMGPGjP2EjUHdQL0lPmQYNWqU3jB1mXrCzA8EyiM+2j3L7ZV0RXyl7DUIpIQqxz9NmfcbMz2yJ8QlSfj3EcrkV+7AlDVpkpuUIgVbFXE3VM4NGT58uC7UCcmxaCAxBAdo8KOU4MPFQXszDYdmZ2Uj50H61atXa62NP88x3hvBO4iOec+sAWW7ly9frs9FCCA8WCSFz08buBMGdQv1LrgHATB90fQsaGFQEu2G/AcD3N+lSO5UW5TLISOUpr9kSAuJiXDKlKV75VtF8snrM2T2rhwJc4YoV4CgniVWgUf5BZWv6f/HH39o1wXSDhs2TPvvkBdhMHr0cdoVGDRokA7iEYlHEF566aU6uk+wE4sAIuMC2P46ggO//sQTT9TnYlXwt32uHfwDzBwY1D3UK+JDOoJXI0eO1F/WQcMHUtNXCErlO9VbVZwXRWfp1ixSzj+shYzo3EDilYYn4h+tCN8q2iUxoQ7JVNaBVxHN6/GP+Cy2Wbx4sSYgZL7kkks0WS+//HI57rjR0kSRHe1N0M52A/DRmQZkjp7gIBvvDA3OuUzb5efn640YAOdedtll+rzzzz9fTjvtNB07oJY/5r9B3UO9MvUJ5GGCEszDT4X01RF8Ks/UB25PUXAv021JQsNwGdwuVhpFhUrr+HDp3SpWRnZpIgObR0q0kg7Lk/Nk9rZMyd61WwrXz5Pc3RuKW6kYiMBjimOq43t37dpVm+gs3sH3ZtHNTz/9JNu3b9faGh8dzY4JT5Sec7EWeHcQ/ssvv9QuA1OCaHaEKed2795dn9upU9G5ixYt1NN5CAqDuod6tWSXwNSQIUP0ALWj3NUBEmp0Hz1BWvcf8a8luyCnwCE78yMlzRshfVtEyWm9G0v7RpHSQJE/LjZKmc3xkphdIFszC+SvxBz5Zk2yJP2zTAp+e1FSVs8rbqVywGzHl2dpLdF2BAK+Oktq0fa+wA1gJSMBPaY6mbrD52ehDhrc/iIOwoTI/6GHHqoDeZybn+9WbkGKfrdG29dd1CviM1DRRpisLM+tNhBHSOgiMc1a62/XlYQ3vIEUtDlMPC16aa3ePCZUmkSHStO4MEWgOIlr2VgSc9yyO9sjqXmFkpicLXv+WijZX94nuSk7i1upPNDO+OGsvyeQB6HLA+4BK/SwADi/PHAubWPi4wIY1G3U2y/p1CQc0Y0ksv9Yieh3ooSQXCOkKJQSohz86IaxEpfQWAoLPFLoVlt+gbjT0yX9n7mS9tUD+jwDg+qGIX41IMQVLq7mXSQ0oY84G7QWV+O24ohvoYVAWFSEhMVEiEf52+6kHeJO3CQFezaJR2356+cUt2BgUL0wxK9OKE3viGksYUoIOJt2Emd8cwkJixLLk6/eU5IU7t0gBbvXSWGq+V67wcGFIf7BgsMlzqgG4oiIEcudq796a3nMijeDmoEhvoFBEKLerdwzMDA4MAzxDQyCEIb4BgZBCEN8A4MghCG+gUEQwhDfwCAIYYhvYBCEMMQ3MAhCGOIbGAQhDPENDIIQhvgGBkEIQ/yDgBDy8DlD1OYoc3OQjM9PkCSDJCQGBhWF+ZJONQPCN24ULc2bxWqCl4XcvAJZs7by786ujEPVHPIMmuw4BhWBIX41o0mjKBk7po+cenJvCQ116hJbviBdFtp+y9YUueK6KcV7Kw6y3o4dO1YXwKCwJclFA/iRGtRTGPuwGoGJ36FDEzlyeCdp3bqBuN2FkpScs9+WkZkvsbER0qpVg+KrKgdSZZNklASa1BMwee4NKgKj8f1EVFSo1uDlISY6XM44pZ9cctEgWblqt7zw6ixZuXr/JKAtWsTJ1ZcNk45KQJx8xpvFeysO0mkfddRRsnXrVpk7d55kZFStLqBBcMAQ3w+4XA457ZS+0rtni+I9pSM+PlJ6dWsh7do1kk2bk2X+X5uLj/wP0ZGh0rdPa8lX1oA/xLcz5ZISm0y5vh8nabbZyLoLOIcYwIGy7xrUf9R54hPNxk/2p1wzpCBddGURHu6SJx8dK6OO6SpZ2W5lwvtPJPofEx0mW7al+kV8Cl2g8SmUQT18SmEBcuD3799fF7ckAAion7do0SJdMIO8+wH86A3qGOo08akCSwFI8uhTDKKiJEZQxMTEyOGHHy6zZ8+uUCQcf93lcuqfEP+xh8ZIl06N5ennf5dZsytX/cYGb75Zsxi56dojpVvX5n4Rn/JWV199tSb8/fffr4N7vJezzjpLb9S8s98Lgg4BSQWcjz76SAsLg+BEnSY+VWOo40all6+++kqmTZt2QBJDeirIXHnllbqE1K233lqh0tkNGkTKoIHtpEmjaHG6QuT0sX2lqSLtr9PWyLp1ScVnVRy89pS0XNmVmCHnn3NoQIlPsdArrrhCWrZsqctYo+GxLA455BD9rig28s4778jMmTON1g9S1HlTn5ruFHNEs3388cfy+++/l2n2Q3oq7dx88826xt7zzz8vP/zwQ4UGP379ay+cJcOHdFQkKt6pi2KXB9q12+Zc+3xLT+utXb9HPpy0QAYf3l66doH4bxUfrzhKI/5FF10kZ555pi5p/frrr+tS1jwjNfKwAqiFR4083pVdLssguFDnp/MY1G+99ZZs3bZNzj3vPDn++ON1qaeSsDU9pKdu3DPPPCPff/99hTWex+OVufM3ye69GTRWvKkD5WxOR45EuBL15nJkFu+31KUFal+KdE5Ik7NOjlA/C9QHEbiAG1YPhIbolAsn8o/PT9Xgxx9/XK699lqZPn26IX0Qo84TH+Li33+sfNZdO3fKhAkTZMSIEZrovqBmPCWkqRX/xhtv6AqylQXExzSvqLAIcyZJfPgCiQtfpH5PUXsscYbkSmzYKmkc9bMkNP1Tjj9ihxw1aJ3et3+P/QdlsymUiRXEAh8E46RJk+Saa67RVXTN8l6DejMCKNfMAEcInKc0P7XiCXIxyAkAouWo9f5///d/8ssvvxRfVTkQed+yNVVycys+ExCiyB4itmYtlFBHkkSFrlPCwyFuT3txFyoiilviY9Ll8AH/rrzrD6hk+8QTT2g/nveCoMLfRwi8//77ctttt+mS2gbBi3ol+jdv3iwffPCB9m3x+0eNGiWNGzfWmp4I/muvvabrxfuLgoJC2bY9TbKy/VsP75ACRfxk9TNTPN4GkpI/VPZkHSYbEodIYlov+XNxbvGZVQe+/ptvvilXXXWVjB8/Xh599FFZvny5nvc/9thjZdiwYfp3g+BEvSI+mg3yv/feezqSTZCLqH2HDh3k2Wef1cGsqgA/f+OmJElPL7+kdJlQtnyIeuV4Ic6QbIl2bRaHM0zCIjuI29uw+KSqAReH5yV6T0wDf3/Xrl0ydepUHczEDSDAGR8fb0z+IEa9/ORZvopJu3DhQm3mv/32O5r0FfXNy8O69XslNS2n+K/KwWuFS15hK8n3JCjSZUpM2CJpGv2HNIjcqD6IwAT3WMXHl3buu+8+uf3223VgDxDII+hpr/LzZ8GTQf1BvSQ+BN++fbs899xzctlll8ncuXMCFsHGx09MzPBztV6I0uwNJLOgpzL1W4ojJFfCHNskFgEQs0QSWoUWn+c/WLZLnMPtdmutT0wDC4iA5j333KNX8hEDWLVqlVm6G8Sot7Ye5MfMZWlqILWbW/n5CxZtlZ27Mor3VAbE7V2SX9hMUnOHSmre0er3tso8z5OObXbL8/+Jl87tw4pOrQJmzZqlXZt//vlHr1Ds0aOH9O3bV89sENjE5McaMtN5wQvzJR0/0K5tQ7ntxmNk0GHtiveUjrjI7dI8fpkimEOSM3tJWm4btddSmp5/+dUSpyNb4iPXS5O41bJpa6FcdkumLPi74kE+FuRcfPHFkpycrBfwENgEBO6Yu8efJ6KPENy7d69O2IFVYEz94IYhvh8gq07njk10Zh1fdOsUJkcPi5HNO9zyx/wcOWaoyPlnFEjiHq988LlLNm13yQnHxMjgAeHy26wc+fqnLImJDpHRRzrkivNyZceuQrnhvmz5eUZWcYvl47DDDtOuDKsXly5dqqfwSi4/JtjHt/P4mA3ZDWyYsK4fKCy0ZP3GJPlLmfz2lpezW44cnCajRuyR00anyNXnZ8tRg3MUsUm+USCr1qSIt2C39O6yR5n1O+WUUSly5Xk5ctZJWXLOKblS6LFktxIQy1ZWfKqQtQpdunTRJjtr8lNSWCS0PyA8vrwhvYEvDPH9BOQv8Hj3bes35cusubmyfUeBtGttyYjBDuneJUTWbiyUT7/JVeZ7tsxdmCuvf5Ap6zYWSMvmltL+Thl7nDLJIy21zytvf5IviXsrvjgoNzdX/v77b51yiyW4WVkVsxQMDIypHyAwN4/ZPnhAhIw6MlKaNHJIUopXkT1Ppv2Rq0ipXrM6JyoyRNq0dMnh6rzjj4qQnFxLVqxxy8IlbvlnhVuysisecON79pjxBDDN9+sNKgND/AAjPDxEYqMdEuoSZQmIIrZXk9sXCAkEQHycQ5npZNi1lPa2xF1giGtwcGCIb2AQhDA+voFBEMIQ38AgCGGIb2AQhDDENzAIQtQb4vMVU7LtspXMvmNgYLA/6g3xmc/mCynR0dGG+AYGB0C90vh8MYXNEN/AoHwYH9/AIAhhiG9gEIQwxDcwCEIY4hsYBCEM8Q0MghCG+EEIZkCY9iTFNll3DzbI/Ue9g+rI68+zxcXFSbNmzczsTjkwxA9CUGWYGoPk66O+/sEkCOnOue+ll16qU3+z/iKQaNq0mVx88SW6oArl0gxKhyF+DQK+RYaHSONGTmnYwCnhYf8mIMfY2rQMlZjowHxcJPAYPHiwLqd9sGvpIWhGjhwpJ510kk71TULQQIHnaN26lYwde7KuokRFZIPSYYhfg8DS7d4lTG6+IlaunRgjxwz/X+08FOFh/SP0MbY7r4uR6y+NlbGjo3QSj6oALYuJz/Lmg73giao+pAubN2+ern1QUFDxVGMVQVpamvzxxx86tfiKFSuK9xqURL1JxMFARpPxOKSRrgvJJSMjQuT4o6PklSfiJDPLki9+yJe7Hk3V2XuGHR6piB4tQw4N1am4Ucr5+SLbdnjl5fey5csfstXf/n105NjH1KZw5ocffijffPNNmcU1EAqVGSIHOj80NFQSEhK0wNmxY4dkZ2cXHykNCKTKPSOFUlu1aqVjGJQFJyWZwb9hNH4Ng1TdcbFFW3RUkebl5wVnRsvIEaE6LddP09zy7U9u5QqIdGjnkCbK9HdW0ycHMREIuAGY42PGjNFFNrt161ZmMI7c/ZQmt8/HlG/atKkOsB155JG6YKlt0mNtsJ+6fpAUcE/Mfu7ZsWNH6dSpk27vxBNP0JmEDznkEB2wqwhokzgCwcOSgUvug4tDm/TzuOOO0/dlf7DBaPwaBBr/pJHR8v4LRRp/8tR8uf6eFGnWxCE/fNRMunQKkTkLCuWWB9Kl0CtKGERK4l6P/KgEweZtbr3PH5Sl8dGS/fv318SF6NTaAxTjQHuSyRczmr9t8MWoU045VZFotP4dcJw8/2j0o48+Wtfqf/nll7Vpj0C45ZZbNPGpA0AFX66jojElv1auXKnJC/npD9izZ4/Mnj1bpxDHVSgP7dq1kzvvvFNbHu+++678+eef+nfue/LJJ8uQIUP0bAb7SEuemJio26WKMsVGggVG49dCIIrtxJvKDZfmTR2yc3eBPP9Wlrz8bpZs2OI/6csCWq93795yzjnnaOKjoak8vHHjRn0czX3eeefpn3YkHmKiOc8++2wtKJKSknRdPgTvaKVNKd5JMA8y2l+XRkCjkakHYBMbS6JFixbSuXNnOVbdm5JfqamputQ3KcMpGHLaaafJwIGH7bt3WeA+tEPQktkLgADDmqB6MlWFqC2IgKG46oABA/QMAMVJbAskGGCIXwvhdluycm2h9ut7dnHIbdfEyNUXxkqblk6JinRozzfQwC+G8P369dOa+tNPP9X19d966y355JNPZPXq1ZpQp556qiYpZO3Zs6cWFI0bN9Ia+e2339bXsH0+ZYq2wMpyD0oDUflc5ZNjWXBfCn1OnjxZEXVdsWDo5Bc5cUV4NoQGQUXatvtKvxFIPJshvkGNIjffku9+y5O/l3o1GY4cEiq3XBUtd1wbJxedFS0d24VqoRAoMPCpqY8vTTAMMnz33Xe6oi6ExxTmb2ruoa3xwyEJ50NINDxEwqzGQli2bJl88MEHsmjRIl21t6LATUMTU/QTF4C2IOqKFcu1AIHAJf32A4Fn41oWDQHcEEx83A6sE8qpU0148eLFleprXYchfi0EM1wz5+bKf1/Okvc+zdXVeEJdlowZFSq3Xh0jN10RKw3iAvfRYeZDDAJoaPsFCxbsV5UHYYB5jK8O4Zs0aaK1JxqdWAqFOhESvsBfnjNnzn7xgAOBtvDhmZKzkZ6erkuDQVb6WVmtjDCh4tAGJUQQosOHD9cm//jx42X06NG6/e+//15XDzbEN6hR4OOnphfK979ly6PPZ8j/vZotU6bmyTolABo1FJl4doSyAiIkIkCrbdGI+MaQGcIS8PIFpGPaDUJyDgICTQqRIBbkKS1GTFtcW1HYJPUlINezcYz7HcjHLw0IsR8UuRFotA3hr7/+er1dcMEFOsqP70/7wQJD/IMMxlZFpuKYy2/V3CVpGYXy8ZdZ8vAzmfLsG1mSr/x/MPa4KImJCszHB6nQtvy0hUBJQDg0Luew6Ma+BrIQRCuNkETSawOZ6C/Wx+uvv67N+s8//1x+/vlnLWROOeUUufLKK3Xwr7Tnrq8wxD9IgMhtW7tk9JGRcsrxUbqkduOGTmnZvIgwXq+lTGqIJ9Kza5icdUqUXHVRUUntuFinZOdasma9R52nT9fLd0MC9OmhBdHOmOWY8UTcfQkL4dkPkSERpjfTf5jlnEcEnai47X8jBJiOY+rMnhKsDtj++4HAOWj0jIwM+emnn+TZZ5+Vp59+WschWN2Hm8PyXmIIwQJD/IOEaEXUo4ZGysN3xMnj98TJLVfGyiXnRMtJI8P12rTcPJGVaz0SFhoiQw6NUOfEy/WXRMq9N8XLpeq8y86N1r9HhIfo8zdt9UiB59/mtT9Ac2PeE/AiWHfEEUdo8kMsNhbcHHXUUXpRDCY/cQCEBX4xwTj2X3XVVVp7ojlZyHPxxRfreXmERnUA7cz0I1824md5AqBhw4Z6KvLcc8/V044AQTd16lQdiESIsZaA+AHPGwwwxD9IQFMzpqKUAmzWOETOPSNcbr8mWoYf7pJspekXLvXIzHl5SqMWVc/dvLVQmfUiRw9zySN3xMiDt7KW36Xn7xf+UyC/zsrThTYDBRbosDiHQN7AgQO178sUGKv2mMJjTh6yswaecxEW69at01NjzPfzTbtbb71V7rnnHrnrrrv0QiAERKDX4ttg+pEAHffk235lreyDyFgirB5EMCEAjjrqaBk2bJgSUsfqmQnOYQYhmCoOG+IfJGRmeWXGnFx56Z0cmfpbviz4u0AR3CNz/yqQSV/lysvvZMuW7QW6wu6iZXny8P9lqf158svv+TJnQYH8s8Ijc9S5n0/NkwefzpLf5+ZoweAvSg5wAndMo/3www9aG6K5H3jgAbn//vvl/PPP1wG8adOmaf/YjvhDaqbw3nnnHb3ybe7cuXr67/fff5cpU6boKUD8aF/YgTpf8Hd5hLOP2YE+gAuBiY6mZ7FRWdF+rmUxEP1GQBU91/1aOD344AN69SL95rl5xmCB80GF4t+rjIcff1osd3lfuqg++AalaqvkTs/0KgIXyOw/C2TxskL5Z5lHPv8uTz7+IluZ7v/TjIztjerv6bPzlbAo0MJh4dIC+frHfPno82xZv7lAn+MvIA1kwVfH1MXE530x8CEHxMf85Thz9Gh2rIFJkybJtm3bilspMrdxDVix98svv+j5//nz5+vpMb6Bh+/Pd+Jpl0U5EBD/n1gB10A47sE+243AoqAPvpYCBMdlYG6faUNiEfQPIcDaAqL1HGMfsQhcDSwS9jMNSVvM2XNPtDtCjmfkPrgrr732mqxfv0FfEywwa/UNSgXCwV7TDnFLam72Y25fdtll+p0TNUfbEyuApCzywawmXgC5WJdfcpqwqiCwyAbh6Q9+OkE63A0CeY899pgWLiWBIEFosS7BtiCCDcbUNygVaFKIAVlLkh5AdvZjKhMLwHRmYQxBQAJut912m14sg9CA+L4LggIFSAvpAT4+/cDvx+xPTk7WWr40oPGZkQhW0gOj8Q38Bu4V3/QbN26cjqwzHYalgGmNxoVcuAh8+6+6/Wei9XfccYdeUoywYpkx384zKB2G+AZVBtNlfGuPKUD8d7Q72pa1+lu2bKm2yL4vWER04oknasHDV4K5N1aLQekwxDcwCEIYH9/AIAhhiG9gEIQwxDcwCEIY4hsYBCEM8Q0MghCG+AYGQQhDfAODIIQhvoFBEMIQ38AgCGGIb2AQhDDENzAIQhjiGxgEIQzxDQyCEIb4BgZBCEN8A4MghPk+vkGNg7x5VOklJTdJMCmUSWJOUniR2INEnST8BKT6Il8/iTNJplmZ2nwVATkCaf/rr7/WSUQCSI9aBaPxaxCU0mrR1CWH9ouUfj0jpGmj/YtCOEJEH2MbMypGOrQNr5YS2TWJPn36yEsvvSQvvviiXH755XLyySdrcpPvnow6lOEmj59dMIP9N998s66Xj1AIJEjWefXVV+u8fVdccYWuvlNfYYhfg6DIzOEDwuWLtxrIx680kBsu+18Jp/AwkWsujtfH2N54KlZ+ndxI3n2+qTRtXPnCkbURpMk6+uijdW160nORt5+y1aTtongHVhsbv9vAOiCLL4KAzLqBBGnZuR/pvskZaCfyrI8wxK9BMHBDXSHSpFGING4YIrGxRQM5KlLk2osbyL03Re07pk6W5k1C5JTjXXLX9fESG1P3dT8prsmVh5tGTTuq8lDUAzOfvPzUt7vpppvk22+/PSgkJOvu7bffrotovvrqq9plrK8wxK9hoLR8N0CdvTNPjpDIcJF/VhbK6AmpMuGKNEncY8mOnZZ88UNuQMtn2UCLVqbWHYKL3PtlAWKjocsCxyA9fjTpsG0ty9/8pO4+hTIQBJUB7WJN+AMyAy9ZskSn4C7Lv8ciCLS1cbBhgns1iMiIEDlpZLS8/0KcZGZZMnlqvlx/T4o0a+KUnyY1lY7tQuTn3wvlouv36gKZ/XtFyLadbklJ9epSW/6iR48ectZZ46VhwwY6kEaBCbLk8pP3RoUZCkqifclUyyCnQAaakIy6pK4mrTb18gBprNHKCA0q55xxxhm6Wq7tl5OfH43+66+/6so55MC/9NJLZfDgwboSD58dmXmppEPAbvLkyfqeZ599tj7+xRdfaDeAzxbfnjTanPfUU0/tq+xjF9MgRkBfuZ7AH5V0uJ6suxUZExSW6tWrl66kS1CRPkF0Ygu0zTGqECGYeE9UEKKYSGWFU03DaPxaiMJCS1LTLB38G3SIQx68tYG0aBom/6zIk917q0Z6QMGJJk0a6yj6hRdeqINZlLuC+JjeRLWpkAOBASSCnJCwZ8+ect755+tiGVTSQeOjXTnnhBNOkLvvvlsXqCQwRnuUtOrevbsO3BE4a968hTrXoayaaH0tfUFDQybOZx8CBGuB4B158uPVftovCwj8008/Xa6//nrdd65DQHEtxTEprMnPioBn4jreg239MLtw3XXX6QKitM1+7klpcIKAFOMsz/KpjTDEr4XIy7d03Tw12rV/f8FZEfLF2w3lOuX39+gcrgZe8Yl+AhKxQT4IR5kpSEMZ6UceeUTWr1+vI+sE3oi629dAULS4S2lANPzEiRP1NdTKox1KY0N0THR8c6rYcg4FNdGaROf79esrBQVuHcknOo8mJqj26aefahJRaoupO7uP3JON30sDJESwUC8PS4IinrTDvSE8WhkiU86rIrDvZf/EkmCqkTbo65133qkrCfNcvAMEIsFJBEVdgiF+LURuniWffJUtT72SJ3uTRWKjQ6RHF6fcfGWEvPl/8TJ6RIyEBaDsPOYqpP/www/3FavEvIWEVKNJSEiQIUOGFJ9dBExfiPz666/rWnn4xJjUmMH29NcLL7ygTXGKcVLk8s0339SRerQ41gAVdzCN9+zZo6/FhGf+nnvi6/tG8Q8E2sRawRpBYGGiU1ADFwAhQD8RVrgeaOjKAuGIdscyYV6fEuE8M/f66KOPdDVh3hf76hIM8WshKOm2dUeBvPROmpxzVaq8/5lbduzySlxMiPTu7pRnH46WDu1ClUYqvsBP4Fejnbdu3bovqAaxISsBLkx4NFlkZFTxFUoo5eZqYhH8smvPQSzq1qElIQDX2+TlHAQAROQeWBAQP1CAmAgcLAosBywAymnhkuDr0yf6wrOMGDGi+KqKgzaJS9D30aNHy1VXXa1M/pFakHAMgYkArI7agNUJQ/xaCuJQBPEWLsmTR55NlStuT5cpUwsUOUVat3TKxWfHKtO2aswnik4gtOTqN/bv3LlTm7pF7kBR+XGAcCh5PufZ2h4SlNTYmvw7duj9DZX2DC2jlr0/QOM3a9ZMa2SECpVyH3300X3bLbfcsi+OgLleWSAIMekpJ47Zf/TRR8mNN94gDz/8sI5nEFvA2uC91CUY4h9EuJwiTRq7pHULl9JQxTtLgRqj0qFtmJx4rDLpwxySuLdQ5i3Kk8dfTNf+P+jS0SXhrqoRHzKgrcvyn9kPaW3NXh68xQO/rGm0MKWJac+irQCShL4RrecnVgjxAawYe+Nv1gTMnDlTz0ZUFrSLm/Lkk0/qstsUAcUtwfwnkHj++efrIGjr1q2Lr6gbMMQ/SIiLdcjoI6Pl8bvj5YX/NJALx8XJgD4RcuzwcH3cXWDJTmXOx0SFyFUXxMlrT8bLo3dFy903xEvXjuHSvVOYXHI2gkCfLmkZasBXscozGozotz3tZoMINcE9CIU5W1qZbF9Ajh1KowMKZ5YmSNDKmOGV9eEPBKYbWbfPyj+I/sYbb8izzz67b3vmmWe05ifu4A/xAW3jrnA9QcmHHnpICwKm8XgmLA3iIXUJhvgHCazQ69TRKccfHSZHDQ2V26+Nkuf/EytjRodpAu9NsWTm/HzxKBM/KdlSvrxLOndwyAVnhsv7L8TLW8/Ey/lnRijNGSJZOSILFhXs0/7+Al+b+Xjm9W2yEp0nik0gDFIRcCtp2pcE/u+UyZO1uYsmHDVqlCaEDaLuzPljcs+fP19r5kABoUSQECBcmBJECLHhriC8JkyYoNcN4JfbwIXhORs3bqwtn7LA8xDFZwaC2AGCi7UBBEWp+0+QktmEQMYtDgYM8Q8SMrMK5a+/3TJ9doHkKh4ltHZIjy4uaaD89J2JXnlvUp4sWZEv+W5Lfp+XIy++nSfbd1rSuKFD+vZ0aUHQqGGIpCjOPPVKjkz9NVtH/6sCND3Ev2jiRDnn3HO1ycr8PfXuGcgE/TCRD+S/Qi6i+CtWrNBBNojGdBf+L9NotIkFAeEJhmVmBi4Qhg+Opofo3OOSSy7R5vfYsWP1+gSmKY877jhdv5+FRDY4h4VALNGF3GUBAUagkMCeveaBQCZtslgJi4na/8RF6hIM8Q8S3AUiS1bmy6PPp8uVt6fL/U9my8vv5sqd/8mSC69PkU+/zpKcXK92f/ckF8o7kzLkohtS5ILr0uXWh7Ll6Vdy5Tb189xrkuX9zzJl526PMrGLG/cTaC82zPMJZ58tF110kYwZM0batWuntdqUKVP0FF9FQFSbFXxoX66H9LTHt+sGDhyo3YHJyipAODCPDxAoVQ2KYW3Q5ieffKLJB0kRPAgAhA7TkVgFfM3WtgwAVggWAIKPAGFp7glAoxPY4/lY8MRqwquuukqvWcAqYj8rHAlq1iU4H2SNYoDw8ONPi+XOLv7r4ALtxQcI8EtrY5RVjVFJTvXK5m0eWbWuQBYvdcuipfmyYbNHkX7//mbnWLJjV6Fs2OKR1ercf5TQWLzcLes2/vvcyoIo9IABA/Q7Y8kp5jdmPRvmMct4WWL7558L9D7eJZocMI/NVB8CoyQgFvPb+NwEwHAR0MQE14iM//7773pqzP5sIBsalXtyDudCZMD9sCSYBly2dOm+eXLcBfpEHyAbv3MfXBLm2ekXZITsWCyY4ywwwnJhXNhAEGEt8Kzc23ZnsBRwGdi3cuVKfQ73ph/cA+HCPtpmQc8PP/wgs2fPrnNLds1a/SAEmgufF/+Wr8Hir+Kn8g55fxAH4voG9SAo50BIBj+EKw0IE8xfYgWQFCLTDuawLURs4Fvby3a5p6/A5n4EH/lpHwMId66BqPTD93Om//j4nMN1BBG5d2n9xcenn7Rrr0ngGqwW4hEEAxFWXAuYraA/PBfPSMCPNnlPZb2L2gxD/CCEL/EZ6Hx5JoDDoE6CLymxqpB1+ZAb3x9LCILXRxgfP0gB0YOd7L5gNR4BO0iP+0PAsL6SHhiNH4RgsQlBLwY5fvyaNXUrMFUdGD/+bGnTprUeO/j9BDUN8SsIQ/y6AXxZpuvwsfGf66KPGmjwrULeC4E73gk+f32GIb6BQRDC+PgGBkEIQ3wDgyCEIb6BQRDCEN/AIAhhiG9gEIQwxDcwCEIY4hsYBCEM8Q0MghCG+AYGQQhDfAODIIQhvoFBEMIQ38AgCGGIb1Aj4JuBFOGgUg8ZeOoiSB3Gt/oo1EFGn7oEQ/waBpmdQ0NDdPrt0vI96mNqiwgPKbcIR10DiS7J6ksyzrqWk94GQovkHWTsJYtvXYIhfg2CyjoJrVxy8qgoOe7oSOnZ9X+aDyHQpvgY2/hTomTUCHVOlzAtCOo6qDcPaUhX3aFDhzKz3JYHEomQH4/MuiTIPNigWCcVhSmTDfHLy89f22Cy7NYgwpUWH3xopDx2d6wMHhCm+uyQ2QvydF38rp1D5fLzYuXKC6PkmOHhcsKx4TKwf4R07RgqKWmW7EisenrtmgSmMYkxyVxLxhvfnPcVBXn0KYdNNiGSepIS/GDCzgFBQk+y+W7cuLFOjDtgNH4NAxO+fYJDb61aFH0ckZEhcv64WLlmYoQ0aSSSkUlKbq90aR8iJ48OVYIgQsLDAqv10bjlaazKauSQA2g/CnC89dZb8n//9386jXVZhCnvvmQRIj8+yUPJ5X8g+KORuaasPpCXb9KkSbpUF+W0ysra4481U90wGXhqEJERIXLSyGh5/4U4ycyyZPLUfLn+nhRFdod8834z6dM9RP5ZUShPv5otlJubOD5CktIK5ZMv82XB4lwpKEpBX2mQJhuikGqKHPikjibQxrsj1xw54wGmNOfhy3IuOehIRY1m9c1RbwOLq1evXpqQLnV+ntKEFK0kFTZFO2ytTGortD1+PqTgHNJv2yCNNX5/06ZN9X35LOknue05j8+avIFHHHGENrP53KmFT/580l1Trcce1gQOuQ/PwHWk3Ca9FkU4+GmD+2Cu8wwUyST1NtfwDugfOf9L5uDDasHc53nJ6e9bI59nIOjHM3Bfnp13x/sNZAkxf2GIX4Moi/hNGzvk50nNpGO7EPl9bqHc9ECKLq7RplWobN7qFm8VPzGKPFLlpkWLlkrbrtCRaXxucsijwT777DP9LikRddJJJ2mNiivF4MWc5ThE861MA2Hwd0nbbVeOJZcfFWwSlRl/1pln6vb/+9//6kIYVNe55pprtNChACXFKQBEGTRosJxwwvHad7dJA/l+/PFHXa2WzxgTn/gAxEYr83kjYLAerr32Wv03Ao5qNwQReQZqAnAtbsW7774nc+fO0WOFfaQaf+KJJ7T7QFUeBBjvBHK/+uqrMnXq1H8RtnPnzvp56Sdpyr/66iu9H6E2dOhQ9Qwn6HZ4RvqDcEA4UVjEV0jUBIypXwtR4LFk/eZCHcXv29Mh114cq4N/2TleCYSUhgAQKiGhjRx77LFaG6Pl8FOpakPBCmrFXX311XpQQzqKbnAOGg7ComnRhgDyUSiT/WhqtDqmL1qVklwQFO2JZuS+EBVBwYaACQ8vKq2NcBkxYoRMnHiRJhUCgvJUq1at0sKE4pX0i/6j/dmP1kYTo5Ht+n2Y3PQNQXTjjTdq0lPhhz5RgYdKQtdff52cqYSR/QzcG4IiLCiTRWktLB9y61Mpt7SMu1gJPAPX8NMG90Ow8u5wB6jis3z5ch2AZAaAd+eP2xFIGOLXQuTnWzJjjlv2JFnSsIFDLj8vQl58NF6uuCBWBg0IkwbxTmUiF59cBUBCTGO0GTHe//znP1qjduzYUUfc0XaQ6amnnpLbbrtNa2s0M/vHnHzyvpLYCAOOozUhK347BSnvvfdeXYorQt0HYh0ICBAq9+J2cJ/nnntO7r77bnn88cd1O2j0Vq1a6XOpcvPaa69pUkJ+Slhzz1deeUX3CTN74sSJuk+Q/emnn9Z95DkRcDw7goRn8CUh19JXyEp5bdqkbV+3oDwgABBavBMEJc9wzz337HsGXCSEI/evSRji10LkK3/+h2k58ubHeTLnL+VXZ4gO8t1xTaS8/HgjOee0aIkMrzrz8bUZjJi2mJ5oSgYuU2QEzdCqn376qdZWaDw0OWYvZItR5EejofUw2xnImPIICYjG+dTJo548mrYiKbzR5JCfn1wPIWkfv5gCnpCaqj8IK8xz32Ca/bf9DLgzCImk5GR5/fXXZenSpdrc5jkRSFgIkJwZAe7pC0j/9ttva7emNE1fHjDzcZ1oG0FFTIH2sR4++OADLawQtDXtihri10IwnrdsL5CnX0mT6+5Ol48+z5Olqz2Smm5Jt04h8sgdMdKzm0u7AlUBhR4ht682Y9DaWpBBC/B12agnD5kgOIREqzLAGewQDx8Wt4DfbTDVhRWBkDkQIBlBPPozfPhwbRZT2go/GWGApiZwd6C2MN+5hn64Ffnoo/0MbGhjnp3jWAS+Gp99xC98g42VATEDzHv6iMlPZd2jjjpKBw5tC4rNfrc1BUP8WozwcIds2uqWux5LlavvyJRJX+epAWMp01nkvHFxEhdTtY8PojEAfYmKtoTIkAXyMFWFuWpvDzzwgB7EaHBMYs6DlIDgV2maDPO2IhoODYl1QPCLtoYNGyYPPfSQNtPx1QmWMctwIP+Y/kB+zsOs9u2/vfFs3A+UJL6vJVFZEIikrDZluAh+UpWYd4b7c/PNN+uYB7MMNQ1D/IMEh7LMYxVRO7ZzSffOLuWnO/RcPJF9wIDzeCxFJJGG6li/nqEy9rhoadnMqZfzrlyTLy+/k6XdANC+DfuLfg8kICgCgf6gfadPny7Tpk3bt+HvUhaa/fjhnMf5CAACeL5BLsB+e1ruQKAtylNDkmeeeUab9fjJCBkIRPCQJb5o6fJAOzwHP9G8vv23N/sZbLckkKDPzz//vI6JMBNhByFxP6688kpdW58Aak3CEP8gISrKIUcMipTnHm4o773QWM47I1aOGBwpQwYW+ZfuAku27yrUwmDkiGj59LXG8srjMXLbNfEy9LAIGT4oQq6+MFb5i0WCYk+SVwqrYeUeZjyRfUiD6c4Afvjhh/dtjzzyiB7QlNdmxR3acffuPfp8tOuhhx6qo+MA0uMOEF1nXvtA4Dqi/JjECBWCjdddd52e7sP8RpMTeyhtXTz3soEVg7alT0zdYbX4PgMbz/Dmm2/qWYOKmt0HsjQA/rz9DBCe+1xz7bXyn0cf1ZYMx7t166anGWsShvgHCeGhIdK5g1MO6YPGd8r9N0fJS4/FyYRTw5XGsWTrdq/8NpMBiKmJmV80mC8+O1zefa6BvPVMA7niwghlXodI4h6vzJyfLzl5AVuCsQ/4qMyFY54zp33yySdr7YQmx3zG1Gaq6tZbb9Xz/Ji2Cxf+pQN+nHPnnXfqhTWYs5jT119/vQ7+lQyglQZmE/DrmUaEGAgLtDFaGb/Yji3YbSF0uD9/s+CG8wkyol2xHCA0VojvM7BBTO5DtB3/+0DWCJ8DMw0EM3l+W7CVBt7ZhAkTtGYncEifLNXP1UoIYGVgvdjCoSZh1uofJOQr3zw3VyQ60qm0QYj+gg6uMQt3Vq0vlHcm5covM3PEo1zhLdvckpHtlOZNnUoMWErTqOdT52ZlKy28wyvPvp4jU6ZmSq6ftS6Zx8Z0hsgEy4he2+C9odmYc0YzocU5D3Mdbcs8On6qPeVFcJAoO9oNTQzRmNPHHz/ttNO0Wc56fAgAIdGwaGMIQj16PjM0Ie1AzmOOOUaTkT5CMK5HgCBM+DIPMwsEC9HktEkfmYWgHQQBawU2bdqkg4oE8djoF9YCgUum2ugbc/hoZe7NrAHX82wQEneGKLwdl+DYLbfcohcG0Rbt80y8E4QafcVCwbfn+VmLwDtASHBfngGhQaAS4cb7/u677/ZbAHWwYYh/kEB39iYVyrzFbpm3sFBWrCmUlWsL5Yvv8+X1D7LVvjw10IrOZSnustVu+W2WW2bOK5T5iwpl6UqPfPNTgbz6viLP/Jx9vr4/gNT4m2ieksQHEJmoNuTEVCeaP3jwYE1UBi6kY+ASwLLJwSCGLJyPFkbbEiNgNRuLYLgf+xEWXM+CHHtFIPt27NiuNTqfITMHkJwIPCvgsCwgF8Llyy+/lMWLF2uSQ26EFItt0PiQkGf7+eef9RjguWgHMnIvngEtjKDgXrgrxBEI8iHcEDgIDlsQ2c9GsBOBhNbHAuH+HC+N+Exh8uy8OzYELM/Au+PdsJDIXvlYkzBLdoMQDEi0D4McDcw8fUlg3qItTzzxRK25ICRmKqSFqH/99VfxmUUr2NBqvHsGPloObZycnKz3QShcA8hIjIDVdWhetCLnQWamAQFEHjp0mCZos2ZFQUGuQytjKuOG+IJngHzMANAW573xxhtaMNgm+umnn64tFzQ8pESo/fbbb/tiFHY7mOgIic8//1z3B0FlAysBEkNcBAPvAUvk8ssv14KHe7LcGdBnBB2xDYQDlgvvjtgJKyCZlqxxQPxAwRnbDCFSI5sivqU+ZEtJX0sNvFLPMZt/G+9WmeGWIv+/jilyWUpAWG+//balNKiltJs+l2vYlDC2Hn30UUsJGOutt97S55Zso6xNEcZSZLYUkUo9XnLjPCU4Sj1mP4PS7KUer8jGs9q/K2vJGj58uPXmm29aymqwlOuw37m+5/EM3L+04zW1meCewQGBKYyWxLQuCSXvtb+L5kSLM0fOMlu0OV/w4W80H5oWk78y30xDSzIdV9HpNs6zNXhJ2M+A9eAveFaABsePZ2oRtwGXBkunNPDcPIO9ZqC2wJj6BgEB/ivz7PjRmLqY+3wWmMuskvvoo4+0741vXdeB20Cgj9WFCCfm6lnazMxGXYEhvkHAgE+NP08wEEFAkJD4AX4tPnFZ2riugWAfFg1BSOIOfA8g0IuAqhuG+AYGQQjj4xsYBCEM8Q0MghCG+AYGQQhDfAODIIQhvoFBEKLeEJ/5YqaPWCwRwIkKA4N6iXoznWdgYFBxGFPfwCAIYYhvYBCEMMQ3MAhCGOIbGAQhDPENDIIQhvgGBkEIQ/wgBN9kJFUW32bku/MGwQczj1/NCHG4JL5xK2nSspM4yyFZfk6mbF41r/iv6gXJK8khx2KnH3744V957AzqPwzxqxnR8U2lz9DTpe+wM8RVTm755F0b5bNnLy7+q3pBAk1y45MZh7rupMQyCC4YU7+a0aRlZ+nS/1gJj4yRbWv/kvk/vbnftmTWFMnJSJHYhi2Kr6h+kBYLE5+tItVhDOofzKfuJ8IUkaNiG5W7NWreUTr0HCYt2vaUtL3bZMWf38mmFXP227atWyhZ6YG3kkiDZWBQFoyp7wccym8/9NjzpXWnQ4r3lI7QsEhp3LKjEgDtJSNll+zavEwKPfvnZgsNi5CmbbqKOy9H3rr/xOK9FQeVZKhXR5ZXykaR450iEhTLICsuxR9Wr169X4ZcSkpRuBFT/+uvv9FfburUqaO+hky05L2nbJU9NMipTwWZHj166CoyFLag6oxdVZdrqD5DzXmDuoE6TXwGKlVMMFkZkJVJ5kjlFIoeUEmmsqmPna4wOfGix5UJf4zkZKWJx116LStI4XC69OYt9PyL9MChzO7ouCaSmZroF/EhMWmeIfauXYnSsWMHXVUGc568g+Qf/P7773XFGApc2NdAfPpHauz4+AaKxPHa7OdbjhSl+Pbbb3XRCdpgBmDcuDPVdWM0uUmcSXEJ21Ug0ST73377bV0hJoBDyqCaUKeJz3QUmgdNRDknBp1v9ZOywEAeP368rgX3+OOPK8LsKj5SMbhCw+XkS5+Wlh36yuLpH8v2DYuLj1QeMfFNpf+IsySmQXO/iM9zQGKqxPDsaGOqwEBqst2i/SHlq6++qmvOIRxt4lM1Bm1NPTq2mJhYZTH00emjyYz7wgsv6OovlKW64IIL5ayzztRCEguBzLKUkYqLi9NVbDgHi+OOO+6oVO58g5pBna6dxyCmbBJ10ShsgLmLBitPlnE+ZDn22GN1CSVKQVUkNbKOzg87Xbodepy06zFUEroMlPCoOKURC4r8+RYdKrU1bNZewiKiJC1pq57qo/3FMz4uvlvFgQlOjTmIj+D75JNPNMGp44ZmpvwV5OedUNsO8x73gGuYz+dcct5TjZZpPd4FBR6paYcAgdy03a9ff30vClJQX/6DDz7QRMctQBBQ3ZZyUVlZ2TqlttH6tRt1OriH9kHzTJ06VQ9YaqRRc41BWxJoQKqlUh+Nog8UQfjmm28qXFmlQPngLdr2lt6DT5V+R4yTBk3bSmRUvHTqPUJp7PF+bT0HnSyNW3YuvkPVAPmo6QbhEX5saG3IiRtAHICCl77ADeA4hOd3CkJA9qSkZO2/U+raF5j9FMfk3eFa2dfgRmAx4HpRSRc3w6B2o85H9RnwaKuffvpJE57SzAxyiO4LTFKOUc6JIgiQvjJlit352bJn+2plZRRKVExDZe6Haf+caTr+rvQW21Av7Gme0L34DlVDenqGIuPm/YJ4LNBBMKL5cYsoDOkLjmMB+MZGuD4rK1NbA5St9gVaHNfALnBpgzYovgkSEtqYKcI6gHrxCVF3neg1mp+SRqeeeqrW/ASfEAD4n2eccYauqkrAivPsQFdlsG3tAslI2VmpIGJZoF+RylXAiggJqfrHQI22vLzcf/UN0iMc0cIlNTHnliw8ArnZB3lLEphjRffZP5jJ+VSR5ZnM2oC6gXrzCUF+yg8TwQbjxo3TRCfCPXbsWF3aydb0mKj+gLl4trKi+OXDKvpPkcfeXKEREt+ktY4RVBWhoS6tpUtaOrg3xDUgeVUFFm1jVXEfX0B0SmrzTNyDnwa1G/VKNOOvMz333XffaZMV8p955pk6kMU8M76pP5reRkF+rqTu3iz5uZnFe8pGqFKuMeFeiQkrkDDJEasgUwpy0iQ3M1my0vdKZtoeyclM1WRq0Kxt8VX+A7OcenVUcrXB7wTksHiItGPaVwUQHN+fgKEvcKOOOOII/TuzACWtCIPah3pnk0F4zH7moQn+DRo8WGt6/qaccVXg9Xr0mvrc7LKnqxxSKOEheeL0pCuCJ0lyUjHBc3ZJQcoayc9KlpysdLUvTZF/r6Tv3S55WamSl51e3IJ/wH/Hsmnbtq0WJmzEOhB6HGP2oqRvXllAfNZNEES1tT4BvWOOOUbPqqDtv/jiC0P8OoB66YxBflaeMbXFxhx/VTS9L/buXCe5Wf8mvvaXC3LFnZumSJwiKbu3yrb1S2THplXKStgkuzctkQ3L/hBvrhI++SnizkqUrKSNkpO6XUI8WZKZulOZ/A2KW6s8uD/a/dJLL5XrrrtObrjhBv1FHCL5aGGEH1NzVQEmPERn3v6mm27SpaL5edZZZ2lBwApBIvyG+LUf9TYKQwCK+eTffFasBQLpyTskdc8WcefvPw3IfH5uToZkpCtzXmn0PVuXS8q2peJJWy97NsyVvIwd4slTmj5pjaxbpFyOTQskvGCn5CavlY0r/5Sw8Fjp3PtIcbr8+3481gxz8szRQ0TWKrB8l2k9tDAukL1eASHBVhq0AFPEtX/6gr9ZDEQsBevi7LPP1tqfBT+0/+abb/odPzE4uKjTC3hqAiy9jYxpKM0SuutpORustc/JypACt1sKc/ZI2q6VSkOGiCNEZOvaRXrqr2Wb9pKZniyrlsyX6KgI6dKjr6Ql7ZLNm9ZJl/6jxBUWKbs2LJZ81VZFYS/gYUrt448/1gtqtmzZos16vm7LLMacOXP2c3MgMKsVsYqYfyfqbwPC0xZz+xxHcNgLeLp376bPh+Bcv3HjRr1SkKm8n3/+WS8gKkugGNQumC/p+IGGzdrJEadcL226HFq8R1nvebni8RQoojslZ89K2bJ8umRk5uplsZ48Zdp7w6TXgCMkOXGjbNuwXHJyC6Rzj/7K/44ST2hTiW99iDq2WWZ89oikpSQWt3pg2Et20bQPPPCAbNiwQRMV05tgJ3GOqn7E9pLd0047Va92vPXWW3UMgdgB03fM7VdkqbRB7UG9NfWrE2lJ2+WfWZPlj6+f37f99es7smXV3GIfP135wuHSpn0Xadymu3QZcIK07zVCJLKlNGndU3odMlxatk6QkLAGEtGoszRr11/5+Htk5/q/JKeKQT7A1CbLl3F3qmtqjXYzMjK0G2VIX/dgNH6A4HCG6jX4XfqOkLi4BhLfoJG07thP8r2hYnnVK1Ymv8fjlXCXJSGedCnMzxFHTBs9xZa2Z4tsW7dANiybKWnJlfvC0PHHH699bVYhvvjii1UO4JUGVv2dcsopOl0XswNPPfVU8RGDugpD/ACCFXixjZpL84Se0iyhhzRQLkFEVAPlu0eI0xGqya+kgFiFbinIy5KszDRJ37tF9mxdIbu3r5asjJSihioBAmt8OxEBgk+Otg80cBv4oo89Q0Agz6BuwxC/GsD39fmOfVzj1hIV10jCI2LE6QzTfrFlFYrHnS/5OemK6HskU/nzOVn7r5c3MKhuGOJXJxTRHQ6n3vR6fKXxed2WIrnl9RiyG9QYDPENDIIQJqpvYBCEMMQ3MAhCGOIbGAQh6g3xiZizisxOvmFgYFA26g3xSRDB98JZRmoywBgYlI96wxDIzldG2QwMDMqHUY0GBkEIQ3wDgyCEIb6BQRDCEN/AIAhhiG9gEIQwxA9CsM6Br9qSfru0cmPVDcpuU624Nk27MhtEn2rifdQEDPGDEKx3oJIu2XJbt25dvPfggHUW3HfUqFE6LVltWWxF4VXShJN3gEVg9R2G+EEIcu+Tteeqq67Sde4PppbjfldeeaXcddddusKubwGQmsTEiRPlzjvv1FWUyVlY32GIX8NwuULVQIuRBg0bS6MmzdXWQuIbNZeYuMa6DDdltkICbBKjZSE728E2t8lBQD5Aavpx79piWtvvI1gq/dab7+Pjs5Ibjsch42xtLeoAiUnEGRERJRGRMdK4aQtp276TNGnRWiKjG4gVEiqZuR6d4nrv3kRJT9ohmck7JCczRTzuXClw5+kU31UB+fYpvIHm//DDD3U9wYOVMBOyU38fc5pCm76pvWsSpAzv06ePfh+kKafkWH2GIf5BBKW1Gymid+jcRzr3HCCt2vaQqPjmkudxSHZOgVKHbsnPUn0Pb16UqcfyKkK6xZ2XrQTAFtm7bZUkblkhabu3SG5uhs7k4w/KIz7WAEEuCm1CTohKhVxSdUPS0oYLmpJ3T4DMPh/BRVvU9KNtiMRnwnHORbNyDufa52H22/X96AOfKfez720XBCkPdl8A9+Rv2uYn9+d+pZVS8yX+119/re/F/bmGbMVkFPYVjrwfXAKOsRGw5G+ehfPIfcizBJBeAYUh/kFCuNLw7Tr3lYEjxkrztn0kr8AhnkKveBW51Q+JigiVtvE58sUnr0vfUdep58A6wOxUv1hFz1LgLpCsjL2yY808Wbd0uqQlJ/ql/csiPuQgh/6RRx6ps/dSaZiBzKCfO3euJgQFNnzfLcKBoh7EC6irB7E5//3339fkOeecc7RZ//LLL+siHI0bN5bbbrtNB/bI1ksBEEhEbQBq/U2bNk33Y/DgwbovgCSi1D7kXEhWHqjai6+OS8GzUUiUykIIFfZRaOSll17SSUMRAjZs4lN1CCFDsI/n4b1QGmzKlCm6eIh9DW2SdXjRokWydOlS3V823gfXU2SEcuw8u6/AqC2oN5V0GCxIXYCGqE2SNlSRvkP3w2TAiPES27yHHjyO3J3i8iSJlZcs6WlJSgIrLbFnlWzbvFY6tE+Q7IwkJQwcEmrlizNvh0SGZEtS4jaJiI6R5u0OkejYhpKZskPyckrXwuUB0hFkQxMyaNesWaPb6NSpkyYggxrSQ3CID1kRFhzftGnTvpJkNunvvvtunekXYkF2iIzgSEhoK926ddXCAMGBhkc4U3aLUl+QnJJcaHfOpyJQ585dtCvQsGFRHUG0KG137txZa2qqBJWHli1bygUXXqifkQzEJ5544j6/nft06dJFTj31VF0piHvb746SYFzDc/OsvBvADEj37t11hmEEF0TmOUeOHKkrBHP+4Ycfrq/hOdkoTY4QQwj5vq/aBBPcq2aQZLNpq87SZcDxEtWko9LulmQmbZNFsz6X9UtmyNbV82Tv6l9l16qfJSdjt9IWOZKxe50s/2OSbFn8tWxZMU1W/vWDumaT/DPzE9m86EsJD/VKQvdh0n3AaImMiiu+U9VA+eujjz5aD2iKjv7www+6Yg4bPi+ERlhcfvnlmtgIBLTpQw89pC0HBvfTTz+tC3bee++9Wkt26dK5Ut+WhKDx8XEyf/48LUyuueYarYmpFcA0G1OQFZ0FQAlAWFKBM4NAgc8XXnhB9xPr8LLLLis1eo+WpxTYPffco6954403ZPv27bot7m8LBBv0iynKr776Sr8r7oUFhZmPUDzuuOP2KaTaBEP8aoZT+fWxDVupjflyh9YwbneeLrLRpP0AadP/dGnRuq1sWb9S/v57ifQfOkak2XCJa9hCneuVpJ1bpPeAoeJoebQcfdzpkpWeIu78PHE4XdKy8+ESG9dQa5mqAi0L8dHyf/wxW1577TVtWqMZJ0+eLO+++67WdGixXr166cE8YsQITRRKaCEAfvrpJ9m8ebMuqnnzzTdr8lfG5eLdULDjyy+/1KXO0e4zZszQ+7DoIBg/KwL6isCgyAhtUefvu+++04KE+/C8rVq10gLMF1g/H3zwgfos/tb3x1zneqw0hCNCwxeY8TNnztQuAu8LQfPZZ5/pqsFYGAiGpk2bFp9de2CIX+0I0b66FVJkbuKTU2bbqwjRsWNniXDmS0rSXmVmtpCdiXsltnFLzlLkzpKGTdpIZkaKdOlxmDSJypfZM3+W6PimEh4ZSwBAImIa6uq6trnqLyATJjjb1q1bFfFnabPcBj4rfjamLhoX0x/tDOkh9saNm3RNPV9w/Y8//qjdroqCtjC/fe9NvAbzmmfk3hXVnhCVWQM2G7RPcU+EAoTHDQgtYZEguAgK2u+U/tMHahBC4JJWAkIP3593Y4NnQGASj2CBFG5AbYMhfjXDW1ggOVkpemMwhSuFFRvhlcRdW2TaN+/I9588I5l5IdKq4yHSqk17iYptLBFhLglVhO7Vp6/WmlMnvy6fv/WA5OUXSI+Bx0uB5VJteSV5+0pdmruqxEeL2VF85tjRjr6AKAxwzGSEBD4sxIH83Hvr1tL9bnxyrq0oaIvAIK6GDa6HsByz71kRQDoCeSWBy8IzAvx2ZwlriT6XDMbZ75dnL2ldESREMPmC8xEYRPZ5r3aQsjbBEL+agYZP3rletq75U3Kz05WJny/hjkJp37W/9DxyooyccI8MGH2lxLYbLoNOulqssEYSFh4t3YefJ5s3bZEOnbpI2wGny6gJ98moc+8XK6ajKApITtoeWf/3z9oiCBTsAV4WbBJDQM61NSeWAj9LAu1c2v6DBY8SGKXBJrb9HL440DsoCd5BacLNfj+gJt9BWTDEPwjITt8r6xb/LKv++k72Jm6SQjUouvY/SgpdDaTQGSt5BV7xSJgUOmIkN1+5AgVq0IQ2kIioaGnaprsSBo0l14qSQolQgzZf0hM3ytIZH8im1X9JgTu/+C7+AzMW7QQh8GMJ1vkCLUt0GxOfc2xNTgCLY0T7Ib8vsB6Idpf0iQ8WcAu6dO5c/Nf/gNYmeg9wa0ojbWVAnMBuzxf498Qk0PylrRuoaRjiHyRA/lV/fiMLpn8uu9ItKQxrokmEZih1E2VGNz5U+h5zifrdIV5F+NSdq2XFHx/LzK+elDXL/9BBwkCAfuDXYmYTvGOayjd6juZmOo0oPkLCLsFN9Ju+MoX2xH//uy9Yhh9MdJ8vvVRnDkSECoKqNI3KfZm6Y0rPBkLqqKOO2meuE+zD9K8KEHjcB/fHBu+D6Ur6h79PfKS2wRD/IIIVeDvWL5JZ374kU9+7XxZOe1s2r/pDknaukYyUHZKblSz5uRmSl5MuOZlJsmPLWnV8vqxZ8KXM/uIJ+XXSw/L37K8kec92pakCu0CJWMIff/yhCcMCniuuuEKThg0C33LLLZow+LQErvC7GdCPPfaY/r1f3746Gk9Aj4g2XwKyhVh1gH7RJ6LpTP1hkfgCkrdr106vS0BgQUbWA7DQCGzeskVH/avaPywIBCXToATy2Ph99OjRWqgwFUhwsLbBEL8GUFjgllRlrq/+c6r88fVzitCPyC8fPSA/f3iv2u7R208f3C2/fHy//P7lU/LnLx/IxjULJTsrvdqIRH19CAv50aIQl2mt9957T6+Eg0gEy1555ZV969iJnBMlZ+oPV4FzcAcA2pTrq6NsN8C8hshYF5CNPvsCi4TpOFbXffLJJ3olIVN5zETwDl979dWA9A3hgUC84YYb5KOPPtIb6w9Y2IMwZYrTXoZcm2CIX4NgAHqUuZ6XlSqZqbskdc82Sd61SVISN+sv52RnpCgLIFtpd4JRgSM8mgjy2ia7LUwYqCxnZR4av9SOpvM7QuG+++7Tc9W+gPyTJk3SK+9OOukkmTBhgv5q6+OPP65XreFD04Z9D1wFZgcQNFwLOAc3A80IGUv63faUGtN8XA8gHKsB+UmfSvrRkI1FSCzbtYUS05LM01900UV6fYDvfXgX9Km0+3Md96ffdp9t8Iy8r99//10f41r6woKeJ554Qq+MrI0wa/WDEGgogm/4xvj3bDbYh7mPJrX9Z4QERGJg28OFNjClWd6LIGF1H9NanG+fc/vtt8vJJ5+sXQMW+OAmcJzPiusROjbJuCfkpC8l/W7MafrLZ8ox2rf7SVu0YxMSK+BlZZXk5ebKM888oxfXEGjDQuA8yMt0YUly0w73p/2y7s819jtAw5955pkyf/58vbhpw4YNelUf03cID4SU7/uqbTAaPwjBAEZzQgRf0gMGqh3AQ5sxpw9Z2Oc7iGkDTchqP9beY9bzxR/bBMdyGDNmjCbn2rVr95nVtMF90eK+5IMkELIk6QB95Jgvkex+YinYpC8NtMcaBBbyYB2UptEBbdGn8u5f8h3YoD2eCYuB94UALOvc2gJDfIMywcAtb/BCqCeffFJHrrG2LrzwQu3jQvqBAwdqQnyqzGCsAQhak6Av1U1E+31V930CAfPtPAO/AZmIWuPfoknR7sxd4+MS9EMATJ8+XZu9B+vzwCRvqFwUltASqLRX6QUazCLgbixfvlzHGGyLpq7A+PgGAQExAT4DBDDvHlMX8/hgfw7EDvCzAQqgpCsTKPCsrHXANcDML819qM0wxDcwCEIYH9/AIAhhiG9gEIQwxDcwCEIY4hsYBCEM8Q0MghCG+AYGQQhDfAODIIQhvoFBEMIQ38AgCGGIb2AQhDDENzAIQhjiGxgEIQzxDQyCEIb4BjUOvtdOemq7Ki5f8eXrvVS6ofCkb6FKvnLLflJ5kyqrNoD+USOPRJ7kA6gLMF/LNahRQGRSdFGPHgKR2IM6/KTTopw1xT3I2Pvbb7/pz3TIkCEyfvx4nc6LJJekBatJ8P3/kSNHyahRI3Uiz++//36/Onq1FUbjG9QY0NjDhg3TBCc3Pfn67GSdWAB2aWrID8EAWnXw4MH6GEk0axr0q23bBF01iCIadhKQ2g5D/BoCdfPDIyKkWYtW0qvvABk8YpSMGH2aHDH6TDnsqNOk52GjpU2XgdKoZSeJjGmoK+6qq4ouricgg80hhxyii0pSnIOEnZ9//rkubUWiz2nTpmntT8lqY8EFFob4BxNKm0VGRUv7Tt1lyJEnyrEnXyhHj71cBo28UHoPHS89Bp0mhwwZIz0Hn67+Hif9Rpwt/Y88R289Dx8jCV0OldgGzcRRTb4t2patouBc8uyVhQP54LhnpPDmvJWrVuk8+eT2J5V3YmKiLkZBzv5ly5ZVKrUV/bIthECAtirzXoA/fTiYMQvj4x8khKhB0LhZK+nRf5i06dhfouJaKE3eSByhkeIpLPoIGkcVyKI5P0uLXifo5wCUyrLUlp+TIdmZSZK2e7NsXzdfdm5eIe68itee9wXmMllwSU76zz//6IDUIGU+N1A+Nu+NNNTUu4d8gEFMhRxKa3HNwoULdU59imVCfJJt0g7gb8pHUYOP3yEsnwfn4PvyN58Vpn3PXr3kyBEjdHmr5StWyBpFemrN0z73POyww3RSy0WLFmmfnndy2mmnyR133CELFiyQp556SvcVcD7164cOHar7BonIhUe+exJ+lpY2uzSMHTtW94d8/Nzv0EMP3VfmmvTZc+bM0RaJ/fkQhKRAx/nnny9//fWX/PLLL7rPLVQbDtUnrsGa4bls0B4VfugT97H7befwo32KgVS0z/7AZNk9CHA4XdK0VQfpffjx0qXfsRLfpL14PW4pyMuQ3Ow0yc7OkFCnMv0LtsmfM7+XhPbdRArzJDIiTJxSIA53qoQ7vUqDuKRh07YS27iNruuek54knoLKV8slKk4ufAYbfjUBs9HHHScDBgyQvn37akITWaeQBsEzNBe16iZOnKivQQiMGjVKhg8fLl27dtVmOZlmIRyVdCAnx4jI0x6+L/chAWdSUrImPsUoRqo2mipfns+On5zH75CcbL1nnHGG7tv2HTtkXTHxifzTNim9sRBI242Awefn/FNOOUXHDXopodKnTx/9rLSFEKtIKasbb7xRVwKij/jtVAhCSNrPQeyBdsjeSyJP3g2BSWIRCB/KeVGYk2u5P/2inBbvEgHIMyAUb7rpJv1+IDvvEmHJPez3T6CTAiTULqgOGOJXN9RgiG/SWrofepx06HmkuCIaSnb6btmzca54sndKbtpOSd+zWbz56RKSlySbNq6XhFZNZNPqheL0ZEhBboqk7VgmcZGWLFkwXZxWnrTsOEBiGyWIJy9d0lN2SaGncpoBjYY2ZeoMsqLxZ8+eravCMKiZmmLw8U7RVBAWLUXxDAY2FgOWAVoJ8qHtIQIFKREokIaSW2gzIt0UrWRAo9koOMG5+fluRYQ9mkgE6fDj0cxoe87BBaCPHCeF9WrVj9KIDzEI/lHrD/IAu18QDQHAxrW0fSAgkHg+3hEWJFp81qxZmoTspy2E4ubNm/cJRZv4EJz78D54dvqIwOM9A1wW3iVtY1kgkPgdwUWxUe6FIOMZEQq844r02R8YH7+agbZv2Ky9tGjfX5wR8eK1vJKbmSqJ29ap353ijGwiod5s2bJqjmzetF4H8wrDGknK7i2SumuVJG5aKi6nJd6IFhIT5ZLEjYuU/e9WWr+1dOh1pETHlF4muiJgwJEDf+rUqfLOO+/oUlAUyWTQookGDRqktZ0vGIwMaApQcg216fDLERQQD9KTU99uj592LT7IAUkwwyET9eUw1TFpFy9erM9DYGAeVxTcD02MZUA672+//Xa/Z0GYQDC0ql3QsyKgjwQXaYO23n77bf1cEJN3gqWDYPQFQhNXgPtzHe/GrkCMlo/zWY8AEBo8++TJk/frM0KL58IdKFkFOFAwxK9mOBxOCQuPkVC1KfWvfdy8PKyiEGnX5RAlEPqK0+XUpv+q1eukY89B4o1sK1HRsTqan5ayWw4ZdKzENemoBlCkhDhDJUSZ/MwKxDZtpwaI2ucn8fGB0Sg22dBGkBiNiW+MxsNc9R3gWFMIBuarIQEaDpJQIw9NSGGJKVOmaOGAkOAczqWEFf3EnYCIIvtXnOF33o3vvoqAe6LxmUajz8z5I2QwwxEqCAJ+h/S4KRUFlXZ5L/jbkJPnoW2sEcxwTHgsGF+wBgGtzU+eBfcCF4j3TD9xZ3zBWgXeNwIFocF9cHOo7gtoH6unskHCisAQv5rBQMYPL1CbJkmIV5vrOVnpkpW6Q2nwhZKV65aEDt0lIjJaGjVtLeGhDuXzh0ibhE6yfdsWyUjdK3s3zZPNGzdIqw79dUBQsUgK8rIUuTyVJosNzGQGOESxYRNmxYqVmvAMct/5coQD1/gC4mMdAI5xvW+fID8EYqDbK/MCBdw73BD6gKDCJ6eUF9t5552n3QKAOwOJKgriFpjyENgGz0ZdPAQa7pAd9LPBc9olxAHvEkHJc2NBlVbKm9Ljvn48beMecR2ER1gZ4tdBeJX/nZa8Q5J2rlcDwa2IXyjRoYVKcyszOy1PMnIKpGHbw/XWbcAosULjJDQsXJq06y/halB7vZZs2r5XklIypWO/o6VZp0Hi8SoTMT9Hdqz7UwmQIq3rDyAxA8x3cAP2p6en6QGHmVpyGWrJ89Hk9sIVLIfS+gMpGNQQAJIGCvSPeyOkiFcQ4CPAaG/40hCQuEJFgns2qAvIdb7guXg39nNgjvuC80tG4rnGfh8lCWz3qyQ43y7JRdzAEL8OwlI+fXrSVtm0fKYkbl4mWelJKGvp1HOwNGw/VNr0PFYatO4jjrj2itTDJM8TKgVelzRod7hkZOVKh279Jbb1QGnZ/WhJ6HWUeF0xkp2RJNtXz5cNy2cp4vpfjBLSoDFLDiwGNL4lA5CBXHIwl4TvQCUYVxogJ/dBy0GcQIG+2VV2McOZ9//ggw/2bfjZFPJkY6qtouD5SwooBBzvhv129dyqgHZKWgGA/baVVV11Bw3xDwI8+bmya9MSWTH/K1m3bI6k51nSOKGneFmJF+JUH6wij/ooLIfy9dUfSsmrTz9cIhp2kDY9jlT7w/Vcf05GiuxW7axd+J0sn/eFJO/eqrSv/yRicOMfo1VsQE4izUSv0UhoagZ5eYDIzKsDTGCm/nzjDtwHbYygwdcPZIFJ+oaVgRUCSSA3PrK9ETgjcEgU3l6XYANhVFZ8hOcgLuArFHlXmPdYF7RXmSBkacBq6NKlyz5rCXA/9uEOQXgCfYEUlDYM8Q8SMM0TNy2TlQt/kRVL5svqFQtlx4bFkrJ7k2SmJkpOZork52bu2/JyMiVZ8cMV0UC5CWtl2+rZsnrBt7Jk1qeyauGPkrR7ixoQVSsIycBjySwLc5imY1AzlXTMMcfoqDVEwt88kMZHQDAzgJBgwGJeQ3SCU0yBMa9N1J+BbE9ZBQo5ivgE3rAkuAfRewQXlgff4MNHvuKKK/QiG9+oPtOLZ511lp6itKeBfUEUnu8EsA6A50CYET9AINB/gnJVJb49I0Ecgmk/3j/3w10BxF6YYi3pWgUChvgHEV6vR7LSdiuzf44snjFJ/v79I1kye7Ks+PNrWa20+JrFP8u6v3+RternmkU/yrJ538rS2Z/LkpmfyKLpH8jy+VNl59aVkpebHRDzj6AT5GDu/dxzz9Vz4RDkuOOO00RCi//555/FZ5cN+kKQasaMGVoIQBACa7R3zjnn6J8MaubjmcsmrhAo5CniQ0L6iuXCPDz3htQ80yWXXKLnxDHLCTDaGDdunFx++eVy9dVX6+tKan7IxnugDWIFrMxjuhLTnJWEWC5V1cTcA/LTvv3+uQ+CAGFLtL+6ym8b4tcA8PtZgpu0Y50SAn/I6r9+lOVzv9La/B+18XPpH5Nl5fxvZO2S6bJ13SJJT9mtSOUubiEwILDEIEaDjRgxQk466SQ9z06UmSk7psLsYB0DEQugaPHNv31bSPDxxx/rKTCITXtM8SEEMPW5D/43U24IB/sagmhoNga4r2bjfhzjfpjztqBDIHE+x7iea4jAM4XInDn70PpYHVgu3Ju5dcx+3+g5z8DzsI82SgpSFhRxnOlHvjaMZYCFhMXCe+GegOvoO33iPdrPZoP78Az2c/iCYONfxQt06DP3GTp0mKSmpemvIfOFpZL9ChTMWv0gBOS+9NJLtekLGTGVWVwDSXhv/M36coJl9vCw58EZ/GjXklN6NtCIkAQTnwAVVgUEwmTFL/YlBiY2C284F0uAOWxbqGD60ifaW7p0qXY56AsuCCY46/5p0yYzATFMfNrDumA82ELCXg3oC6wApiCxAhAYnAtYQIO789prr2mtzqpD+sJrSElJ1sRHeNnuD5YCax1ojz6xao/ntYELRZ84n1gDU524GS+88IIWFK+88op+hp49e+r3z/PvSkyU6dOm7ddOwAHxAwVnbDNGSY1s6oO21AdvqUFkqUFQ6jlmK9oU8a2XXnrJUqS3lPlqqcGr35kioqWIrf8u7brKbGFhYVZMTEzA2qvMxr2jo6P1z9KO21tp40QR31LujXXhhRda8fHxuu+8FzaHw/Gv8/3ZFPGt33//3VKWg6UsI72Ptukz76vk+dWxGVPfQANNjymK5lMyvHiv/0DTY8oGqr3KgHtjfvOzPFTEKqTvvBc2X1ck0KBt+mxbHtUNQ/wgBOYkJjD+O/74wSZmbQZTfrg6dgyhOgC5Mfkr+o3B6oDx8YMQ+Ov4sbwzIuIMdIMiEMcgRkCMA3KWDNYFAsQt+Nou8QFiBgT+DjYM8Q0MghDG1DcwCEIY4hsYBCEM8Q0MghCG+AYGQQhDfAODIIQhvoFBEMIQ38AgCGGIb2AQhDDENzAIQhjiGxgEIQzxDQyCEIb4BgZBCEN8A4MghCG+QY2BdFlswQa+jstz87OmYIhvUCMgdx/JJclk65v2ur6Dr4+TC4HkmuQPrCkY4hvUCKihf+mll8n999+vc/v7Fq6oDNCcFLioSe1ZGZAQlJTfd955p07xXVMwxDeoEZB+iipAJEzxNxcMBTjvuOMOeeyxx3RJaYOKw2TgqQGgnaKjY6VRk6bSomWCtGnfRRo1ayXhkQ2lUMIkO79AUlKTJSkxUdKSt0vanm2SmbpT8nMypTDAufVrCrwDUkqTdpoUVyVzzlcEpN+++eabtRb9+uuvdarq2g4q9Fx33XVy6KGH6hoEjz76aPGRgwuj8Q8yGjVpLseedJZMvPExGXf5EzLs1Nuldd9x4mgySAqjOkpcgyZKgHaSpm0Pk24DT5LDRl4iR591p4w8+34ZfPylktCpv7hC96/SGghgMiM8yzKZqZhbUXOa86iTVx4Q0CtXrtQVeMojPf0qyw3gPr7bgeBb7ruiIBZR2QAk/fXnmsq6O0VVjP1zcYzGP0gIC4+UTj0GyOFHnyGNWvaQPLf6wNRgJWNzgeprZJhD2jfIkU/ff1kGjrlN3J6i/jvVYHA5Hfq53O4CyclMkm1r5srqhT9KavJOsfxI+YymPfe886Rhgwa6yAMFLSj6QHpnKtKwMag4j5JUFLDgb9JVk5zz7bff1oUjSoJCm7fccovWagx82vvggw90oYmLL75YZ/R99tlnNdkp6kFNO9qluATJLQF/U3Di1FNP1VoRsuIWUFTjq6++0skpKXlF2S/KZHGce5E5mPbpH1YAnz/7qUV3wQUX6OejbdJYb9++XZ5//nn97HbKbNp88MEHdQGN119/XfeP546Pj5e33npLfvjhB5151xe4GrTNPegb96fuHfsB1Xa+/PJLmTZtmj4GfDX+7NmzdTEP2qCUGYk916/fIO+//54uFmKDc++++26dlPO5557TtQgJitI3+k+ZM6oYrVq1qsLJQZ3qYR8s/r3KePjxp8VyV0+trwOBAI9d/LC2pYwOi4iWzr2HyCEjxktkww5S4M6VguQVkr1npeQlb5TstF3idDklaevfsmrZQmnWMFxcnjRp2jBGvPkpkr7tL3GnbZKMPeslIjpeGrXpI/GNW0lm0lbJyaYAZeWelUEGEaj+QtFGosyxsbGaYGhhKsVQAuumm27SBOC9QiK0H0KCgciA41wbFKzEbOUn53GcKrCcS/sU0QTz5s3TghlycA8y2s6ZM1eRcZvWeES7L7vsMhk4cKD+m4EMuSEMggjhA3ERDvSNfnEeGp+fycnJmqT8jiB66KGHdPCQZ+Ac+oaCgNRUsOFZ6StVbE455RTdT+6DG4EwoH0EBFV+Sua85z1S547n6969u36nVNTF2mGj2CZtce8VK1boZyHDLhV8KL5JP+yCmYxXCo7yO5V5cH94TkD0nxgGsx/0mwy9kJ6+ofDoM58lVYF27969T5iVB2PqVzfUYGvWurN07j9awhskqA/YIelJ22XZgl8lZdcGyUjdIUmb/5IdS7+XEE+mRMXES3ioJX/O+FIWTntfNi77XRI3LZHY6HBZOv9n2bDgS4lSVnSrTopQA4+XaHV+ZWGbxhCKAUqdtokTJ2rNg4ZiUEICyj9Ruuq2227TdfVuvPEmNbi2aZ+aiLSt2fj7pZde0hVlEbp33XWXvp5ikJCG47YbUXKzSQs4B8J1UBoULXbrrbdqDYqGpJYfREMgoLnRwgT2KHOFJqYcNrX6br/9dj3wEVC33nqbJiL1A4ii8wwUBUXwUE0Xy8Au6e3bH4QRtfOuueYa3SZtl9T2wL6GfnPNzp075d5779XTlPSNNiArJcVGjhxZfFURUFQIRrQ0hTKZ5aDvuD1YHVdeeWXxmft/XhzjXVAYlHfMe6dGAlYH+/hZERjiVzOcrnCJjm8hUQ1aqg+PWvhe8bjz1ABzSeuug6V5j+MloUMX2bR+lcycNU9adRksnrh+EhPbSGmHhpKbsVd69B8iBfED5KjRp0hWZqrk5+WKw+mSlp0PV+f9u9JrRcEg+/HHH+WNN97QJjKDG9KgtdGmaJ33339f12hHky5evEiZ6s9o0x1thUaFhGg6/qY9pudmzZqlz8fU/c9//qPNc7smXnmgLcgQqkiB9qI+H33CzMe9+O9//yvff/+93se9KEZhzwrQPvvZh4ZFa3bt2kXS0tLkySef1CY1teh4TgQJmhEiYTaXjEdQZPPFF1/UxOU5aLs8C5L3TyXgDz/8UN8HwYIZTx0+9iNk0NrczxcICkx36vpxH2oS4vYgfBBctgVrg/tQQRdXBEuFZ0AosXE9AhtBhiA6EAzxqxlaWiuShziKgj2FhQWSnZmmBlOutGipBEKoMl03rpY26gPLUKZnp2591KfCvLRHnBFxsmvnNunR53BpHlcov/34lTLxW0okWl61GxYZpwSL/3PYDBZMWDSibR5iakJoyIAmYeAyYDEtMZO5BlJyHPPb1pD0YYvaj69ul66CLLTxyy+/VKhiDBF+zGmuQ0NSOhpXhPtyT9pBiByoLfqL4KJPkB2rxX4GXBoEhG3i87w8gy9+//13XWSkonEi2qEwJwLSfnaeBVOdeAZEhMi+xOc8iE8hUfvdI2Bwn3h+hCACwxecRwVdBK99De/LFlC4K7gXhvi1AF4PRE+WrIxk9YGKRIY5pWmDMMnPSZc1i6fJ2sW/SaOEftKu22Dp3fcQiWvYTBrHReoPvXfvvrJJaYM5076SFfO+kdbtu0vH/sdLQSGWgyLu9hWSnZ2pB4o/sANi9iACDE7uDWnwo9G0aDJ7IyiG3w5Z0PKcxyClD7sTE3WbvmA/QSm7umx54Fo0JVqZtjF/n376aXn55Ze1u4F/i8A50PNiRkNy+oj/+8477+z3DFgxlL/mOM/L+TZ4F5DJ950cCPSbeIFNehtYJTw7/YWM+OQ28Pc5VvI+vCf28V59zwd8VnZZb18gyKi8y/NwH649EAzxqxler0eSd62TLavmSm52qhTkZ4snN03im7WX6A7HSfPeYyW+3VBxNOkvbQ45S1JzXJJV4JLG3ccqrbRROnXpLmGtR0iDLidI58ETJDSurVjqY8tOTZS1i34qFij+Eb80MGjsjUGI2VpyQ+NgftvaydaMBMNKak9QctCXBQY0vj3++BNPPCFrlbaMUwTu0qWLjB49WvvNxCJ8NWdpsPsPaLO0Z0DbYs1gZldEKJUH3/uVhO/78D2H91aSwAdCeffx3V/WOb4wxD8IyFV++aZlv8vK+V/L3t2bJTyuhfQedLwy5eOVud5AHKHKl3NGiEuZ9oVWiHjV5lL7G7foIB37HCWO8Pjic+PErVyE3RsXyT+/vy/bNi4RT0FgF/QwBQcxGJiYyPjs99xzz76NwN2NN94oDz/8sI6ecx4ah8FGIA0/0xdYAwS3iFhXBGhbfFfM+vvuvVeuuvJK7dsjaLACiNBjiZQHtCl9gliY7L79tzcCezwLwcySVkplgRVS0nIA7CdmwbvhuehXVYDLw3ssSWzuzX4EMFZHRQSKIf5BAAG9rLQ9skZp6Pm/fiSr1q6RjHynGgjlkDbEIVnO1tK44xD9e2FBnuzdskSWzHhH5v74umxavUDycgM/dUoFV1uT47vjK7PP3jA3jznmGB11Puyww7S2xO9m0GFeE8xDQzM4GZC33HqrHHHEEf8KVJUGpsUuv/xyHXxDgHA/zH5WuM2YMUPHCyASloUN+gnhfK0AYgD4vWhbps+Y6vJ9Bjb6xH2YUixJ2NLgUBYL5CrtXJ4Vi4S5dV8QaENQQXruiVCtCnieG264QQtAXxCgZOaEGFGiEprc70Aw8/gHDcokVkTPzUqVlMRtkrhttSQpFyAjebtkpe+RHGWy52WnSV5OmuRkJktmyk5JTtwke7evkW2r58mGv3+RdUumyc4tqyRHtVFY6L/2INCEjwtZWIiDuWsDbYGWZtAyNQT50TQEjSA0QTd8b4JizMkTnMLvJJDFVBxtIxCYj2eRDQMfXxdzH0IS8SeYiHXAfDSfGcE0ZhAgNORhIBNnQGNCXGYZhg4dqufKMdGJA6DJOYb2J8hIn9GoCAb6guYjMMh9eA7GB+3zOyQdP368fh7aItBHP9gPqRAyBBNtF4bnZ7ERQon7QWKEEO+A6UXeFUFD+oNw4F0RBznxxBP17ALnE40nkGrP4zM1yXtnFsAGAoTjTGHyLN98842eleD57NkH3ot9H+6LNcUcP5/TokWLZLrqOxbbgWCIf5CB9i9w52hyp+/dJkk71krilmWyc8Ni2bbuL9m25k/Zooi+Vf3ctm6R7FTm/N7tqyVFnZujXIZCT9X8UVAe8QGaCeKw+ATioIkhMwOWgQyJp0+fLlOnTtVmMgSBiJjoaFcGNQMRC4Dpt9mz5ygSdtWDuTziIyC4FsJCUNoioMd0IdNhtM+afAQOlgaajWfgOPdiNoL70jfGAPdhH/eiTZ6BcxFQzK9PmvSpns7keSFSWcRHYLBuAesHwcLMBcdt4nMcoca1CAb2sfEMuBzc46efftLvqirE53l5R7TLM9AOghVBs279evnoI2VNKmvN7nd5MMSvISAAvIUFek7fnZct+bmZSuOnS67aijR/htqfpVf54RLwTbZAAQ0GYdAMy5Yt04TyBaRiH/PwCAAGEpYAU2MsOGFAfvfdd/vqujNg2Qj6zZ07T5nmv2jyMPWERnU6HTJs2DDdLiSHkHYfuAZXgekoBjvamnZzc/P0fdlHPzHdETS0h4UBaI/rOA4hIDAChAAh16GV7eAdG4CIPBdLbKdO/VZfz1gh+AiBuIbrfac4uRbBwD3oK5qVdmzio4XpGy4J7wEgCHCZEHxoe94dwDLBOuAZCC7yPn3BcdqljwgF7mkTn8/iqaee0n2zwbPTp8+nTNFCvCJmPjBr9YMQmIz2dBfTQAyu0sA7RZsx6LkGAkAuBq09l85AZ8qMVW78/tprr2my0TbkA/bKP7TkQw89rEzr9Zr4aDfOg+i+AxZisCEYOM6Ap4+l9ZXjaGHmsCENxzGtbdBvxgVt8Tz0iXMgri1AAO1AfNpAGJS8D33lPnY/eBdYP7gAWEYsgoL8thkOUEAl74OC4t3z/By3BYINjkN8wHMwjiE9+pl3RGyFd09fUHT0g79ppzJBSkN8gwPC1mKgtOGCcGB+nyW8LFhBY6LJINFhhx0uw4cP00T+4osv9Jd2IFZFYN83UEM00O2VJP6nn36q9wf6PiWJz4pG2q7KfUxU3+CAYGDZW2lAq7HIBreBABzfrMMCYJDiN6OZJk2apF0Ezq0oyrunPwh0e2WhLtzHaHyDgAATlSg50XeCaVgBmJ747EzJ2ctK69PnQpCUqDqBOmIX+P7VAYJ5fD0aN4MAnh1bqQoM8Q0CCgiPWc/nQXAM/xYtX9VFMrURCDt8euIIPGNV5+nLAu0Tf2BME3y0YydVgSG+gUEQwvj4BgZBCEN8A4MghCG+gUEQwhDfwCAIUW+ITzCPqCqroSrytUQDg2BGvSE+UxwQny2AExUGBvUS9crUR+ubaTwDgwPD+PgGBkEIQ3wDgyCEIb4f4KU5QwK30Z76YWBw0FBvluweTPRrEC7d4sIl0ll1ucnrTy/wyp9JuZKYX/U12AYGFYEhvh8YlxAn57ePl4QoqpWWA6XG9Xemy1Ln6tUXei1Zl1kgjyzfKysz6t8XWQxqJwzx/cCxzaPllu6NpW+DiOI9pSPEpd5JOPXYinf4gJduFVqSl2fJkuR8uX7RLtmcXfV8egYGFYHx8f1ASn6h5HoOLC+dLspcOSQsqvQtVB0LcYRIgdL6ORVorzSQ5ILEi3wHnow31QHSUvH1U75vz9dDaxKkrKJwJOm3ST9Vm2D3jRx5ta1vJWE0vh9IiAyVx/o1k6OV5heHU0JadRBH4xbY9cVnFMEV7pTImFB1yv77rbxsKUzcJAVJiZKV7pV5iTlyyZ87JFtZAJUFOe7Hjh2rE15MnjxZ/wz0ykXy2ZF/nqyuZJgliWZNgaQUxx9/vM6hR0LPiia/CHQ6rNKAMCL9OH2jJj7JNGsrjMb3A+kFhUpDe8XLIFIDytlvmLhOu0xcp1+53xZ22tUSfuoNartxvy3s6PPE0bQdLr5uI6/QK7lK6/sDUj6j8SkQYde8CzTQXqTCJvcbablrEqTPJuW2nemnIiBXA0KLhJ8IjuoCKbt5P7wrO2FmbYUhvh/IVyTNVWQthLkUtoiIUiOyjUhztcU1KvqbLVJZBGoLidh/k9Awsaiioy4vUFo+rQAhUtx4JUFqZdIwk0uelNjmewr/BhqYIiDXX3+9Tv5pYIjvF6AWPrnb5lhOppIGuVoIeNctlcLpX+jNM32KuGd88q+t4K8fxZtWlMs+X7WTlOf/MmNKM1Mv/a233tJVZsozZStjDXBuZa0Hzq9IcczqAHGIskC/8L+xXND+FUFZ7fnzXmoj6k1BjYMJhsSgxlHSMz5cIpwOcbRWPn77HsomjpfCBb9J4S+TxLtxhcjW5RKyfZl4NythsGnJvs27Y61YORniVaRPyfTIrL05sii1YoUQSgKTkiozpB0jtzp51lu3bq1dAI4R/MO8pcILFXH4HQKQuLFkHjx8edriWlJGcy7uA22QPRcfltz4+K82IDrBrEMHDtTXcB5/0xbpoO17cG9cEnLwk4fPN48+/eUYwUO+bEWe+LIEGMEzKuJAYPoC7GejbYKQfFGL+xLstKsAUdKKd5SRka73U2sOQUk+O6rrcG+uoVwXFXyowEN7kJz9vAfSabPxjihfRc49vg1q58Aj6SamPn0juShFMWorTHDPDxCru7FrYzmvQ7w0DXeJ8/CR4jzxfAlp01kK5yptrsgPQsMdEqGDe/rPIihT3MpKE8+ujVKQmSvrE/PlyVXJ8tX2jOITKgfSV5PKmiSMFKxksBHsO//88zW5qG3HAGZjQOIKUOFlypQp2kVg4AIGNnECatcx6DkXIUKlG4JU+NYMeq65++679TUMfEhF7bYjRoyQaGVSM5y4B5l1f/vtN11JhgIUp5xyilx00UVaiFCvnrJSJKikuMTZZ5+t/W+y8FKPnxJZZX3ZCv/+6quv1hluKdxBPzsoARWmyAwB2Ucab6raIJQuu+wyfW8IjhbnmdgQGldddZUWgi+88IJ+/m+//VY/IwIP9wDCU7lnwYIFWugNHz5c35d2ES7z58+XTz75RFasUEJegao6l1xyiRZ6PKOvgKxtMBrfD2Do9WsYKX0bhEtsqGJ1VJw4OvSUkKatxNFIDYyeA8XZd6iEDThSIg8dKaF9jxZXn6OKth7DxBHTUGn+5eJRmm2P0vhTd2bK1hz/5vCpCYfGgmykeCb1MoMXzYMmZaCyD/JSXgoCMIgZnNu2bdfEhjwM6gsvvFAfs+vfIzTQjrSH9QBxbI3P75xLzXoGPKQlwk5BDawJNH+PHj3VPbbqaygCwflo1FaqX+vXr9fXQGSKa5KZl5LVEK1kFRtf2BqfZ4O0WAcr1LPZRSZ0+0rzItwQhrTLfgQMQmfduvVKGy/WBT8WL16s2zj55JO1NUD/aI9rsQa4Bu3O83OMGAokp9+cj5VAtRuKYSJ06pLGNz6+H8BEyin06vl3jfQUsfbsECt5t1h5OWKFOIo2LSLwCR0SEhohIfFNJEQJBgSF5S1UG3ECr+zNq56lumhkBuCLL74oDz30kLYImIqj9hrmPBtgbh5TG61O5Viq3aAPHnjgAXnppZf0FJ5dFsoGPjMWAtVzGPzke6eW/r333ivPPvusvm9cXKzOB4/5DaGoNEPNfUjLNCSEYqaA+6M92SpacAOtTVuU7Lrvvvt0vf733ntPkx1SorWxZqjx9/TTT2uBhBWBFcKzcZ2vu4FJT+HPN998U7fFNmfOHF2+C2uA53nmmWf0O6F+HUKD94srgdlf12CI7wegO1F9m/hWfq5YqxeLd9a34p35tXinfy7e3yZL4W+fSsG0j8Q97QMpWPiTWGl71cnK1M/PFm9utiZ+fqElSdW0Rh9f+pdfftHa2/admfuGyGilyMgIrbkhHlNjEAGzFo3OuZi6XIvpbLsENtCe+Na0CykwrbEmiiyJbbooJddDbgQK90HLQ7xUZYFAeEx82kBwcE/WIFQUPBv3ZVYDa4e+I7TQ/PQNbVwZYBVQ+w5C0xYCCO3Oe0DIMGuCZkd4YMHgUvBOsECwquoaDPH9BPP47n0af694EzeLtXu7eDesEM/cn8TzK6T/RPIV6fOnvS+eJcrvz83SPj4zAJr86tc81QbTedUBTFLKLPtO8WGush9gxrNRBIPBy0DmuK+pbfv5vqREO0IuNDe/cz3mMrEFe7OP4Q8TX0AoQBrIhSZFW7IoiP341ggjtGtFgVCBnHZgDdBXBAJtY2VUBrwjyOzbB9qifd4HPr3ve+RvBATvj/vVNRji+4n9pvMUHH2HiOvMq8R5zOniaNEWdhQfUVCmvkTEiETHi1XoEcutTEwlM5jDz1Sk92PBXoXAgIUMvrCDb75g8EJABnlp5GMfRUp8AaEx9xn01Gg/99xz99smTJigyVnyOvZBfExy+oJ5TSCQAGBlwDP4kh7Qnr8ZmLi2LJR3rK7CEN9P5Ci27vPxNRTRWazTtLU42neXkIQuEtJE/d6snfq7rzjbqH3hkUXz/cpCgPhuJTwyqknbVwYQG0JCYshcEggFzHUbNsHQeJAPbU1RzJIbwTr8euq22wIFV4DYAoEz9tlTjZXV0AZVgyG+nyC4t8/UB16laRQZQpS2d44aL6FnXS9hY6+QiNNulMhz7pOwI88uCuoV5GuNz5VofL6LX9PAHcDEx3zH3/cN5EF6ovCtlS/rCwQFvjlCADcAohMUtLfPPvtM++2UzMa1QEMjWPDtmTJEYOBPY5Uw3cbMgK/QwU0oikNEauuiqrC1NrEGA0N8v7Gfj69gJSWKd+tasVL3iOUKlZCOPcUx+Hhx9j9aHE0TxPJ6xLtjnXjX/y2FO9ergVik8Vn3X9OAwATGmNpioQtrzVnggt9PtH/MSSdJlCKgL4gHUBbbJjPXcQ0RcKa1hg0bJo/85z86Ct6yZStNZLT7iSeeqLR+vPzwww/yyiuvaGsAa4Kqs/aCGUDcgH4Q/ffd7w8QOlgXtNG6dSvdPyL/VWmzrsMQ309kl9D43n9mi2fSc1L4xWvinTZFvEvmiHfbOinctEwK/vpJ3D++KXmTHpW8qS+JZ7sSEOpSXIXaoPGZ52fuGn+bdQEsCLruuuv0zyuuuEL78AS6fIGZz2Ie5vohEQRnLfzEiRP1z7vuuktaKUHAlBvtY0WwXp5oO9ewSIdgGvP2CB6+RMN6BNvkZ/XcpZdeqtsZNWpUlQJokJ4AJdoeAXPTTTfJWWedpa2Z8lAffXsbhvh+IreExpcCZb4nbpHCxb+L5/v3peD1+8T9f1dL7ms3Sd7H90v+75+IZ/1fUpi6S7w5WWIpba+akAz+qQIwlQmUQS472IU2xrxmn+1b+4IpKubyITOD2w64YZ4zFYfmR9uyQWoW/zCdRaDOnmfHx2d6izlxgnNoVRbW8JVZBAV94HsEzIuzTNZeBkw0/Msvv9Dz6vQNd4ApRPqCdsffh6AeT6G+F8+AkLFBX9nH8/nOPgD6xDW+/QTc56+/FmqrhuuZYhyshIwd0KQt3gfn+ZKd+3KM9kq+R56P985xu3+cw7Lpkn2ujTBLdv1EmBKZ9/dqKqcnxOnceyzjDSHAV/S/hjNc+akxLOBR2kOHACxRFr8abJa4CyxZlZov/7c6Wabt9n+1I+Y4WproPXPukJoFJaw0YyBCSnx4X6B1MbtZWQYB7SGAP83KN9qD8JCUc9jw/Vm9BwkI5tnAXGYuG1IzhYefDok4DzPeJiCExqS3fXvfKD7X0R+uxQpgnpy+sPqPYCDz/1gJgK++0n9mIuiX7zQj17OgiHeCFeH7fXiHw6meraN+PtrknSDMaMeOLyxcuFAT1wbPzLtAQPDMkNxGu3btpX37dvp56B8xEt4Z7dMmQoZ9tRWG+FXAgIaRcmLrGBnQIEKahjslyuXQX9qJVFLApcjuClM/FfkL3Jbk5nslV5GdhT/ZSsvvyC2U6YlZ8t1OpX1Nkk2DgwxD/AAgVhG+XXSozrzL1iM2TP3tkrhQp56j52u3G7PdsiojX1ZnumW92rarv5U8MDCoERjiVxMSIl3Sv2GUzq6zKDVXUtw1H703MLBhiG9gEIQwUX0DgyCEIb6BQRDCEN/AIAhhiG9gEIQwxDcwCEIY4hsYBCEM8Q0MghCG+AYGQQhDfAODIIQhvoFBEMIQ38AgCGGIb2AQhDBf0vEDQxtHSZvo8tM2VQZ8P39paq5sy/WvjJaBQWVhiO8HxiXEycQODaRtdGjxnnJgp+MpA171+tdmFMh9S/fI6sz9q9caGFQXDPH9wOjmMXJL98bSq0H5tdYdSi64InxycZWALqGVY8mS5Hy5YVGiTtZRWVDVlTRb5LwjFdXBzPVGAk2SZJJiyq4YG0iQyorMvaQAo4hlybx3NQlSdZFyjBTgJCktmd6stsP4+H4g2V2os+weCBTQIf1WmCJ/yS1UbRwjZx2JdivSXmkgJ9wtt9yis+IezBpu5MSjVNZtt92mi1aSZy7QIP8+hT7PO++8WleYkrTj1157rc4CjPCrazDE9wNk0yF33j40bSOOrgPE2W3gfltot8PVNlhtQ/bfOh4qzsYM5BChlQKlrcnT7w/QOOSyJwlldZCvLJAJlxLU3JuNfgQatE+CT3LsV/TZeA8ICsp4kayzuoDg414kEMXqqmswxPcDKW6PJqr2kSJixDl8jLguvF2cF92x3+a68B4Jv+BBibjg4f220BMvE0d8M2XrF+Vud6vNX+LXFEhtTbHL5557Tp544gmdbro2ACFx6qmn6hz+vXv3Kd5rUBKG+H6A0tbUzvOQV9+dKyFh4RLSuKWENG31r82BNVBya6BI73RpweEpFElXFkR1Z+SjIEVlSlHhgpR3PjEFfHvIT1EM/i4PgSxdVV4FHJ6TunxsaOWKoKznZH99Lbllgnt+IMwRIg/1bqqj+5Euh7hGny3O0RO0U1+4bL5YW9cUnRfukojoMHE49x883sxk8axbJAV7E2V3kkcmb0mXh5bvX1W2ohg8eLDcfffdWgPfe++9Ok++DQb/SSedpH1QcsnzUZPv/ueff9aVbEoWpMCcptgEvjs+NedTb/7777/Xv2NCU3DjjTfe0IE2imRceOGF+pynn366uBWRZ555RpOGfccee6wusEGRDopZUCabCjzk/z8QLr/8crnooot0X3/88Uddw59SXbgVCJ2ZM2fqjXZxN0444QR9P+IegHPoLzn2H3/8cR2Qo8oPz/b222/rZx0wYIB2KcinT/EP3h8m/AUXXCBdu3bVxKcdin9SbciuxkvZsEsuuUS7Iq+++qp89dVXen9dgfNBSqEECA8//rRYbv+LQ9QVKN7L4MZR0iMuXOfRd7TrJo6OvURi4sW7ZLYUzvpWrO3rRRLXi2PvWrF2rhHvDp9t9yaxcjPEq8z71EyPzNqbIwtT/IvGE1k+4ogjdGEHCkRQxQXg30JUatUxgCEGg5TzKToBCRjQNgEpGkHlHIiGoKDIBQUlqFsHkSgUwXEIPWvWLF3AA+KPHz9ek/qLL77Q7QACXlxHOSyISLEMAo9E6Hv06KFnAyiaQbS+PEBy7gHZID3PSbs8B+RlHwKJYhv0gfJY9B0BBmG5D88NsEwQGJdddtm+4h/Dhw+X9u3b637xN4IAAXnGGWfo2n/so9/ci+enoAbvjP5wHUKD+1KIg8IldQnG1PcD2EhUyy0otpW8acliZaUrlcmiHrUzV5FJb5mK4GwZ+22SrwY81XXVqbgNSfmBNfTR9GeeeaaMHj1a+7zfffedtgqQ8X///bcmD8cpWQUZIAmDGC1HxRs05PPPP69nC9CMdkktCGW7DJjb9u8IDV/zm32cO3ToUF0c884775QbbrhBl7FCm9IvBFNFA4IQHHJiqdx6663y5JNP6ulDKuoQ+afOHuWsPvnkE3n22We1MGPDuuB8LBBcEfpIv+gfJP/999/ljjvu0DMTkJr2qKnHu/j444/3XUvdPYQFQot3UR9giO8H8Gb3q4+fmaZ2FGlOx9ATJPSmZ/UWduOLEnnDGxJ1w1v7tshrX5XwMddKSGxTNRhF19/bkxdY4jNwe/XqpQc4mhhC4IfPmDFDE5k6eWhjNCqaDEEB4dHsmMacD2nmz5+vf3700UeSnpFRrm9dGhAyCB1MderjffrpJD3nbUfDIWHFEKLLcU2ZMkWX3f7ll190v9C+aGQsClwPym8hELB+2LZt2661cWlrDP7++x/9nDwj7+Pzzz/X9ft4L9wHgcWxn376aV99f6wl3IL6AEN8f4BSR+MXE9/KQpMXma2OZm3E0etwvTl7DhJXzyFqG/q/reth6pz2RMd0OxA/kBof7Y1GZ4CyoIdBjQ+Oac7iHurJ2TXrMYMhIFoMMkJsfFxISm07TFp8X4j766+/Ft+h4sAlsE1jTHLapq4e9yHwhmCqCNC4kI+faG5cBNpiw9rAPLfBfWzwu72VxNKlS3R79M2uf0esAPJzL56be1H7j2fgGNYTLlJ9gCG+H0Dj71ctV2l7799/SOEPH5bY3peCH94St9oK5n0r3uRdjMaiyrputSmrwa22vXmBq52H+Y3WghAUlMQE9o24IwBYBUeQD/JFK9KHqnM5H63Gft/CkQAhsEERw7edigC/l/vZQPAw7QcREVAVtSASE3dpS8T3/rRDP2mjogLEF6y08xUItnCC4PTT9172scrOjNRmGOL7iRzP/0x9K1sNouREkZQ9Its3iXfh71I47XMpmDFZl8fO//0j8Sz/Q7HOrTW9Jr07l18lT/2T6g4c8SGU0+nSPxnAaLOSgOAQkkHsYiCrQW2TkX38LAkIVlGi2rBJboPfff+uKOgvhPQF7UBIf1FZIVbfYIjvJ3Rwz9b4HkXohE7iGD5GpPsA9VZDxEpPUtve4m2PWHmZRL3UiFNEVKS3MDHV9VkIkMpzoUxA9NzcHP2zLNMUNwDzHkLl5eXrc/kdnxvTnzXyvuBv4gaVJb5B7YUhvp+A+PtMfYWQqFgJaaH8+449JKR9D8WuhkUHHE4JadRanG17iUTHK02fL1ZW0Rc68hXpM1ioH0CgBTGB0ZBM4zEVhYlqA/OegJ795Rd8WvxY/F0EAEFBIuWQHaITPBszZoye3qpOIKB8+1lV0PfIyPrhj1cHDPH9BKa+L/H19JwyH0OatBTnkaeIa/z1Enr6tRIx7jaJmHCPhA46WUIiopVKVj5vXpYyVZXiV/59RkFgI/qYwATwCKIRvGNOmmk7It/M359++ul6bh2iMf+9desWTf6//vpLR/6J8LOA5/bbb9fz8UxpsTCGGIA/ZnpFwIzClVdeqafW7GlDf4Hw4nl4PqbfmKJr1apV8VEDG4b4foJv0/kS39qxSaxNq7QACEnoLM6BR4vryNMldPhpEtr3KAlpliBW2m7xrFkghXu26uW6BYr46QHW+IAINdNoBMT4Fhmr6/gmGRvz1FgBixcv1pF65uzxd7mG1WesqsMNQFig6SEl0fPffvut2vxiFt0cf/zxeuN+VZkrJxDJFB7Cg7l6nnnChAnGTSkBQ3w/sV9UX8G7fql4vntPPF+8JoW/Thbv2iUiWeniTdohnkW/ivv71yVv8hPinvGReLYhIFinX3VTnwAac+O+31dnKS6LU1iEAsEx79F8HZWJzznM50+aNEmWLFmiNSQg2LdmzRo9Z/9///d/eiHMyy+/rH//8MMPZenSpfo8yG9vkAyrgfv7WgOsymM/bfruxw1haozpRdwLOzi3ZctWPQfPNfbUGcBl4Vysl5LBPdpmxgLh5jsLQbSeuXeen3sw945bA/G5H33lPvTdt2+8R2ZB2AiK+h6jHXvpr90PO0cA+7Ew6hrMWn0/0SjMIY/3bS4ntS6xoMMVJiGxDSSkcQsJU/5xBIvT0naKN3VXUfRfvW0UpyfPko178uWFtSnyyZb0omv9AFN3LLxhUK9atWq/ZbBoTpJ04Kfz1VHIyoo2Bqs9wAHaETcADQlx7HlsovsMdJbunn/++TJu3DglAJYp8/8WTRQCgcQRaIe5fxsshWV2gPUC9j0A+zif+AHCwY4r8AzEHVjJh+UB0QHrEVi1xzJkBIDv+n7OxXKhb7QDmW1g5nMthOfZIC79I4bAEmDeBVYM19mw3yNgGtJXMHAflu/yzKyNgOise6Bv3It9CIW6BEN8PxHBF3X6NJPTEmIlXP3uLMWUdEU6JSzWqV5yoc62w7x9oXLxUXQFBZasSc2X/1udLD/t+t+Arg7oaTs16PmoS2phwHHIypJdrAOsBIiCdmRxDIE9ltmy9p0VbVgD1WX2Bxo8m21ZGPwPhvh+Apof2zxGDm8SKW0iXdIhOlTn4IsNde7znxwuNfDCiwSCXqyjyJ6UWygbMwtkc5Zb1mS45bfdWbIpu+aTbKIh+R47gT+m+9DILOaB7GhjwDfhiAPwLTWDug1D/Cog0hmiid4kzCmtFPnbKeJ3iQ2XbrFhkhAVKjGhIeJVlkBKfqFsgujp+bJB/dyW45GdeR5JcxfqqL4nYJ+A/8AiwJwl0DZw4EAdCY+KilauQ5YWAqx3Z+06Zm0Ah4xBDcEQP4BQPJdmES7pFBMm7ZUQaBruUqS2ZGeuRzZmKS2f7dZpu2ozbdDwBMSaN2+hzf6cnKIgFma/r79uULdhiF9NQAhEuRw6mMfUn7L0DQxqDcx0XjWBZbjM0Wd4DOkNah8M8Q0MghCG+AYGQQhDfAODIIQhvoFBEMIQ38AgCGGIb2AQhDDENzAIQhjiGxgEIQzxDQyCEGbJrh+IcoZIWCmZaP0FdXdJ7BHIpJsGBuXBEN8PHNowUnrEUzfv39/BrzTU208rKJS5e3P0N/YMDA4GDPH9wLg2cXJZ54b6G3jlQsmFEG0YlCUgyA1vyZr0Arlr6W5ZlbF/eikDg+qC8fH9QKq7ULxKXka7HOVuMeEOiY91SsP4f28N1BYf45ToMKcWDqTrri8gjRXpvvhJrjtSeFHhljRZvim0SfhBCisy+AYa3JP7k+aLLDy1CbwT0n/RN776XBMwxPcDyYr4Ocon3wenGsyh4f/anOpDDYuNkrA49dN3i42QMGUtuCKUJaA+AQpr7NdeHQVpuijEedppp+ly25StJjce5Ca779lnn62/6w8p2Y488ki9n32BBkLllFNO0Rv3r00g58HgwYN1qnNyANYEDPH9gCa+z3dtQ1q0E2evQeLsPWT/rddQCe11hNpG7Lc5Ow8UR1xT7d+TqJeKPOTpr8tAi5G2i/Lal19+uYwYMUKXwibZJQk2KdIBySk3jTAgSeVJJ50kF198sa41H2igTekHwoa0YhUFiTXJSIywqC5Lgb7x7Oedd54WfjUBQ3w/kOb2aNPcDo84Bxwprgk3iuvcm/fbws69TSLOuUsX1PDdwo+/RBxNEnSSDtrIV8TPq+OmPiQhCy+k3rBhg07T/eOPP+qsPWS5JUsumW3JmFubk19iqdx7770ycuTIKuX3r+0wxPcD+YqjevoNdQ3ClGkf00DZl/FiKQ1nWQgFtXnZKBRZ/HfxJoUesai3h7ZXmp6YQaCpUNkCEpxf3jUHao/jaEvw6aefyuTJk3WabrL6Utnnueeek0ceeURn8LXz/9cEDvQcWAek2cb9qGrs4UD3qkkY4vsB6J6rTH3y6WlkpolQFDMvV7xL5op36rt6K/zubSn47rV/b398Lt7knfpStP2ePP9pj19N7nwSZaKh+ImJTQ08TGwCaiUHMGWy7Gs4zmCn3BTZdG0thw9O25jhtNe7dx9lAnfVhMBMt4Gm5xzMY7Q9gNi0Rd592mE/+7BuKmI+2/emX7gGbHZ7/pTX4p4EF6kdQFv0lZz7vn2h3Bj3sJ+NwCDviD6wjz7RBqXIeGf0hd95b7xnridwybvmPIQH9+KenOsb1KwNMNN5fsClBPldPZvI+Lbx0iDMqWvlOY8/V0KathbP128qwr9XdF5EiITHOKib+S/w1j35lmzZky+vr0uTNzbsX5O+oqDO3SWXXKILOkyfPl2XvrL9aMxs9lFOi5TYFIQABN/IoU/VGpJo9u7dW2trilm8/fbbMnfuXJ1ll7YIjtmVaCDv2rVrdRUe8u5jwkOQN954Q59jR6i5L8OK+1KNh8IT99xzjx78TzzxhCxbtkwThCo9ZPSlZh79BJzDvYkXULMP4nFviljQr2+++Wa/ZykLkBZ3g6pCb731li7NNXToUN1HrBBqBfKsVA/ib2r3kV6cCsOQHHeEYh+8kyeffFK/p6uvvlrXGJg3b54WQPQdwnOPadOm6ZoDtI//Tp0CPgOKgNBv+oKrQz0C3scNN9ygA6FU/eGdHGwYje8HkJQk0NxXHx+Nn11cFEOZ/CEt1WBla9FeHC06qK3j/7bmHSSkQXP15ilwUVQ4syoan4GGRkLzEMyCwGTFxaeGqATV2I8wsE1PBiTTSVTOIfKOBcDAZoNQaHUEw8SJEzWxqbqD3051HTTZLbfcouvRQV4GMvcjBTdkZ6NCjV0mi+OQhPsRaecnxCoLkIL7cn8CbFT9IaU3FX0QRNddd50MGjy43DZ8wf1OO+10OeSQQ3S/IDLPCDHvvvvufYKFCkLcyxZaVNLxrTiEdcC7xhIZNWqUTkMO4XluBARkf+CBB+Smm27ShLbfCW0T6CTIyLW1BYb4fgDC5irffB/xszPEyisqXeUaeaaEPfKJ3iIenizRD30rMQ99t2+LvvcLiTj7HgmJb76P+Hvzq+7hQ/4MpRVfffVVufTSS3WQ6oMPPtDlqCicedhhh2kSlwSEfuGFF/T5VMclfz4VaxnIDHi0GJoOIj744IO6TBcDmOMIEwhy4403arLa1XXuvPNOXXLrtddeO6Bm9gXkop/U4kcLT5kyRa666iod/X766ac1aTGvIRKauSLAgoiLi5XXX39dCyva4h2hiTHDmVZDgBGXuOyyy/Zp5Z9//lmuv/56Heijrp8NiAzRKSzCe+E5qVFIe1gqtMV7530hpLBQbCumon0+GDDE9wPQnem8fcG9lCSxUnYrAZBZYlMCwd5ys8Uq9BQVzitQ/i518tX1tJGUX/WluhBs0ief6GKRmMXU0Pv666915Vg0P1FqBIAv0PCcg7lp19xr376D1oYMfopqvvvuu9olgIgE6wjSoQVtiyGQQHjhf+NDY05TzZfCmBCNOnyY0/SrnbIK7Oo+BwLPTnDx+++/13+jzSEtRUBpi4VGFbUeANfTF1wTKg1hiSAsEaDciz5/8cUX+nfcL+6DcLRjFrUFhvh+ALrnegqlAJXN34WKyMv/FO8PH4r3+w+KgnvfvC3eb9+Ugm9fEfc3L4tn9pdKOOxi5BSR3q1MSqXoqbi7NwDExwzHX/UtmsmAg7wQF43D/LEvUpV5y+C1NTVggLZs2Uqb6Wh3jtvA76UtNC/uAhozkCAIZs+f8xwIAjQ8GwQNUQTNV4TidwKOFQHEhKgILl/wDJAYDW27QBUB7wph5FvAE5LTPgKX6Ur+tsHv9IH7sHCntsAQ30+g8feVyUbbJ24TSU8W785NUrhwunimTxH3jM8k//ePJX/mh1KwfKYaBflICTUas5RrkKmX/eaqgUQpraoCsxyy+JIYYLpCXrSabxQbFCpNijb1hcPBEtsQLTTw00uC9vFtaY/YQCBBoIw4AG2zqu3NN9/UJbrt7YrLL5e44uMInoqA5yvtOSCjP0BYIAD5WRrK2F3rYIjvJ/YjvkLIoGPFefE94jxugoQ0Zz7bR4uwGD88Qtmy0XrAWF5FdHVpgWojo8CiVH6VARnYSoLpObQN9y0pFEqD7p/a7IBcSaAdOcY5JbVoVUF7kIp+UvaaaPicOXP2bawBwN3AncGSMfAfhvh+grX1vsSXHGX65WWLI66hOBK6SkiTVorskSJRcRLSorM42/aRkMgY5SMoUzx5lyKOMgA8EL/q2h5AcHxj33luSMp8PlNtaLiKEBUNybloc/ztksIETcsxzgt0TXii7rgsCJVZs2bpBT+33Xbbvo0pMAKJxBkWLVpUfFURKmOuGxji+43sksRXWoqVetKyvTjPukbC7n5NIm96WWJufV9i7/tcwk+8VCRSaXyl7fWmLikifiD0vWjSEw23v41GJJlgkj3XjP+/ffuO4rPLBm4B5yJImPtGcNCWPZ1FUI028V05L5BgSi05OVkLKHvxi31vfjKF9vjjj+tpM/oAEEwIokCstAO2xUOsg/ZKukf1BYb4foKVe/ui+grWrs1ibVolVla6GjhKCLCEt2NvkVadxFLayPIUiJW0XbwrZotny8p9pj719QKF8ePH6zn7M844Q38hhukoCETQicj98uXLis8sG8w9E7FGm6Pxb731Vjn33HP14hbaZiEOZOA4pncggaXB4h5mDZgLZ4qRZzr55JP1IqUrrrhCTzVCTM4BrF945pln9AIZpt6qOleO4MOaQYgSZ2AhUYMGtWcaLlAwxPcTJTW+95/ZUvDK3VLw5LVS+NEzYq39RyyCQOl7xDPvO8l57WbJemSc5Ex5Qjyblyitr4ivrg8U8TGR0Zgs2Ln55pu1Wcy0HH76jBkztGlsR5shDn60rd18wf6///5bz0UTxCN6znw1pjYCAO2K/83iFxap2LDbLK3d0o7Zm73PBkIHM597o+ERXqwv4Ft8kJzFPJzDVCQgGIi2RxixToG/gd12yfZt+N7b9/hvv/2m3yUzDMz5I3xat26177zSrjnQsZL77d/L6tvBgPNBVmUECA8//rRY7v9NJ9VnuJQWP6Z5tHSN84kuE7TLShNr6xrxzv1RrFmTRf78UjyLvhNr72aRQr6Yo4iu/i9U7nZydqHM2psjy9P9z7zDcltWpaGpWIgDMZhqYsqJpa1ffvmlnre2iQIiIiIVsfJk9epV2lwngu8LBATkZv6b9QGY3ywEoj3m0lkAY2tcG/jYLFBZvXq1DsQxy2ADMx2TnIUwBOVsP57pLSwHls9yD0BwDyHFvekXwgzfn3uzmAiB5Ovf0z+mGHl+gn5YDLSNIGA6kP4gyJie9AXHuJb+0C/uC3guVuwxLbdjx059X87hnRLf4L1yDywjW5DyfNyTfi5btnQ/gWjHXJg+5Jl4j/SNjd9pizUABxtmrb6fCFMD/elDmsvpCWWblr5r9ZVwV7xX7kG+kvTqJ299U6ZbHluVLD/uzCy+ovLAFEYbMvDxfRnEofimimiYrGylfcQhOifY/tqpNDBAbT+btvC/y7rGDgSiyUrCDr75Xss+ttLOB/a9abf8ZynK8lNSgx6oP2ycX7JN+xj3t2cZfPeXdQ0ouR+Udqy8tg4GjKnvJ9zqw3p9Q6o8siJJvt2eJSuV1sZs9/0IvR5L3DleyUn1SnZSoWSmFsqudI8sSMqTTzany7NrUtTvFV/SWhEwiNzKV8ZULo+kRV8RPvCAY+Dje6Md0XDlXQNByiIx15W8lr/LOh/Y9z7ws5Q+t36g/nCstDbtY9zT9/oDXVPaflDaMf4uq62DAaPxqwCkJol2w50OiXU5pEWkSw5tFCmjWkRL3wYRel+her178wplfnKuzNidLcsy8iU1XwmBgqKVf4VVfPslNX5NmI0GdQ+G+AECxhybyxEioeqX5hGh0iUmTFsGazLcklqgTFVvEdHL1nGVB98FJ9KNL/zHH3/8y5c1MCgNhvjVBC0E1D+8XMgesJdcAvixBJAwG8vygQ0MSsL4+NUE6EdlHOXmVxvpAYS3V+UZ0htUFIb4BgZBCEN8A4MghCG+gUEQwhDfwCAIYYhvYBCEMMQ3MAhCGOIbGAQhDPENDIIQhvgGBkEIQ3wDgyCEWavvBzrFhEnDsMAVQXR7vbI9xy0p7kB+fcfAoGwY4vuBk1vFymltYqV5ZNXJT/auzdlueXFtiqzNrLny0QbBBUN8P3BSqxi5sWtj6R5fflEHEsA4wsi0UryjBCih5XZbsiwlX25cnCjrswzxDQ4OjI/vB1LyCyW30LvvO/hlbQ5lEIRFhkh49L+3MLWFqmMhzhD9LT7y9NdVkL+OTLgUoLTTXdU1kDqc3IVk97UTdtYWkOabnAsUFOVdBwKG+H4gWfniOYr4+0Bp7GYJamu73+Zs0U5cLTqoreN+m7NZO3HGNpQQBznXyLZbor06BHLiUTP+wgsv1DXmS6vIW1EgNOz8dAcblOcmqy7PQalx8u1VBHbuvOoEdQ+pRkw1X2oLBuJ+hvh+IDnfozT0/zwkR7+h4jrjSnGdefV+W+gZ10n4GTer7Zb9trBjzhNHo9b6i/pFxC9K110XwSBkMEIcCmD4q/Ep3kHufOoBtG6t3s1BBvn4qSPARjGRijwHxTupYUAqc7vAR3UAC4RMS6Q6R+Mb4tcQMMvR0KTSAo6W7cXRW5m5fYaU2IaJq88R/9qcnfpJCHX01LW0kakr7+qm6hzI+kM12rfeekvXwy+ZqruiQHAcffTR2nqg8k9dANYNuf/HjBmjBUZdgiG+HyADu66Pb8dFqYdXkC/izhXvhmXi/fOX4u0n8fz5vdp+2G8rXDZbvBl7tcZ3q3aS8wNTP8+GnQ67NHCMraJA85Vn9hIbphrt5MmTda19O9d8SdBGee1wjLz1aLQD9Y9zfWsEVgQ8hz/+MX0pS8PSJv438YGK9qcsS4J7lPd+Ag0T1fcDoco3v7dXEzkrIU5iQ53iOnacOEefo3z9OPFM+1ysuT/q81zhIRIe4xIHqXh9oYREYUayeLJzZfset7y3MV2eW1NUUKKywEQeOnSo1rRk2kVzUkePslnfffedJiXVbyi8QR08zHIGH+myKaFNGSwKQfgOA0zLfv36Sf/+/fXvHKPABJVquc8JJ5ygC2FMmjRJt9WhQwc55ZRTdKJPylnb5KeKDyYwZbzQjpxLqmyKSyxcuFAXwmjfvr3W8gQGqZRDIQ6KTFCUYvbs2fuKZ2B+0w79wiKwn4HCHxTk4HzSkLGfyjpUFAIUsaBd3glAOJVW84/A2X333acJ/PLLL+tiHxQbhdT0iUIl3Id3xX1Gjx4tRx55pPTp00eaN2+u+7xq1Srdn3nz5uk2hwwZot83+wD9pz3KmVOog/ao2MPnx70gP4U7li5dqhOnch/APSgUSt/w9emLfcxfBG4VShABImDu29WvrOwMsfKyJaRxc6XC88SbWFSP3RsRIt5sJeFLE+TwDI2vTP29efvXqK8MMDGJqNMnMu0yCCErxFywYIH+ecwxx8iJJ56ofXDbRyQPPdV1KKz5448/6kIcAF+X0lv4rrSNFuZcBr9dsYd6cmvXrt1H/ISEtjJu3Dh97LPPPttHfPoFQRAMwNb6kKdjx47aSqC/Rx11lPZfGdgQDkEAOegfxIf09Gns2LH6PAQKz8vG8/EM33zzjSYE/aFN7k1bpBvn/rwThA5kK6/YJ+/npJNO0gE1BCYaHZIhpGj322+/1fdEAI0YMUIf554IF/xwSnsjbCA4771bt276eXnnCGXOJz8i/eJ8Aom8V94774Z3R90+nvn7778v7lXgYYjvB+Csb9FMKyOtqEy2Ar6+RBdV1wkNU+ZrTLjS+D7mXaFHCYZNUvD3dPHmpWpTf08VTH3bdEejQtCZM2fq8k6UqaIU1BFHHKELXjL4GZCUk4IAaH8GGAIBUlPOiUGHduF8SI8wQHuh5Qlk4c9CPO7HALbB3wxa38ATpIOoEBzthYYnHoDWg9gIBNqmr59++qkmEVNWEB5Nz73pL+0yxYZgQXBBGGIKaHsq99In2qLvb775pr43RKR/kAehwDOvWLFCt42VUx4gLM9OGTCEG6BfvBesCMppQWTq9/HeEEgQGsIjaBFWCAb6Sh8gNIIDawkBS5/Q8AgEtDxt0BZWAecSL0CI8LyUDEO4VQcM8f0AnwVRfbtoppWZJlZOZtHcfec+egMu9cGHKQIweG1Y+bniWTZTCpbN0Qn2IX5SAHx8iPDzzz/rwUL9N0iGSUzAjEHIoJwyZYoegJCEfQgAtDcCAE3IoEUgoIkYiGhvSAthMFl3794jF188sfiO5QPCISwQCvQJYnBf7oP7Qd/sunjcFy2OUKCGHsLLNvEx0THDIQqmNEIC4pNZGG1J30477TTtKtBXauXZgFQQGMsCgYGmPRAQXLTDfbgG4mEhELlHIGCa80z0j/fHe8S1wNTn/ZYGhNvHH3+sBdn/t3duv1FVURhfnenFTmkkLTQiqGjkyUtM1ESJDz7UUI0JhlAJISViGtDQP8L4Ykz03T400qShDxBirDzYi4XGaKMoIBcVIYEWSCCUXrCX6cyZcf12Z+Gxqe10po2ts7/kpJ0z5+yz9zn7W+tba+32ME7GyItNMY7s432AGAu+4x41NTW5NnkXISHWcsAn93IACn9G6messXr71JULkjrdN2s7KYF69uTpHgkunZLUvWFlPmyPS3p6cmblXp5S34CHZ5IzySA9IH5GsjKZIQ0Ew6tAOnIAxNrE5XzmOL7jp012yErMyWdeFgkhiD+zQfiVW3hlvDZlOtQDEpZcAAZgoViVviGxOY6xoWKQ7eynfTw418IwIb/DwCgwBoxBNqQHtIkSoW/cR1QUXp4wBiWBIYKw2YL2MKIoDtrivtMf+ozhINaH9ABDxbU5DuMC8ZcLnvg5gnLefak/PirpK+dFzn4nqR97Jeg5KkHHIUkcb5H48WbdPpPED18Jb9LVGaykn3Ken5frxvUz6wLyBZMIkoaJVFVV5bwIxCfJxiufecc8W2Nj4/3XaBNbI3GZ0IQMkARPwyQNY2Rk2MnmbABJkez0CflKjZ5rskgGqc91meALIZzpJ8zg/PAYUCz0n+MgvwGDwzgW+2Yh7iPGKdw32jEjhlTnWtkirufRBzPGwPrGZm8JNnAcz5BnFlaKSw1P/BzhYnx9gA5T48qyGpFnNL7fsNlJ/xSvyh74TYLBi7qpGrh7U++2Pkj3YnwlfnLavVePkGHKlEMeYDLNBhPHJhDxJHI5vOFR8OR4JCYnbdiEx7txbhh8Dsf284HJS6jQ0tLiwgyMEIQnf4AB2rt3r1MkXGch2BggNnI7PAY8MPkJZDlhQxiMZ677Mh8Y/0IqZPZ9mQ9cf772Ftu/pYInfo6gjm8xPiiq2SgRJX7kqRel6OHH1VXFMl/oLY6tlaLqTSLlaySdUM8xMaZPfCa+H9WQYbkePdIRD8LW19fnFtmEN0jJRgxMKICHx9Pj0ZDXYQ8KQYnZKVFlC0IJYlu71uHD7S4cIaSoq6tzhoDM+XwIVFlBRmJ61EZra+uc42hra5P+/v7MWR4LwRM/RyD1w8SXpMaQukXWb5Doy9skWvu2FG99U0pe2SlldY1S8sLrUhSrVG8/rcHnmFp6Jb56+zGrCS4DqG0jW/FQEIc4kwwyW29vryM7RgEpDbEh/vXrN3Rf4BJttbWvOY+KvCVzTfYcL5sNOI4sOIk5ymzE9e3th+XzQ4dcGIB0Z23B7DgWRcF3homJcdcvxoAMJxkWHgNJNSRzuKKwEAhpGBchQj4wRWGKZDFK4L+GJ36OILkXJn56ZEjSQ7fU05dL5NmtUvxGg5S89b48sL1Jyra9K9Etz2vANyGU8lKjt52Xh/i8U3+5QIIKohBns9iERTZWmiILTq2eP6whBreE39mzZ9yiHrx7ff1OaWhokD179jhpXltb62R1NkCS80cl+/fvd/VsSI7x2KDtGuHI6mOQgMW2ENIWD9EnkmrIeEhPvZv6PMaEMTAWQocDB96THTt2ZJUMo00bDyXEfOJo+kTsTxtk9ynTUb4kX7LS4YmfI8ZnSf305V8k6D4iQd+Xkjr3vaRHh1w9P62eNBj4VRKnvpZ4V6skTrZL8toFJ/UT2sZYIv9S3r8Bqd/T0+NibEgB8SGjbdTw8bAoAbLlkI+M89GjR5xsxtNTKtu9e7fLzGNEOjs7M62H8fd9MFAVIHNNeRCSkdzjPf5cl1IVYQDhhyW3iM8JM+gnKwM5nlWJGCPCAxKFhAUQnTZI7PGTzxUVMef5MRDzAVVDmXHfvn2ya9cuZ/hy8foWl9N3+g35MUYYORb/YDRNDaxURD9QZH7PGx9+9Imkp8czn/7fYNnuqzUx2VKZyfCS2R+8JKnL5yU98Iek79yUyOgtiQyck+DnTkn0d0hw7hsJbl+V1MQ9CTQyuPtnUr69MylnR6Zm2sgB1JXJxFOqg+AQJQwmJ3IfIKEphdmiEsje3d3tyIxnBeyHgMhxSoSQCWNAmamrq8sdw9oA2j127JiTt1wfMrN+AEOD9KYNvDlks8QcpMa4sDiHpbPU9DEOgH6bXGaDkBgPynVci439NgbLDUA86v6sqLNj+J7+sNqOe8J+AzIfr8w+DB59IIdgpUz2Y/RIeoaJy2Ih2ibPgNHCqFqmn/20Qf9JktJnvkO9WHgSXl9AH0hscs9pj3ttIGQhTKLEd+LECffsMMAswOJ4wpvZzzgX+LX6OSIWjcjHz9XI9o2V7sHPFd0VV5RKWWWx3uS4q9mT0KeEF6jEDzTUv3I3Lp/+PiRfXM/9QTK5mLCQjViaiTYbTEi8EHV0yMdn5D+y3fIAAO/PBCe+h/TUr+07CEtl4ODBg066M5nxuIwd4nMex+B5rTLAdSAZ35PVBxADUmEkIE8YTHDGghzHYDAeDBqgLcZqC1swDBgNa4uwARjxIQpTmzbCRKEdlAQJTAiKgeI4zrEqA4bJ1i8YGAfXhZAYFMYK7N6SDEXiMz5CLM7lfrMPwto4AKVMQgP6yn7GYID4qCTOJwfD88RQsKiK4y/qvqk5nvFi4YmfI4gM33lirdQ+VCHVpcVSVRaVtSURKVODYEYgUqrKoJyymBJeyZ5MpOXeVEqGJgP3X3x+G4tL29VROZOHx19KMCFJ4CFZIWVHR4ebfJCACQxhkMkQCY/d3NycOdNjtcETPw9Ul0ZlU6xEHtHt0VixPKYefvOaEtmsP9erISiN8q+1NApIpOSGynr+qebV8YRc021At8FJ3fTnUtTxlwp4tvr6eifn8T54JLwiHpH4GGXBmnPKdNkm+jxWHjzxlxDlSvQnK0vlpeqYPP1gmaxT8vOPNgYnknJ6eEp+Gp7U3xMSrByezwnWwJPpx8MjM5GzEB7ZT9zNwpywPPVYffDEXyZUFEdknYYArM67HU/+s+a/CoDst3ib2J94mviWzeJbj9ULT3wPjwKEr+N7eBQgPPE9PAoQnvgeHgUIT3wPjwKEJ76HRwHCE9/DowDhie/hUYDwxPfwKDiI/AUdM83wl9+3dAAAAABJRU5ErkJggg==;" vertex="1" parent="1">
          <mxGeometry x="9.004132008272052" y="1114.0046484375" width="254" height="583" as="geometry" />
        </mxCell>
        <mxCell id="XTNJF4i909FQv-qMsK3W-48" value="" style="shape=image;verticalLabelPosition=bottom;labelBackgroundColor=default;verticalAlign=top;aspect=fixed;imageAspect=0;image=data:image/png,iVBORw0KGgoAAAANSUhEUgAAAQcAAAEVCAYAAADttSA3AAAAAXNSR0IArs4c6QAAAARnQU1BAACxjwv8YQUAAAAJcEhZcwAAEnQAABJ0Ad5mH3gAADmgSURBVHhe7d0HXBTn1gbwx2VZcQkQMSJKU0DFhqLYxYpiwV4h9oY9avTGEjUmUWOJxq6IJViILbEltlixYkE0KvYWpSgaRakL587CoAvM0gRZ8fy/3+Z+vszslJ15duad2TmFSADGGEtDJv4vY4ylwuHAGJPE4cAYk8ThwBiTxOHAGJPE4cAYk8ThwBiTxOHAGJPEN0FpFY2Ih4/xLEYPxmalUPLzwmI7Y5+GTI4couH/oyvKWVvDyspK42UGY71CKKRnDLNU7cLLujSq9luH2/HiW+SFyMP4rlkNdFp0EbFiU26Jvn8IS8d2Rl1bc5iXKQuH8rawtLCDU9sRWLD3Fl6Lw+m0pPXjjB7Lr+T6+vkg8vDz/RRFn5kL9+pumOEfJbZkTSbhIId5pcZwa9UKrTRfbvVgZySMKreCs1uav7Vqiea17GCiL75FHkiIvIcr5y4h4OoDxIltuSHq8ioMaOmOUQuP4qV9Wwz95jv88P1UjO1ZE/qBqzGugyu6zzyCsARxBA3xN7ZjxsQlOBIq8ccPLHn9BOH89YfIjYz+0MuWV5/vp0p1/wpOBJ3BlbtvxJYsUp9WZFtcMP3iZkhy+5H0V6TY9gGpHvtQJyMZWQz+nV6Jbe8t7gYt62BGcsPqNNTvWrr3jXt0mGa1syG5oiz187tPKrE9mYoeenckI7kdjdyTDyskjeT1Iye7kXvo/efmwy9bnny+n7BXfr3IRGZM3deFiy1Zwx2SooSnJ3D4yDOYthuNKV0rwEhsT6Fv2QTjV6zA5HZ2KBIXg0SxPYWwLtX/RWIB7MEpyMvGtONwECVGRSFaJYepuRlM9MTGNPRKtsR3W/diae/yyMOzJsZ0Qt6EQ/Q9HF45CX1a1UYFGwtY2FRArVZ9MdnnOB5q62GKfYQTa6eif5s6qFTaElb2VVDPfQCmrD6OR2nHSUhUf48hMioaMXcOYvmEL+HqVBYlvygBm4q10XrAVKw+eh/R4uBZoV+qAiqUAe77H0PAC7ExC14H78PqJUvhe/wu4lWhuPTnKixatAiLl63H0ftpz/hf4eZBH0zt3xYu1cvDxtIGDjXd4DluEfZc/08cRovsrJ+MRN/C9vFN4dD4R5zMZAVlb9me48qOBRjr2QI1HWxgYWGN8s7N4TFmPnZceS4OkwMJTxG4bR7G9GgG5wqlYWlVFk5NumHUvO24HJFJH0hOtsM04q+vw+DmHfHT8Vdii4TYK/Du2wyd5p5I32Ed+xDHfSajv3s9VLa3goUw/9WadBXmfyf+0badZXe+1etoy2yM6NIY1cpawbJ0RTi7emDs/D9wWduqj7+D3bNGYMik9bgUKballXRykV0Z9DmoQg7RjNY2pJAZkEXN9tRvxFgaO6IvtatRigxkSirXZRGdfSEOnOLZSVrQuRwpZXIqVqk59Rg4nEZ49aQ2NSyFNgOybTeH/MPfneXH3VhIrQxBSmc3am6jILmpAzXu3IcGDe5HHi2rk4VSRjIDe+q48AylnZR2cXRtZWeykhuQvfu3tCngMUWJf9EuhgLnulJRmZBV6uNuzZfMnHqs0eibeHOVNg6vQ2ZyGSlKVKNWHgNp+PBB9GXr6lTKQEby4rVp2IZ/6I04eCrZXD9a+xxeXKBVvSuTkbwENZr4Jz1M3XGSRjaW7WUg+fR3EoYVls3ciVp5Dkq1bLKiTtR/9aUs9x+87XPo+wutGqB+XyVZ1nSnnoOH07ABHuTmaCZsXzIyrT6Q1gZJv2uOtkMJkbuHk63ciNouu5umn0lD5B/kZSkno47eqdep6j5tHepIRsI8WNbuRIPH/I/GjR5MXV3shDY5mbn8j3an+RCyPd8vL5JP36pkol736bYrOZnWHEpr53mk63OIOTOd6hoIn6XchobulO5Lyt1wUN2lDX3sSWFYhfqsPEsa26t6qcl/fieyUxiS84S/6bnYTKpHtN2rAhkobKn9rIN0X3OPVIXS6eV9ydFISbWmnny7s6aEA4QV6NBjIR1/HCf+JdnzS740xNmEZIa16Ntj2ejSEubx+AIPqmIiE97biCydXKlz35E0abY3/XHqrpaNW0VRkS/o5tJ2wk5nTV7bwujly5f0KjJGY2MKpwMTapGx3JRqea2mgLBUK4aeXfClEXWLkdy4Fk04kKbTKAfrRyocVCFHaFbbMqRQv8+cYxSaepvUIgvLJqyzPaOrkaG8ONUd8StdSP2h07PA9TSqgbqj14nG/BmqsU60SwkHhbEJGZk3oq/9gihCc8S4UDrjM5ici8rIyHkc7QsT21PkZDvU4n3CISZoDjU1VFC5vhvodozYmOQZBSzvLWxnFtR7U6jYJsjufAuf/59jnIR1X4xqD11D5yS2q5H1zMjExJjkaTskX56mJf1aUJPO02nvY+kly9VwiPL/lpwNlFR78jHpb2zVQ/LrayskXA9aK67FKHWCKRVUYcgf9ERyHuPoSaA/BT55FwAp4aCoMJJ2a+mAfeU/leoo5WQ9cJvwUWTPy5sHac2MUfRlGxdytCkqpLg6iIzIvsVoWns+QhxKk4oerOwg7EC2NHx3+hSOuTibmhrLybLLSrqeaiN5Jy7Yh7pZy8m46Wy6qDFMTtZP2nCIuf0HjXMRdlDjqtRP+AZ/mTxYFmWybOdmUENDYT1386Hg1Bn9VtzNNeRhI+w8DWfSeS3Lryl5/tXfanbUa/0dLTtlFF1Z0p7MhR23yeyLwnHOOznZDrV5n3B48/d4qizszG6/XBc+pfRiolKvjOzOd8z5mdRQ+Jytunhr365u+FB3YbsC8vVqRSyuHDmMa3ou8OhZF5+LranoWaF1p1aweuGPkwHqa66xuHboIIISq6JrLzeUlOwI1EfJag1QrWT6LkADp9poUFz8RxpGNVrCrYoc4Zcu4Xp2Oh8ExmVd0W/SQmzYcxxB90Pw6PIB+HzTDPqnF2FQt6HwuZadk/xYXN//F87EVITnUE84aLnRUr98dwz1rIy4M3uw92rK+7/f+lGLClqDoZ374JebDhjt+zuW968KY/Fv7y8WVw/ux/n4SvAY0h3ltfTS6pftDi9h2eLP/4X9/2R93Rk4ecKrsy2k+4eLoPKXXuhmH4uzew/g+tu3zcl2mDeUVeqjYZl4+K+cip93BiEszaIXLqK5MWR3vp/j6v69OB9bER5DPbRvV+W6Y4iw7g3Ef2dHLoZDHB7ev4OY2GvwHdkGLVq0kHx1/m4XHsT9h5DQp0gQxrl39xbiDCugQsUi4vtkg0ymZcMRKErAzEwfqhf/4eV73btTGGaVmmPAzN+wY+mXKPPv75i9ZB+y3sUWhzu3byDus6qo5vSZ2CblM1St6gjDmGDcup2yFb3P+knE80Af9Os8FL8GRcGm1VCMcrcVliY3CfN356awbI6oWi2jZVOiqqN62W7g1p2shoMMnztWRZWMFvvz6qhWxQAxN+/g7tu7pXKyHeYRM3dMWzUHHQofxpRO1WFbuhLqt/bAkEkLsMn/XprOy+zOdwhu3xXWvVHm21U19XaVgz09V69WJCYmCu9ohBI2pVG6tPSrjPCN3n/ISHStWyJpx05MSESinh70sjEnMoU+hEP9TMhQSD2MME9p70nImcIo120Eejkr8PDEKQj7W5YlJCQkL6PWJEumJ8xrfGIsoqPf7UA5WT/JEvHixC6cULrB080OIRsmYIz3ZWTvBtrMJS2bPAvLpl4GqKBSZf5p6OkLn6/w4anHyXix1cMI/6MS5iG5IUlOtkOtChVCIfX/5ugnSHowc/kKG09dwpkd3pg+oCns9B/hiPcE9GpcE436r8IFjYsg2Ztvs6SrdomyzNe9LGnd60Eh7DfZIp5eZI9kn0MU+X/rTAZG7rTklpaTz3Si6OTUmmSgdKEZF7JwMip625ud0R10qnu0rL0RycsMo13pT5XTi3tDkZldnlA9IZ8uwntaetEfqd5TRQ+1npeLy2hQh747k9EEYujs9/VImerc8H3WD8ig+nD6Xd0T9uIUzXYzJ3nRejTxQNY6Bd/JwrIp69EPARnNXwydm9GAlAZONOl4ZitZ8OYQja+iIGWjWan6X9J5c5QmVjMgg7rT6d2qzcl2qF3UsYlUzUBJLjPOp+rXSOXVJuppjPRXK7RQPQuiLRNcqZTcmBrNTHnf7M53FJ2aVlvYrmrTtNMZb1dnptcVhnOmKSeysO41ZPv7SLsiqNa4McrGHsHG9WeRwVVhDcI4TV3hkHgO2/yOZ+NQPbdF4dDkOjCv7IHVwRn8GiHqKoJvxEJuYQ7zVGmtB8PPjKBI/A8REWmvdIvLiIvY/Ot+hGg5hk0I3Y/1m8+n+WZ/n/Ujh0X9VmhuJ5xIfF4XY5bOR++SF/Hz8HHYICxD1mW8bI5Nmgnzdx6b1x+U/M1JkvDD2LA5AKpyzdHMKQunR0pnNGteFqrTfvA9HC42ppWABzvXYcs/QBXXZnB8+7Y52Q61K1KuIiqZxCHouL/WHxO+DrqGG9n4EYheMUd0nTwO3exicDHggrjesjvfRVC1mSsqIRCb1+3FE23bVche/PrbBaBiC7hmZd1rEkMie7Rdyoy7Tis7W5Lc0JH6rb6Y/jJRRCBtXTiftlzS+L6Pu0VrPWxIrqxMfXzSjxP3yJ9Wz15If95+l6a5f+SgopBdI6mKgfra81ja/I9Ef37cA9o3qTEVlxtSvemnhdxOLS54CbkXlVPRRlPpcNrrhCnLqLCjjnOPU0iaP6tCT9AvXcqSgVwupHWaXuUcr5/09zk8OzadmhSTU/GmP9BxqYsuWmRt2cpSlwX+6S6RqsJO0aLu5YVlK0Oe625J9tpLSbl6Y1CuGy08GZbmaCeOHh74gVpbyUlRrh/53Us7TznYDrUKox3DHEghtyL3n46nW76o2ztoXINi6m/ZNEcOwpHAjOZUqYEXrb6Ybg7oVcAsamYiJxuvP95dmcjufKvu0sa+9sK82VC7WYfpUZqVq3pyjOZ2sCWFwp76bEh/teXNkxsU/Fj7zpG74SBQ3d9F49WXzWQmVK5ZHxr3wzxatHg+/TiuNzUta0wyYQfp7Zv68pTq0T76tqlw2CuMU1Y9zvdz6ZeFc2n62C/JpYwhyUycaeLBdx9knpxWCB/F6YXdyEF4X5lJOWraczRNm7OQlixZSLOnjKAudazIQCanUi1m0DHJa6MRdGSqC5nKZGRkW4/a9ehJg37cRffFBVU92kuTmqiXUUlWdbrTyKk/0fz5P9G0rzyovo0hKWzc6cdJnSR/IJOz9SP1w6sYur72SyqrUFLlwZvpbtqtRatMlu3xPprW3EKYP0OyrtuDRmksWwP1/MktqcW0/aTlcroWKnq0byq5WgiBaWhD9T2Ez2P2fPp55rc0vFONpJurFDZt6KejaYMjWU62Q21UD3fR13VMSSYsX5n63Wj4xOk0Y8Y0GjfAnaqWUJBJlapUXpE2HOIoeH1/qqLenozLk2ufr2n63IW0SP25jfGgupYK4fS0DS04l/oTyu58q0KP0MyUm6ZqdaWRU2Ylr/tR3amulVIY3oZazzicLtTirq+kzpZyYR460Ypr0pGds3BQp+mIymTTagEFSp2IPb9M22cOIjdHc1Im3WEnfJDFHaixx/9o+aG76b51k7z4h36fOZDcKpcQdkJxHNOy5OIxkdaeCkn9Ib74k8ZUsaBGM05Jv1eSCNo92pGsW8ylcxmdt6YSR49PrKFJng3J3lT9La6eD/U9DgoyLe9K/Wf+Tlczukkg7hEdWTqK2te0o+KGBmTmOpvOak77xRXaPqM/Na9klryMws5mWMqJ2o2cT3uCI4VT6KlU28KJ/ndAIs2yvX4sqfkcifNkVSjtn1ifiln3o80a999kKrNlexVMu+cNI/fqlmQkLJd6/mSGFuTkPozm7QnWHuKZeBX8Fy0c25lq25iI95vIydi6JnUYuZD23Za8n/SdnGyHWqhCTtLqiZ7U0N5E2HGT30tpVYu6jFtBx++doBmNLMlx7F9p7k8QtqeTa2lK35ZU3dpICJfk8QzMKlKz3tPIL1DL4Vt25/vNbdq/dBx1r2dLRRXJ615R1JbqdR9PS/fflrzrVn2PRCN1cBm50Awt/UV5/CSoBLx++gTPohUwLVkCxlnqLI1HZHgIImIKw7SEME7uXnvLutehuHnnIZ69TkSRL0qjfHlzKMU/vb94vAoLwX/0OUqaG2fzR1y5sX6i8N9/evg8T55ulYCoiCcIjwSMzEqhmDKTrvQsE95X2JaexhvCrJSpcMadHTnZDrUR1n+Y8F7xRjC3zM58xAqfeTheJChRvEQxZG21ZH++E6IiEPIcwvCZTSMaD07/jctUBa71SksuBz8mjjEmKRevVjDGChIOB8aYJA4HxpgkDgfGmCQOB8aYJA4HxpgkDgfGmCQOB8aYJA4HxpgkDgfGmCQOB8aYJA4HxpgkDgfGmCQOB8aYJA4HxpgkDgfGmCQOB8aYJA4HxpgkDgfGmCQOB8aYJA4HxpgkDgfGmCQOB8aYJA4HxpgkDgfGmCQOB8aYJA4HxpgkDgfGmCQOB8aYJA4HxpgkDgfGmCQOB8aYJA4HxpgkDgfGmCQOB8aYJA4HxpgkDgfGmCQOB8aYJA4HKQmPsHVkPdQZsgn3EsS2DMXjxtp+qNVwPHaFqUeIhv+PrihnbQ0rKyuNlxmM9QqhkJ4xzFK1Cy/r0qjabx1uxwujJ/yL7aMaoG7/tQhW/ztbYnFpuSdqNZ2E/c/FJrWU9xzih/tZWib2qeNwkKIKQfDFIASdv4bHcWJbhuLx6FoAgi5cxM1wlfBvOcwrNYZbq1Zopflyqwc7I2GVy63g7Jbmb61aonktO5joC6OrnuDahUCc2TgPyw5EJE0hqxJCdmHpz1txLuASbjzTSBbxPS+dv4p/s7RM7JNHLL2Ys/R9PSUZ1JhM/lFiW4be0MFxFUmhbEpzL8eIbRLigukXN0OS24+kvyLFNini9IXsJtNWv9CVOLE9UzF0YXYTMpaBYNiKFt7QGDHby8Q+dXzkoNMS8fzQSqzc91T8d8YSQvdg5Sp/vEoUGxh7DxwOOkxRtgHqW93BxqUbcCVWbNQqFlfWL8fm5w3RoZWFcGLD2PvhcNBhMmMXeA1pAhzxxop94WKrFuF7sdLnNMy7D0FXGz2xkbGc+0jC4T8E71+F74b3QucOHeHpNQmLdwbhaYHvdZehtOcweNrehd+y9bis9eghFpfXL8PmsLoYOLg5PiskNjP2HnQ/HKKvY+OQ5qjfejCmL9uA33fugJ/3LIzq5ILGvZbjwitxuDyQGHkPZ3ZuwZYtmb124dyDN8iLU/1CRd3gNVg4ejjqjeXajh7C92HlqpMo1m0oelbhEwqWS8SOSR0VQ5fmu1Exde+7MKvpXjJDqv3tMXopDp1r3l4tkJhmRq9cvlrx9spC+E4a7qAgE9e5FJju7WPosrCOiho3opnn1ANH0s6h1iTnqxXsPen2kUPUKfitO4IIbV/JiW9w4VdfZPNWgCxTVPLCmqP+8PfP7HUEK/ra510nYPHkowfZcW+s+CsMqc6mnh6A96pjMO40BL2cioiNjL0/nQ6HhJDruHov4zt2VE+v4uqtaPFfuUtm8AXK1mqABg0ye9WC3ReKPFyZhVGlp7rv4QH8lvhq9D3E46rfcmz6twb6e7WDJfdDslyk20cOcr3Mv41lcsjlut918t7Eowe9E95Yvic0+egh4iC8Vx6BYXsv9K2pTBqMsdyi03uVnnl11HBUZjiTCusaqFGusPivgizl6OEhNi/9FZei43Ft0zJsvO+Ivl4dYc1HDSyX6fZXbuHq6DXKE+UUWmZTbgX3rwahibH474Iu5ejh5Cos37od3t6HULjdEPSr+5k4AGO5R8ePx/Vg0202fBf2hpNp6lmVGTmg80xfLBlUSfhO/VSkHD08wuo+Hlh8uyJ6e3VBGT5qYHlAx8NBzRQ1h6zFsYCj8FsyE9MmT8GPv/hi79mT2Da+MUp+ajuGePRQVCZD8dZeGFDfSPxD1qgeH8aSMUMxdKiW17BhGDXFN0/vH2EfCfGSJtOkukvretqTbbdVpHmrgHYxdGVxO7JxGESbH6vENilhtGNEZbJptUDifgUNqnu0vk95svfwoZtS039xltZOm07rL74SGzTF0Pl5bmRdeQTtCBeb1IT39O1tSwba7hl5+5KRgY0HrbmT5Z+CsgKqkPo/wkbBGGOpfASnFYyx/MDhwBiTxOHAGJPE4cAYk8ThwBiTxOHAGJPE4cAYk8ThwBiTxOHAGJPE4cAYk8S3T2dTQvRzhDyJQKzCBGbmZjBSl6/LVDQiHj7Gsxg9GJuVQsnPs/o70pyOx9j74yOHLEiICMIfC8bBs2kFlPi8OKzsy8HeuiTMLCuiUfexWPTnNbwQh9UUff8Qlo7tjLq25jAvUxYO5W1haWEHp7YjsGDvLbwWh0srp+Mxlpv4yCFD8Xiwfy7GjP4JO2++gZFtfbRoVhP2JT9H4fhXCL17Cf5/H8X1CBNU7/sjFv80CHWKJ/+GPOryKgzsNgqbbylRvlkruDqXhVmRRLz89zKO/bkPF56aoeW0dVjzTROU0PjZeU7HYyzXqcOBSYmju9tGkrOJjOSlXGjYsqP0QOKR7jGPT9Kq4fXJ3LgWTU155nvcDVrWwYzkhtVpqN81SvvD6rhHh2lWOxuSK8pSP7/79PZH3jkdj7E8wOGgRdSlheRuLieFXWdaePqZ2KpNDEWEPxf+m0z1eDV1EULFzMOXnmjZg1VP9tK0Li1p2K/BQgyJbTkcj7G8wOEgRXWP1nlYklxZjcb8FZrtb+i4W4upjaGCHMbsozdiW1bkdDzG8gJ3SEqIvboN6/eEomSnrzGmRQlk99Rev1QFVCgD3Pc/hgCpnkotcjoeY3nhIwmHD1lINx4Pjx1BQLQVWnduA6ucdPopG6L/yLYofmkBBvWeAr9zT5Clsjs5HY+xvCAeQeiuqGu0wcuZTNM++1BmRBU9ltH5XC+UGUl/jbQnuVF7Wn7vPbr8VCF0fIEHVTGRJc2rpZMrde47kibN9qY/Tt1N19n4Vk7HYyyX6Xg45Ech3Ve0pV9xkhXtTX65sCe+vHmQ1swYRV+2cSFHm6KkUC+LsNPbtxhNa89HiEOll9PxGMstuh0Obw7TN44K6WAQX3KrAbQ1s4sJ2RJJe0bYCUcOHcn7YW5fLIyhsH8OkM/EDlTBSEZy22606mpGj6FOkdPxGMs5ne5zyJ9CuoVhZ2ePwtH/4MqVN2JbbikMs0rNMWDmb9ix9EuU+fd3zF6yD8/Fv2qX0/EYyznd7pDMl0K6+ijTwAVOinvYu+sQwsXW3FUY5bqNQC9nBR6eOIWgKLE5Uzkdj7Hs0+lwyK9CuoWrdkVPt2K477cAK07moPRTfBReZ3YwI7dCqVJ6SHzxEi8TxbacjsdYHtDtI4f8KqSrXw5ffjMajfRPY96ob7D5ZmZ7bAJeR75OLouPKByaXAfmlT2wOjg+qUVS1FUE34iF3MIc5kmXS3M6HmN5ROx70GERFLC8LzmZylJ1RMqMHKjznCNabzN+f1F0dV0fqqiUkdKhI03//Qo9F/+iKS70HK3/nxvZmjjRxCPq+xpVFLJrJFUxkJOZy1ja/I/EtZS4B7RvUmMqLjeketNPC1NSy+l4jOWNj+ZXmZF3/PHnvhMIDomGfvGyqNmiDVpUMBX/mlde4/qW6RgxbhGOPi4Mq1rN0apJDdibm0A/7jkeXQ/Aob8OICgcsGw+ESt9pqClpfrr/AXOLBqCft9uw02ZPRq3bQ0XxzIorgTehN3CuYM7sScgBKau0+G3aRIaFkueWs7HYywPJEUEy1DU/aO0anJfalHZLPl+g5SjF4UplW3QncYvO0C30v0YIo4en1hDkzwbkr2pXH1ZKHk8mYJMy7tS/5m/01XJGzRyOh5juYuf55AtUXh6/wEehT5HrL4xzKzsYWdWRPxbBl6H4uadh3j2OhFFviiN8uXNIRwMZC6n4zGWCzgcGGOSdPtqBWMs33A4MMYkcTgwxiRxODDGJHE4MMYkcTgwxiRxODDGJHE4MMYkcTgwxiTxHZJ5hovgso8bHzlkWzxu+w5AbZex2BmS/tn4XASXFRR85JBtUTgyoS5aLi6K6Sf2Y4LTuyMCLoLLChR1OLDseEOHv3EkhbIRzbqo8QRoLoLLChg+rcglCU9P4PCRZzBtNxpTulaAkdieQt+yCcavWIHJ7exQJC4G/PhHpus4HHJJYlQUolVymJqbwUTLKYNeyZb4buteLO1dHvpiG2O6isMhl3ARXFbQfCTh8CEL6eYQF8FlBY3Y96C7Pngh3cxo6ZBU4yK4rADR8SOHWAStGIOvVp3H87Q9eImRuLZ5PIbPPY4clJ3JG3rmcBm9CSfO7ceaH/qhUalY3DqyAfMmDkbHBlVR3W0M1l3gInbs46Db4RB1Cn7rjiBCW9d+4htc+NUXByLEf+sI47Ku6DdpITbsOY6g+yF4dPkAfL5pBv3TizCo21D4XIsVh2RMd+l0OORPId3cxkVw2cdJt48c8qOQbvw1bJrghW+33kQGRelygIvgso+LTodDvhTSfR2Iv1b4YPHWk1q/3eNihdOCQvrQ16zhyUVwWQGj20cO+VFI16AM7MopEHPpPM5I9WVEX8OFC4+QWMwOthYptzJxEVxWAIlXLXTYhy6kG0Pnf2pCJjIjch71B93VvFqpCiP/mS3JXG5Alcfs0yisy0VwWcHDhXSl/Hca877shon7nsO6YTd0b+kEc/lz3Dy2HX5/XgNqf43122ahtXCK8A4XwWUFTFJEsPQiLtKGiV3JuZSBWMxWRvJilaj1yGV07LG2wxUugssKDn6eQ2Zeh+H2nft4lmACS1s7WH6exZ9McRFc9pHjcGCMSdLtqxWMsXzD4cAYk8ThwBiTxOHAGJPE4cAYk8ThwBiTxOHAGJPE4cAYk8ThwBiTxOHAGJPE4cAYk8ThICXhEbaOrA07a2tYWVmJL2vY2Dqgmkt7DJy6GscfpHnsU9I49VBnyCbcy1I9jXjcWNsPtRqOx64wjRFyMm3G8gCHgxRVCIIv/oP7UUVRsVZt1K6tftWCcxUbKJ+exq8zBsOtaXfMPhaOt7t10jhBCDp/DY8zfiauKB6PrgUg6MJF3AxXiW2CnEybsbyg/lUmSyPmLH1fT0kGNSaTf9pHNsWF0jnfkVS/uIwUDoNp2yPx2Q4ZjSPpDR0cV5EUyqY097LG46ZyMm3G8gAfOWSXfgk495oLn+ntYHrbDyt+u4YPVoUiP6fNPjkcDjlSGA7deqClWTQCTgd84Jqd+Tlt9inhcMgppQUsSsqhehGBCI0ugw8iP6fNPhkfSTjoYJXt2Gd49lQFPWNjmGRaeSeX5ee02SdD98Mh+jo2DmmO+q0HY/qyDfh95w74ec/CqE4uaNxrOS7kSxXdBPy7fxcOPlGgSo3qKKnxEOrEyHs4s3MLtmzJ7LUL5x68QfZr22ifNmO5SuyY1FExdGm+GxVLW34/5SUzpNrfHqNcf6Bzhlceouj+gZnUroyc5FY9aPWtuORmcRzJ+czolZ2rFdqmzVge0O0HzEYdwYS6LTH7svYbB+RWA+AX6IMuuVkHIjYAPzRtgu/vVkXn9lVRtFByM8W/RtitABw7cRMvi9XH2FUb8FP70kj68hbH+fFlL6xY2hNlM/1GV+Hq6kEYscUas878hXFVxJJ+OZk2Y3khKSJ0lOr2UnI3kvi21XwZ1KHvTmfpxoKs03IUIJMpqZhdLXL3mknbgt7Vu0qS4Te+lIzvc8jWtBnLA7rd55AfVbY1GFSfiKMvoxAVpX7FICbuDZ7dPovdKyais2NRcai8kZ/TZkxNp8MhX6psayokg55+ERQpon4Vhv6HPIbPz2kzJtDtI4f8qLLNGEui2+EAPdh0mw3fhb3hZJp6VmVGDug80xdLBlVCHh03MPZJ0/FwUDNFzSFrcSzgKPyWzMS0yVPw4y++2Hv2JLaNb8zX+RnLIx9BOCQzsnNBj+ET8d2P32PyV72QZ+X31eTFYW1bCqXsSsMsq3cgZnscPZjb2KOktR2si2mMkJNpM5YHuJAuY0zSR3PkwBj7sDgcGGOSOBwYY5I4HBhjkjgcGGOSOBwYY5I4HBhjkjgcGGOSOBwYY5I4HBhjkjgcGGOSOBykSBWzFf5/23KOqNemDyYs24+bkeKwH0D0mblwr+6GGf5RYotaPB75r8ey1cK8vBabGMtFHA5SpIrZ1qoJR7uieH1pG+YOd0cj9/9h5714cYS8pbp/BSeCzuDK3TdiiyDqEH4e2B/DB/fCDzufio2M5R4OhwwoSrfFlA3bsG2b+rUdO/Yew+XrF7Hjh1ZQnlmAYWN9cO3D5EN6hR3QuH0z1GrYEc2q8aOwWO7jcMgu4/JoO9EbCwaXx7O/VsD3hOah/gekVxod5uzD2SMr0bcSPwuL5T4Oh5zQM4drx9Yohzu4GHhPOPtnrODhcMghvc8/R1E54c2bNCXtou/h8MpJ6NOqNirYWMDCpgJqteqLyT7H8VBbvfyEpwjcMhsjujRGtbJWsCxdEc6uHhg7/w9cfi4Ok04UTs7rjKa9VyAo7fvGPsRxn8no714Ple2tYGFVFtWadMWoeTvxzwtxGMYy8ZGEg64V0k1A+JV/cDOuMCwsSr2trZEQehgzuzRBq2ELcCiiJOq264Ee7eqg5NODmO/VCs17LkbAf+LAKV4FYvXA5mjiMQmrTrxEqZot0cG9ARwK38Tmyd3QpOUwbH8sVUr7FW4E/I1jB87jtmZBsIQH2DamLdy95uPgs5Ko384Tnl2aolxCINZ90wXN2n+DPY+4bj/LgqTSNros6hpt8HIm07T1MmVGVNFjGZ3P9UKZgkyqV0Xd/I0GV1GS3KIHrb2nSm5U3aUNfexJYViF+qw8S+FicxJVCPnP70R2CkNynvA3va1XpQqlP8c4kaG8GNUeuobOhaUaiZ5d8KWR9czIxMSY5DJj6r4uXPybWgit7mpMshIDaNsrsUkQEzSHmhoqqFzfDXRbo5AW0TMKWN6bqphYUO9NoWIbY9pxIV0pYjgoKvSjZX/uo337kl97ft9Ay74bSE3KKEmmsKWuKy9TSnZE+X9LzgZKqj35GL0Q21JRPSS/vrakKCEEysPkEIg5P5MaGsnJqos3XU+1I78Td8OHulsL5y/IWji8+Xs8VRZCyO2X6yRVZjcmSsuEGEtDt8PhzWH6xlGRPhQ0XnKrAbT1mTh8btFSrzL5JaOiFdvSN5uCNEIphs5+X4+Uhm70y3Xtla9f7houHD1Y0MBt6jFj6MIMF1IqHOl/hyKTB5AUSUcmVCODLIYDhe2gYeUVpKzQlWbtuEShnAUsh3S6zyEh5Dqu3tNeYVtN9fQqrt6KFv+VuxT2XfCdtw98fNSv5ZjYxhJymSEq95iEbz0c8e7ugjg8vH8HMbHX4DuyDVq0aCH56vzdLjyI+w8hoU+RIIxz9+5NxBlVRTWnz8T3kfIZqlV1hGFWPykzd0xbNQcdCh/GlE7VYVu6Euq39sCQSQuwyf8e+GZKllW63SGZz4V0ZSbl0aznAAwYoH4NwcwNmzCpNnB68XdYdSl1ICUmJgojGKGETWmULi39KlOjJfoPGYmudUsklc5PTEhEokwPepkU5pEJA6j/T6HQF1syogczl6+w8dQlnNnhjekDmsJO/xGOeE9Ar8Y10aj/Klx4JQ7KWEbEIwjdFBNAP9QXzu/THdq/eykcvqK9ud3pkEGH5LMD46mGUk6lOiyjq2/PIKLI/1tnMjBypyW3tJ9WpBZFp6bVJgOD2jTtdEY1+2PozPS6wnDONOWE5nBaTiu0UD0Loi0TXKmU3JgazTwvvCtjGdPtIwcdLKRbrOnX+G6AA57vmY0fN94Wb4AqgmqNG6Ns7BFsXH8WWftiLoKqzVxRCYHYvG4vnmi5upgQshe//nYBqNgCrk5FxNbs0yvmiK6Tx6GbXQwuBlxAGF/NZJnQ7XAQDpF1rpCuXgm0Gj8VvexCsH3mLPzxMHkv+6zhAIxoWxTnfh6O0WsCke5eo+eXsG3RAmwNevdzTmW9ARjbwxp3V4/F0LlH8G+aWy0TQo5jwbCvsfqONbqPHYj6yuR27aJxYmYLVHYZgjWB6e92irweiCuhiTAtYQZjrjHKMvHRlMOLvOOPP/edQHBINPSLl0XNFm3yrl5mbAB+aNoEM2PH4KD/j2iQ7gs7AffW94Nr/80oMmQrDv3SDiWEnS3hwW5M7DUQC07GwrZJB7RrXAXWn8vw6sElHN65A0cfFEdPnwNY08s2qc8h6Z3CjmJO/774bl8Yiju3RSe36ihTtBBe3g/EgT9242xYcbScthZrvmmSNI13QrGmW3kMOt4VW275oLORui0eNzYMQddh63C1UFk07egOl8rWKKqIw4v7F7Fv63acQ3PM/eM3jHbOqBOUMUHSyQVLTXWX1vW0J9tuq+iGti6EuBvCMOXJvPEMOqPZFfD8Mm2fOYjcHM1JmXR/howUxR2oscf/aPmhu2/vi0jlzW3av3Qcda9nS0UVsuRxitpSve7jaen+2/RGHCy1V7RvnCNZNPieUnVFUBw9PrmWpvRtSdWtjUgmzoOBWUVq1nsa+QVGiMMxljEupJtnEvD66RM8i1bAtGQJGGflQoMgISoCIc8hjFMMyvc+9I/Fq7BwvEhQoniJ3Hg/9inhcGCMSdLxDknGWH7hcGCMSeJwYIxJ4nBgjEnicGCMSeJwYIxJ4nBgjEnicGCMSeJwYIxJ4nBgjEnicJCS8C+2j2qAuv3XIjjbFWticWm5J2o1nYT9WmtOMKb7OBykqJ7g2oVAnNk4D8sORIiNWZMQsgtLf96KcwGXcOMZ18JiHy8Oh4zEBWPj0g34J8v7eCyC1i/HlntSRWgY+7hwOGQoEc8PrcTKfVkrcZ8QugcrV/njVar6eIx9nDgcMqAo2wD1re4kHT1c0Vbn8q1YXBGOGjY/b4gOrSwyf2o2YzqOwyEDMmMXeA1pAhzxxop94WKrFuF7sdLnNMy7D0FXm4yeqvIcV3YswFjPFqjpYAMLC2uUd24OjzHzseOKRA/m6xOY07EZ+nlfxn93DmL5hC/h6lQWJb8oAZuKtdF6wFSsPnofGVbuSIjApe3zMNqjOZxTplnDFd1HzcGWi+HI+Fmz2ZxfVnCoH/ai+17Q9X3eNG1YT+rUvgN5DJ5Ii3ZcSl2PMjdpPJr++OOdNNxBQUVbzKMgrc9zj6Ggec2pqEkzmhv4gnYOtSa5YStamPYZcy8Dyae/ExWVyUhh7kStPAfR8OGD6MvW1amUgYxkRZ2o/+pLpPmkedVjH+pkBFI6u1FzGwXJTR2ocec+NGhwP/JoWZ0slMJ4BvbUceEZ6TJ8Ly+Qdx9HMhGmqbR0JvcvhWmOGEw93WuSpXpc48r05bKAd/U7NeVgflnBofvhkO+FdGPo8nw3KqooR0N2hIkDpJFUgk5J9oO2UYgqUjocVCG0Z3Q1MpQXp7ojfqULqSvt0rPA9TSqgZkwnhON+TNUaBH/IoYDZAbk0GOhEFapA+f5JV8a4mxCMsNa9O2xNLup6gntGulISrk5NR63mS4/T52mL65spnFNzEmurEzDdzx+O80kOZxfVnDoeDjkbyHdt0VtwpOPHkxc51JguqMHMTyMG9HMc+qBpcMh5twMamgoJ+tuPhSs5aG1cTfXkIeNnIwazqTz4nRSwkFRYSTt1iyVqeGV/1SqoxTee+A20iwbGhPwIzUQplmmpy/d0TJN1R1f6mUrJ2W97+mMxrLldH5ZwaHbfQ5Rp+C37ggitPX+J77BhV99kc1bEbKvuBu8BjeB7Lg3VvwVlvoc/ekBeK86BuNOQ9BLa9GZWFw9uB/n4yvBY0h3lNfysFn9st3h5VkZ8ef/wv5/UveAGjjVRoPi4j/SMKrREm5V5Ai/dAnX33Y+JE/zYkIV9BjYGbZapqln2xkDezgi8dI+HLycMs33n1/28dPpcMjvQrrvFEaVnsPgafsAfkt88XYfQjyu+i3Hpn9roL9XO1hq7YeMw707NxH3mSOqVsuoXoQSVR0dYRhzA7fuaO5sMhh9pnxb6yIdRQmYmelD9eI/vHybXMI01YV6lZVRxTGjajhKOFapnDTNO/dSpvm+88sKAt0+csjnQrqpiEcPeie8sXxPaPLRQ8RBeK88AsP2XuhbM+NyVAkJCUgUliezorl6SUVzVVCpsnOzhAyF1KsgMRGaYyUkqLI0TZkwXnxiPKKj3+3geTu/7GOg0+GgZ14dNYRvvYxmUmFdAzXKfYiCeClHDw+xeemvuBQdj2ublmHjfUf09eoI6wx3IjksrUtD8fombt7I6Bs2Fjdu3cJrRWlYW73vMslRykI9zdu4dTPjad66/0DYvTXlx/wyXaPbRw66Vkg35ejh5Cos37od3t6HULjdEPSrm1lpuSJwbNIMDonnsXn9Qe1FbMMPY8PmAKjKNUez9yiam6wIqro0hK0qAFs2HoHWezyfHsXGLecQJf4zWX7ML9M5YsekDouggOV9yclUXSbu3ZUKmZEDdZ5zhJ7kxTW0DErwp1y5SJoHg+o04Ujaq/xaLmXG3aK1HjYkV5SlLgv8KTTNfKvCTtGi7uXJQF6GPNfdopQxk69WyMhi8O/a7ydQ3aNl7Y1IXmYY7YoU29TirtDitiVIbuBAHktOp7svRBV+hpZ6VCDLUuYkhzF1X6dxOSSH88sKjo+mVuar28fJb8lMmjZ5Cv34iy/tv5aHNR8zCoeUS5cyGZXotJJupdsrtISDQPV4H01rbkFymSFZ1+1Bo6b+RPPn/0TTvvKgBmUMSSa3pBbT9tNjjR3xvcJBEHdrMw2vWZRkwjTLNPCg0dPU05xN00Z7kksZIzJxGkrrVwwkC7kxefhqXgjN2fyyguOjCYcPStjZ1vcpT/YePnRT6ivxxVlaO206rb8otbvG0Pl5bmRdeQTtkLov4VUw7Z43jNyrW5KREDDCmR3JDC3IyX0YzdsTnD4AXvxJY6pYUKMZp6SL8CaJoN2jHcm6xVw6J3G/gSo8gNZP6UmNyxcj4QwtaZrKUk7U7qtldOxRDD1c1YmM5dY0ZEeaZFHL7vyyAoNrZeabBERFPEF4JGBkVgrFPkiV23i8Cn2CiLgi+MLCDEbqSSY8wcZ+tdF3jzOWXNgGrzLa5iM/5pflJ93ukCzQ9KAsZoXSpa3ybkeLDsDPHWqj9aTdeJD0TAp9GJvboIy1GAzCDh96cAF++T0UVu27o02Gl1w+wPwyncLhUJApSqGcbSJOzu2F9n1mYPPp+xC++JP9dxMHl49G936/4LKFB76b2DmDm7jYp4hPKwq62LvYM2ssxi/YjeDXcpiYW8Pic+D5o/sIfwOY1RmEWUtmoq+T0MiYBg6HT8R/Nw9h9+6jOH/jIZ4JoWBYvDQq12uJjm3rwopvUWASOBwYY5K4z4ExJonDgTEmicOBMSaJw4ExJonDgTEmicOBMSaJw0HKJ1VINwGPtgxHnTrDsOWRtgc3sE8Rh4OUT6qQrgrht4MQFBSEW6Fc45O9w+GQES6kyz5hHA4Z4kK67NPF4ZABLqTLPmUcDhnInUK68bi+diCadpiJ46/EJinxN7BuUDN0mHUUbweLfYjjPpPR370eKttbwcKqLKo16YpR83binxfiMKm8ws2DPpjavy1cqjugtE15ODVog36TV2J/8H/iMIxlzUcSDv8heP8qfDe8Fzp36AhPr0lYvDMIT/O8c12G0p7qx9Hfhd+y9RrFbNKKxeX1y7A5rC4GDm6OzwqJzUlkKJz4Ctf+XIwlW+8m17uQEOm/Bgs3nEJIjAJJBaYSHmDbmLZw95qPg89Kon47T3h2aYpyCYFY900XNGv/DfZoXl2IuoZNI9zg0toLs//6F0YOLnBv2wiVTEJxYP4wtG7ghqHr/8FrcXDGMqX+VaZOKwiFdF/sp3GOClLWnkYn3yQ3paJ6SOt7WZG8eAdaLj60MiZoDjU1VFC5vhvodqrnQj6jgOW9qYqJBfXeFCq2hdOBCbXIWG5KtbxWU0CY5hNfVfTsgi+NqFuM5EY1afy+tMsQQ+dn1CcDg3r0YwAXvGTvcCFdKbleSDeOri12p2KKMtTvtzTVrAUxgXOombGCyg/b+bYQ7pu/x1NlhSG5/XJd8rHvMUJopYi5OJuaGsvJsstKuq5l/44L9qFu1nIybjKbLqYahsOBSdPt04oCU0hXHxU8BsPD9jG2r9qE1DVnX+Co76/wT6iN3v2ao5jYqqxSHw3LxMN/5VT8LJxChaU5pSlcJKXCVCyu7/8LZ2IqwnOoJxy0FJ7SL98dQz0rI+7sHuy9mmnvKmO63edQcArpCoq1wMABDVHIfw1WH3yXZgn3/sBav1v4om0/eGqGi5k7pq2agw6FD2NKp+qwLV0J9Vt7YMikBdjkf0+j7yAOd27fQNxnVVHNKaPKW5+halV10dtg3LrN4cAyp9tHDgWokK46YCr39EJXqzv4zWcLbibdWBWNi5vWYs/zcujRtyNKpwoXPZi5fIWNpy7hzA5vTB/QFHb6j3DEewJ6Na6JRv1X4YJ4WSOp6K26oG0mD4iVJxW9jU1VMJcxbXQ6HApOId1keuZtMKhvLUTt98Hak5FIEMJl3foA6DXsgz6NtTzgtYglarQdgHE/LobvzhO4duMcfvufE0LXj8PXSy8Iu7pY9DYyGNevZ3QEJZx+BN/Aa75Bi2WRbh85FJhCuimKoEZvL3Qs/g82rNqOM1vWYus9c3Ts74lKWcw3vWKO6Dp5HLrZxeBiwAWEJRRBtaaucMBFbP51P0K0XCtNCN2P9ZvPpymYm0xPTzg+S1QhjsvoMw26HQ7CQbBNt9nwXdgbTqapZ1Vm5IDOM32xZFAl4Tv9Q0k5eniE1X08sPh2RfT26gKtRaIk6Fl3gFefqnj2Wz80GLYDkZW/RD/3UsKSaorGiZktUNllCNYEpr/bKfJ6IK6EJsK0hBmMhRGV9frjq44lcWv1OAxf4I/QNAGREHYSS0aOw5obiRIfeGFYWFvDWHUD58/fF44vGBOJVy10XkEopJtCdceHuprLCDJTcl8sdakyjoLX96cqRjKSGZcn1z5f0/S5C2nRwrk0fYwH1bVUkNyyDS049662perRXprUxJzkMiVZ1elOIzWK3ta3MSSFTVuaMbkzmcjSVNNWC/+TRlVWEIwdqLnHABq39gJJ3Y7BPi1cSFdKXhbSVYsJojlNlSQr1Zve3seUThw9PrmWpvRtSdWtjUgmFsA1MKtIzXpPI79AiXB8cYW2z+hPzSuZkYF6eCHA1AVz2w6bS7uDI+mlXy/pcBBEnPWmIc3KUzGlMVUasYO03O7FPiFctyIfRB6diEatFsFgwt84NK0uMq8pE4tXYeF4kaBE8RLFkHmpynhh+BC8SDSCecmib0+7In/rDasvd6Llmtv4rU9xsZUxaTre51AAJfyL3Ws34qpxK/Tr6ZyFYFArDOMSVrAplZVgUNMXhreGjUYwMJZdHA4fWOzV37B2RxjsuvdDZ7ukn1gxppM4HD6o/3D0119xnOqhT19XmIqtjOkiDocPKfYmzp19iJIdB8Kj6oc/4Nf7whzWn5mjRHEDsYUx7bhD8gOLf/4vnsktUfJD3biVRnRUNBTKImnuq2AsPQ4HxpgkPq1gjEnicGCMSeJwYIxJ4nBgjEnicGCMSeJwYIxJ4nBgjEnicGCMSeJwYIxJ4nBgjEnicGCMSQD+D90lekYlMuH9AAAAAElFTkSuQmCC;" vertex="1" parent="1">
          <mxGeometry x="300.00413200827205" y="1120.998177849265" width="263" height="277" as="geometry" />
        </mxCell>
      </root>
    </mxGraphModel>
  </diagram>
</mxfile>
